<svg width="2560" height="510" viewBox="0 0 2560 510" fill="none" xmlns="http://www.w3.org/2000/svg">
<g clip-path="url(#clip0_143_2730)">
<g filter="url(#filter0_f_143_2730)">
<path d="M863.862 -3.65331C577.837 11.4158 489.746 280.499 390.271 272.84C265.224 263.212 288.524 10.8166 390.271 -85.3504C510.203 -198.705 1057.7 -13.8654 863.862 -3.65331Z" fill="#5F8BFF" fill-opacity="0.32"/>
</g>
<g filter="url(#filter1_f_143_2730)">
<ellipse rx="382.514" ry="202.382" transform="matrix(-0.983125 0.182937 0.182937 0.983125 1845.08 716.943)" fill="#AC6AFC" fill-opacity="0.4"/>
</g>
<g filter="url(#filter2_f_143_2730)">
<path d="M1702.28 561.171C2434 351.999 2168.5 317.999 2738.5 33.9998C2867.41 -30.2272 2903.78 460.358 2802 584.897C2682.03 731.694 1487.97 622.436 1702.28 561.171Z" fill="#5F6FFF" fill-opacity="0.5"/>
</g>
<mask id="path-4-inside-1_143_2730" fill="white">
<path fill-rule="evenodd" clip-rule="evenodd" d="M1784.67 688.993L1784.67 378.259H1940.99V180L1784.67 180L1588.32 180L1432 180V378.259H1588.32L1588.32 688.993H1784.67Z"/>
</mask>
<path d="M1784.67 378.259V377.259H1783.67V378.259H1784.67ZM1784.67 688.993V689.993H1785.67V688.993H1784.67ZM1940.99 378.259V379.259H1941.99V378.259H1940.99ZM1940.99 180H1941.99V179L1940.99 179V180ZM1784.67 180V179V180ZM1588.32 180V179V180ZM1432 180L1432 179L1431 179V180H1432ZM1432 378.259H1431V379.259H1432V378.259ZM1588.32 378.259H1589.32V377.259H1588.32V378.259ZM1588.32 688.993H1587.32V689.993H1588.32V688.993ZM1783.67 378.259L1783.67 688.993H1785.67L1785.67 378.259H1783.67ZM1940.99 377.259H1784.67V379.259H1940.99V377.259ZM1939.99 180V378.259H1941.99V180H1939.99ZM1784.67 181L1940.99 181V179L1784.67 179V181ZM1588.32 181L1784.67 181V179L1588.32 179V181ZM1432 181L1588.32 181V179L1432 179L1432 181ZM1433 378.259V180H1431V378.259H1433ZM1588.32 377.259H1432V379.259H1588.32V377.259ZM1589.32 688.993L1589.32 378.259H1587.32L1587.32 688.993H1589.32ZM1784.67 687.993H1588.32V689.993H1784.67V687.993Z" fill="url(#paint0_linear_143_2730)" mask="url(#path-4-inside-1_143_2730)"/>
<mask id="path-6-inside-2_143_2730" fill="white">
<path fill-rule="evenodd" clip-rule="evenodd" d="M1799.16 703.495L1799.16 392.761H1955.49V194.502H1799.16L1602.81 194.502L1446.49 194.502V392.761H1602.81L1602.81 703.495H1799.16Z"/>
</mask>
<path d="M1799.16 392.761V391.761H1798.16V392.761H1799.16ZM1799.16 703.495V704.495H1800.16V703.495H1799.16ZM1955.49 392.761V393.761H1956.49V392.761H1955.49ZM1955.49 194.502H1956.49V193.502H1955.49V194.502ZM1799.16 194.502V195.502V194.502ZM1602.81 194.502V193.502V194.502ZM1446.49 194.502L1446.49 193.502L1445.49 193.502V194.502H1446.49ZM1446.49 392.761H1445.49V393.761H1446.49V392.761ZM1602.81 392.761H1603.81V391.761H1602.81V392.761ZM1602.81 703.495H1601.81V704.495H1602.81V703.495ZM1798.16 392.761L1798.16 703.495H1800.16L1800.16 392.761H1798.16ZM1955.49 391.761H1799.16V393.761H1955.49V391.761ZM1954.49 194.502V392.761H1956.49V194.502H1954.49ZM1799.16 195.502H1955.49V193.502H1799.16V195.502ZM1602.81 195.502L1799.16 195.502V193.502L1602.81 193.502V195.502ZM1446.49 195.502L1602.81 195.502V193.502L1446.49 193.502L1446.49 195.502ZM1447.49 392.761V194.502H1445.49V392.761H1447.49ZM1602.81 391.761H1446.49V393.761H1602.81V391.761ZM1603.81 703.495L1603.81 392.761H1601.81L1601.81 703.495H1603.81ZM1799.16 702.495H1602.81V704.495H1799.16V702.495Z" fill="url(#paint1_linear_143_2730)" mask="url(#path-6-inside-2_143_2730)"/>
<mask id="path-8-inside-3_143_2730" fill="white">
<path fill-rule="evenodd" clip-rule="evenodd" d="M1813.68 717.999L1813.68 407.265H1970V209.006H1813.68L1617.33 209.006L1461.01 209.006V407.265H1617.33L1617.33 717.999H1813.68Z"/>
</mask>
<path d="M1813.68 407.265V406.265H1812.68V407.265H1813.68ZM1813.68 717.999V718.999H1814.68V717.999H1813.68ZM1970 407.265V408.265H1971V407.265H1970ZM1970 209.006H1971V208.006H1970V209.006ZM1813.68 209.006V210.006V209.006ZM1617.33 209.006V208.006V209.006ZM1461.01 209.006L1461.01 208.006L1460.01 208.006V209.006H1461.01ZM1461.01 407.265H1460.01V408.265H1461.01V407.265ZM1617.33 407.265H1618.33V406.265H1617.33V407.265ZM1617.33 717.999H1616.33V718.999H1617.33V717.999ZM1812.68 407.265L1812.68 717.999H1814.68L1814.68 407.265H1812.68ZM1970 406.265H1813.68V408.265H1970V406.265ZM1969 209.006V407.265H1971V209.006H1969ZM1813.68 210.006H1970V208.006H1813.68V210.006ZM1617.33 210.006L1813.68 210.006V208.006L1617.33 208.006V210.006ZM1461.01 210.006L1617.33 210.006V208.006L1461.01 208.006L1461.01 210.006ZM1462.01 407.265V209.006H1460.01V407.265H1462.01ZM1617.33 406.265H1461.01V408.265H1617.33V406.265ZM1618.33 717.999L1618.33 407.265H1616.33L1616.33 717.999H1618.33ZM1813.68 716.999H1617.33V718.999H1813.68V716.999Z" fill="url(#paint2_linear_143_2730)" mask="url(#path-8-inside-3_143_2730)"/>
<mask id="path-10-inside-4_143_2730" fill="white">
<path fill-rule="evenodd" clip-rule="evenodd" d="M1828.17 732.491L1828.17 421.757H1984.5V223.498H1828.17L1631.82 223.498L1475.5 223.498V421.757H1631.82L1631.82 732.491H1828.17Z"/>
</mask>
<path d="M1828.17 421.757V420.757H1827.17V421.757H1828.17ZM1828.17 732.491V733.491H1829.17V732.491H1828.17ZM1984.5 421.757V422.757H1985.5V421.757H1984.5ZM1984.5 223.498H1985.5V222.498H1984.5V223.498ZM1828.17 223.498V224.498V223.498ZM1631.82 223.498V222.498V223.498ZM1475.5 223.498L1475.5 222.498L1474.5 222.498V223.498H1475.5ZM1475.5 421.757H1474.5V422.757H1475.5V421.757ZM1631.82 421.757H1632.82V420.757H1631.82V421.757ZM1631.82 732.491H1630.82V733.491H1631.82V732.491ZM1827.17 421.757L1827.17 732.491H1829.17L1829.17 421.757H1827.17ZM1984.5 420.757H1828.17V422.757H1984.5V420.757ZM1983.5 223.498V421.757H1985.5V223.498H1983.5ZM1828.17 224.498H1984.5V222.498H1828.17V224.498ZM1631.82 224.498L1828.17 224.498V222.498L1631.82 222.498V224.498ZM1475.5 224.498L1631.82 224.498V222.498L1475.5 222.498L1475.5 224.498ZM1476.5 421.757V223.498H1474.5V421.757H1476.5ZM1631.82 420.757H1475.5V422.757H1631.82V420.757ZM1632.82 732.491L1632.82 421.757H1630.82L1630.82 732.491H1632.82ZM1828.17 731.491H1631.82V733.491H1828.17V731.491Z" fill="url(#paint3_linear_143_2730)" mask="url(#path-10-inside-4_143_2730)"/>
<mask id="path-12-inside-5_143_2730" fill="white">
<path fill-rule="evenodd" clip-rule="evenodd" d="M1842.68 746.993L1842.68 436.259H1999.01V238H1842.68L1646.33 238L1490.01 238V436.259H1646.33L1646.33 746.993H1842.68Z"/>
</mask>
<path d="M1842.68 436.259V435.259H1841.68V436.259H1842.68ZM1842.68 746.993V747.993H1843.68V746.993H1842.68ZM1999.01 436.259V437.259H2000.01V436.259H1999.01ZM1999.01 238H2000.01V237H1999.01V238ZM1842.68 238V239V238ZM1646.33 238V237V238ZM1490.01 238L1490.01 237L1489.01 237V238H1490.01ZM1490.01 436.259H1489.01V437.259H1490.01V436.259ZM1646.33 436.259H1647.33V435.259H1646.33V436.259ZM1646.33 746.993H1645.33V747.993H1646.33V746.993ZM1841.68 436.259L1841.68 746.993H1843.68L1843.68 436.259H1841.68ZM1999.01 435.259H1842.68V437.259H1999.01V435.259ZM1998.01 238V436.259H2000.01V238H1998.01ZM1842.68 239H1999.01V237H1842.68V239ZM1646.33 239L1842.68 239V237L1646.33 237V239ZM1490.01 239L1646.33 239V237L1490.01 237L1490.01 239ZM1491.01 436.259V238H1489.01V436.259H1491.01ZM1646.33 435.259H1490.01V437.259H1646.33V435.259ZM1647.33 746.993L1647.33 436.259H1645.33L1645.33 746.993H1647.33ZM1842.68 745.993H1646.33V747.993H1842.68V745.993Z" fill="url(#paint4_linear_143_2730)" mask="url(#path-12-inside-5_143_2730)"/>
<mask id="path-14-inside-6_143_2730" fill="white">
<path fill-rule="evenodd" clip-rule="evenodd" d="M1857.17 761.495L1857.17 450.761H2013.49V252.502H1857.17L1660.81 252.502L1504.5 252.502V450.761H1660.81L1660.81 761.495H1857.17Z"/>
</mask>
<path d="M1857.17 450.761V449.761H1856.17V450.761H1857.17ZM1857.17 761.495V762.495H1858.17V761.495H1857.17ZM2013.49 450.761V451.761H2014.49V450.761H2013.49ZM2013.49 252.502H2014.49V251.502H2013.49V252.502ZM1857.17 252.502V253.502V252.502ZM1660.81 252.502V251.502V252.502ZM1504.5 252.502L1504.5 251.502L1503.5 251.502V252.502H1504.5ZM1504.5 450.761H1503.5V451.761H1504.5V450.761ZM1660.81 450.761H1661.81V449.761H1660.81V450.761ZM1660.81 761.495H1659.81V762.495H1660.81V761.495ZM1856.17 450.761L1856.17 761.495H1858.17L1858.17 450.761H1856.17ZM2013.49 449.761H1857.17V451.761H2013.49V449.761ZM2012.49 252.502V450.761H2014.49V252.502H2012.49ZM1857.17 253.502H2013.49V251.502H1857.17V253.502ZM1660.81 253.502L1857.17 253.502V251.502L1660.81 251.502V253.502ZM1504.5 253.502L1660.81 253.502V251.502L1504.5 251.502L1504.5 253.502ZM1505.5 450.761V252.502H1503.5V450.761H1505.5ZM1660.81 449.761H1504.5V451.761H1660.81V449.761ZM1661.81 761.495L1661.81 450.761H1659.81L1659.81 761.495H1661.81ZM1857.17 760.495H1660.81V762.495H1857.17V760.495Z" fill="url(#paint5_linear_143_2730)" mask="url(#path-14-inside-6_143_2730)"/>
<mask id="path-16-inside-7_143_2730" fill="white">
<path fill-rule="evenodd" clip-rule="evenodd" d="M1871.68 776L1871.68 465.267H2028.01V267.008H1871.68L1675.33 267.008L1519.02 267.008V465.267H1675.33L1675.33 776H1871.68Z"/>
</mask>
<path d="M1871.68 465.267V464.267H1870.68V465.267H1871.68ZM1871.68 776V777H1872.68V776H1871.68ZM2028.01 465.267V466.267H2029.01V465.267H2028.01ZM2028.01 267.008H2029.01V266.008H2028.01V267.008ZM1871.68 267.008V268.008V267.008ZM1675.33 267.008V266.008V267.008ZM1519.02 267.008L1519.02 266.008L1518.02 266.008V267.008H1519.02ZM1519.02 465.267H1518.02V466.267H1519.02V465.267ZM1675.33 465.267H1676.33V464.267H1675.33V465.267ZM1675.33 776H1674.33V777H1675.33V776ZM1870.68 465.267L1870.68 776H1872.68L1872.68 465.267H1870.68ZM2028.01 464.267H1871.68V466.267H2028.01V464.267ZM2027.01 267.008V465.267H2029.01V267.008H2027.01ZM1871.68 268.008H2028.01V266.008H1871.68V268.008ZM1675.33 268.008L1871.68 268.008V266.008L1675.33 266.008V268.008ZM1519.02 268.008L1675.33 268.008V266.008L1519.02 266.008L1519.02 268.008ZM1520.02 465.267V267.008H1518.02V465.267H1520.02ZM1675.33 464.267H1519.02V466.267H1675.33V464.267ZM1676.33 776L1676.33 465.267H1674.33L1674.33 776H1676.33ZM1871.68 775H1675.33V777H1871.68V775Z" fill="url(#paint6_linear_143_2730)" mask="url(#path-16-inside-7_143_2730)"/>
<mask id="path-18-inside-8_143_2730" fill="white">
<path fill-rule="evenodd" clip-rule="evenodd" d="M824 -75.6652L513.267 -75.6652L513.267 -231.989L315.008 -231.989L315.008 -75.6652L315.008 120.688L315.008 277.004L513.267 277.004L513.267 120.688L824 120.688L824 -75.6652Z"/>
</mask>
<path d="M513.267 -75.6652L512.267 -75.6652L512.267 -74.6652L513.267 -74.6652L513.267 -75.6652ZM824 -75.6652L825 -75.6652L825 -76.6652L824 -76.6652L824 -75.6652ZM513.267 -231.989L514.267 -231.989L514.267 -232.989L513.267 -232.989L513.267 -231.989ZM315.008 -231.989L315.008 -232.989L314.008 -232.989L314.008 -231.989L315.008 -231.989ZM315.008 -75.6652L314.008 -75.6652L315.008 -75.6652ZM315.008 120.688L314.008 120.688L315.008 120.688ZM315.008 277.004L314.008 277.004L314.008 278.004L315.008 278.004L315.008 277.004ZM513.267 277.004L513.267 278.004L514.267 278.004L514.267 277.004L513.267 277.004ZM513.267 120.688L513.267 119.688L512.267 119.688L512.267 120.688L513.267 120.688ZM824 120.688L824 121.688L825 121.688L825 120.688L824 120.688ZM513.267 -74.6652L824 -74.6652L824 -76.6652L513.267 -76.6652L513.267 -74.6652ZM512.267 -231.989L512.267 -75.6652L514.267 -75.6652L514.267 -231.989L512.267 -231.989ZM315.008 -230.989L513.267 -230.989L513.267 -232.989L315.008 -232.989L315.008 -230.989ZM316.008 -75.6652L316.008 -231.989L314.008 -231.989L314.008 -75.6652L316.008 -75.6652ZM316.008 120.688L316.008 -75.6652L314.008 -75.6652L314.008 120.688L316.008 120.688ZM316.008 277.004L316.008 120.688L314.008 120.688L314.008 277.004L316.008 277.004ZM513.267 276.004L315.008 276.004L315.008 278.004L513.267 278.004L513.267 276.004ZM512.267 120.688L512.267 277.004L514.267 277.004L514.267 120.688L512.267 120.688ZM824 119.688L513.267 119.688L513.267 121.688L824 121.688L824 119.688ZM823 -75.6652L823 120.688L825 120.688L825 -75.6652L823 -75.6652Z" fill="url(#paint7_linear_143_2730)" mask="url(#path-18-inside-8_143_2730)"/>
<mask id="path-20-inside-9_143_2730" fill="white">
<path fill-rule="evenodd" clip-rule="evenodd" d="M838.501 -90.1574L527.768 -90.1574L527.768 -246.481L329.509 -246.481L329.509 -90.1574L329.509 106.196L329.509 262.512L527.768 262.512L527.768 106.196L838.501 106.196L838.501 -90.1574Z"/>
</mask>
<path d="M527.768 -90.1574L526.768 -90.1574L526.768 -89.1574L527.768 -89.1574L527.768 -90.1574ZM838.501 -90.1574L839.501 -90.1574L839.501 -91.1574L838.501 -91.1574L838.501 -90.1574ZM527.768 -246.481L528.768 -246.481L528.768 -247.481L527.768 -247.481L527.768 -246.481ZM329.509 -246.481L329.509 -247.481L328.509 -247.481L328.509 -246.481L329.509 -246.481ZM329.509 -90.1574L330.509 -90.1574L329.509 -90.1574ZM329.509 106.196L328.509 106.196L329.509 106.196ZM329.509 262.512L328.509 262.512L328.509 263.512L329.509 263.512L329.509 262.512ZM527.768 262.512L527.768 263.512L528.768 263.512L528.768 262.512L527.768 262.512ZM527.768 106.196L527.768 105.196L526.768 105.196L526.768 106.196L527.768 106.196ZM838.501 106.196L838.501 107.196L839.501 107.196L839.501 106.196L838.501 106.196ZM527.768 -89.1574L838.501 -89.1574L838.501 -91.1574L527.768 -91.1574L527.768 -89.1574ZM526.768 -246.481L526.768 -90.1574L528.768 -90.1574L528.768 -246.481L526.768 -246.481ZM329.509 -245.481L527.768 -245.481L527.768 -247.481L329.509 -247.481L329.509 -245.481ZM330.509 -90.1574L330.509 -246.481L328.509 -246.481L328.509 -90.1574L330.509 -90.1574ZM330.509 106.196L330.509 -90.1574L328.509 -90.1574L328.509 106.196L330.509 106.196ZM330.509 262.512L330.509 106.196L328.509 106.196L328.509 262.512L330.509 262.512ZM527.768 261.512L329.509 261.512L329.509 263.512L527.768 263.512L527.768 261.512ZM526.768 106.196L526.768 262.512L528.768 262.512L528.768 106.196L526.768 106.196ZM838.501 105.196L527.768 105.196L527.768 107.196L838.501 107.196L838.501 105.196ZM837.501 -90.1574L837.501 106.196L839.501 106.196L839.501 -90.1574L837.501 -90.1574Z" fill="url(#paint8_linear_143_2730)" mask="url(#path-20-inside-9_143_2730)"/>
<mask id="path-22-inside-10_143_2730" fill="white">
<path fill-rule="evenodd" clip-rule="evenodd" d="M853.007 -104.677L542.274 -104.677L542.274 -261L344.015 -261L344.015 -104.677L344.015 91.676L344.015 247.992L542.274 247.992L542.274 91.676L853.007 91.676L853.007 -104.677Z"/>
</mask>
<path d="M542.274 -104.677L541.274 -104.677L541.274 -103.677L542.274 -103.677L542.274 -104.677ZM853.007 -104.677L854.007 -104.677L854.007 -105.677L853.007 -105.677L853.007 -104.677ZM542.274 -261L543.274 -261L543.274 -262L542.274 -262L542.274 -261ZM344.015 -261L344.015 -262L343.015 -262L343.015 -261L344.015 -261ZM344.015 -104.677L345.015 -104.677L344.015 -104.677ZM344.015 91.676L343.015 91.676L344.015 91.676ZM344.015 247.992L343.015 247.992L343.015 248.992L344.015 248.992L344.015 247.992ZM542.274 247.992L542.274 248.992L543.274 248.992L543.274 247.992L542.274 247.992ZM542.274 91.676L542.274 90.676L541.274 90.676L541.274 91.676L542.274 91.676ZM853.007 91.676L853.007 92.676L854.007 92.676L854.007 91.676L853.007 91.676ZM542.274 -103.677L853.007 -103.677L853.007 -105.677L542.274 -105.677L542.274 -103.677ZM541.274 -261L541.274 -104.677L543.274 -104.677L543.274 -261L541.274 -261ZM344.015 -260L542.274 -260L542.274 -262L344.015 -262L344.015 -260ZM345.015 -104.677L345.015 -261L343.015 -261L343.015 -104.677L345.015 -104.677ZM345.015 91.676L345.015 -104.677L343.015 -104.677L343.015 91.676L345.015 91.676ZM345.015 247.992L345.015 91.676L343.015 91.676L343.015 247.992L345.015 247.992ZM542.274 246.992L344.015 246.992L344.015 248.992L542.274 248.992L542.274 246.992ZM541.274 91.676L541.274 247.992L543.274 247.992L543.274 91.676L541.274 91.676ZM853.007 90.676L542.274 90.676L542.274 92.676L853.007 92.676L853.007 90.676ZM852.007 -104.677L852.007 91.676L854.007 91.676L854.007 -104.677L852.007 -104.677Z" fill="url(#paint9_linear_143_2730)" mask="url(#path-22-inside-10_143_2730)"/>
<mask id="path-24-inside-11_143_2730" fill="white">
<path fill-rule="evenodd" clip-rule="evenodd" d="M867.499 -119.169L556.766 -119.169L556.766 -275.493L358.507 -275.493L358.507 -119.169L358.507 77.1839L358.507 233.5L556.766 233.5L556.766 77.1838L867.5 77.1838L867.499 -119.169Z"/>
</mask>
<path d="M556.766 -119.169L555.766 -119.169L555.766 -118.169L556.766 -118.169L556.766 -119.169ZM867.499 -119.169L868.499 -119.169L868.499 -120.169L867.499 -120.169L867.499 -119.169ZM556.766 -275.493L557.766 -275.493L557.766 -276.493L556.766 -276.493L556.766 -275.493ZM358.507 -275.493L358.507 -276.493L357.507 -276.493L357.507 -275.493L358.507 -275.493ZM358.507 -119.169L359.507 -119.169L358.507 -119.169ZM358.507 77.1839L357.507 77.1839L358.507 77.1839ZM358.507 233.5L357.507 233.5L357.507 234.5L358.507 234.5L358.507 233.5ZM556.766 233.5L556.766 234.5L557.766 234.5L557.766 233.5L556.766 233.5ZM556.766 77.1838L556.766 76.1838L555.766 76.1838L555.766 77.1838L556.766 77.1838ZM867.5 77.1838L867.5 78.1838L868.5 78.1838L868.5 77.1838L867.5 77.1838ZM556.766 -118.169L867.499 -118.169L867.499 -120.169L556.766 -120.169L556.766 -118.169ZM555.766 -275.493L555.766 -119.169L557.766 -119.169L557.766 -275.493L555.766 -275.493ZM358.507 -274.493L556.766 -274.493L556.766 -276.493L358.507 -276.493L358.507 -274.493ZM359.507 -119.169L359.507 -275.493L357.507 -275.493L357.507 -119.169L359.507 -119.169ZM359.507 77.1839L359.507 -119.169L357.507 -119.169L357.507 77.1839L359.507 77.1839ZM359.507 233.5L359.507 77.1839L357.507 77.1839L357.507 233.5L359.507 233.5ZM556.766 232.5L358.507 232.5L358.507 234.5L556.766 234.5L556.766 232.5ZM555.766 77.1838L555.766 233.5L557.766 233.5L557.766 77.1838L555.766 77.1838ZM867.5 76.1838L556.766 76.1838L556.766 78.1838L867.5 78.1838L867.5 76.1838ZM866.499 -119.169L866.5 77.1838L868.5 77.1838L868.499 -119.169L866.499 -119.169Z" fill="url(#paint10_linear_143_2730)" mask="url(#path-24-inside-11_143_2730)"/>
<mask id="path-26-inside-12_143_2730" fill="white">
<path fill-rule="evenodd" clip-rule="evenodd" d="M882 -133.679L571.267 -133.679L571.267 -290.002L373.008 -290.002L373.008 -133.679L373.008 62.6741L373.008 218.99L571.267 218.99L571.267 62.6741L882 62.6741L882 -133.679Z"/>
</mask>
<path d="M571.267 -133.679L570.267 -133.679L570.267 -132.679L571.267 -132.679L571.267 -133.679ZM882 -133.679L883 -133.679L883 -134.679L882 -134.679L882 -133.679ZM571.267 -290.002L572.267 -290.002L572.267 -291.002L571.267 -291.002L571.267 -290.002ZM373.008 -290.002L373.008 -291.002L372.008 -291.002L372.008 -290.002L373.008 -290.002ZM373.008 -133.679L374.008 -133.679L373.008 -133.679ZM373.008 62.6741L372.008 62.6741L373.008 62.6741ZM373.008 218.99L372.008 218.99L372.008 219.99L373.008 219.99L373.008 218.99ZM571.267 218.99L571.267 219.99L572.267 219.99L572.267 218.99L571.267 218.99ZM571.267 62.6741L571.267 61.6741L570.267 61.6741L570.267 62.6741L571.267 62.6741ZM882 62.6741L882 63.6741L883 63.6741L883 62.6741L882 62.6741ZM571.267 -132.679L882 -132.679L882 -134.679L571.267 -134.679L571.267 -132.679ZM570.267 -290.002L570.267 -133.679L572.267 -133.679L572.267 -290.002L570.267 -290.002ZM373.008 -289.002L571.267 -289.002L571.267 -291.002L373.008 -291.002L373.008 -289.002ZM374.008 -133.679L374.008 -290.002L372.008 -290.002L372.008 -133.679L374.008 -133.679ZM374.008 62.6741L374.008 -133.679L372.008 -133.679L372.008 62.6741L374.008 62.6741ZM374.008 218.99L374.008 62.6741L372.008 62.6741L372.008 218.99L374.008 218.99ZM571.267 217.99L373.008 217.99L373.008 219.99L571.267 219.99L571.267 217.99ZM570.267 62.6741L570.267 218.99L572.267 218.99L572.267 62.6741L570.267 62.6741ZM882 61.6741L571.267 61.6741L571.267 63.6741L882 63.6741L882 61.6741ZM881 -133.679L881 62.6741L883 62.6741L883 -133.679L881 -133.679Z" fill="url(#paint11_linear_143_2730)" mask="url(#path-26-inside-12_143_2730)"/>
<mask id="path-28-inside-13_143_2730" fill="white">
<path fill-rule="evenodd" clip-rule="evenodd" d="M896.501 -148.161L585.768 -148.161L585.768 -304.485L387.509 -304.485L387.509 -148.161L387.509 48.1917L387.509 204.508L585.768 204.508L585.768 48.1917L896.501 48.1917L896.501 -148.161Z"/>
</mask>
<path d="M585.768 -148.161L584.768 -148.161L584.768 -147.161L585.768 -147.161L585.768 -148.161ZM896.501 -148.161L897.501 -148.161L897.501 -149.161L896.501 -149.161L896.501 -148.161ZM585.768 -304.485L586.768 -304.485L586.768 -305.485L585.768 -305.485L585.768 -304.485ZM387.509 -304.485L387.509 -305.485L386.509 -305.485L386.509 -304.485L387.509 -304.485ZM387.509 -148.161L388.509 -148.161L387.509 -148.161ZM387.509 48.1917L386.509 48.1917L387.509 48.1917ZM387.509 204.508L386.509 204.508L386.509 205.508L387.509 205.508L387.509 204.508ZM585.768 204.508L585.768 205.508L586.768 205.508L586.768 204.508L585.768 204.508ZM585.768 48.1917L585.768 47.1917L584.768 47.1917L584.768 48.1917L585.768 48.1917ZM896.501 48.1917L896.501 49.1917L897.501 49.1917L897.501 48.1917L896.501 48.1917ZM585.768 -147.161L896.501 -147.161L896.501 -149.161L585.768 -149.161L585.768 -147.161ZM584.768 -304.485L584.768 -148.161L586.768 -148.161L586.768 -304.485L584.768 -304.485ZM387.509 -303.485L585.768 -303.485L585.768 -305.485L387.509 -305.485L387.509 -303.485ZM388.509 -148.161L388.509 -304.485L386.509 -304.485L386.509 -148.161L388.509 -148.161ZM388.509 48.1917L388.509 -148.161L386.509 -148.161L386.509 48.1917L388.509 48.1917ZM388.509 204.508L388.509 48.1917L386.509 48.1917L386.509 204.508L388.509 204.508ZM585.768 203.508L387.509 203.508L387.509 205.508L585.768 205.508L585.768 203.508ZM584.768 48.1917L584.768 204.508L586.768 204.508L586.768 48.1917L584.768 48.1917ZM896.501 47.1917L585.768 47.1917L585.768 49.1917L896.501 49.1917L896.501 47.1917ZM895.501 -148.161L895.501 48.1917L897.501 48.1917L897.501 -148.161L895.501 -148.161Z" fill="url(#paint12_linear_143_2730)" mask="url(#path-28-inside-13_143_2730)"/>
<mask id="path-30-inside-14_143_2730" fill="white">
<path fill-rule="evenodd" clip-rule="evenodd" d="M911.007 -162.681L600.274 -162.681L600.274 -319.004L402.015 -319.004L402.015 -162.681L402.015 33.6721L402.015 189.988L600.274 189.988L600.274 33.6721L911.007 33.6721L911.007 -162.681Z"/>
</mask>
<path d="M600.274 -162.681L599.274 -162.681L599.274 -161.681L600.274 -161.681L600.274 -162.681ZM911.007 -162.681L912.007 -162.681L912.007 -163.681L911.007 -163.681L911.007 -162.681ZM600.274 -319.004L601.274 -319.004L601.274 -320.004L600.274 -320.004L600.274 -319.004ZM402.015 -319.004L402.015 -320.004L401.015 -320.004L401.015 -319.004L402.015 -319.004ZM402.015 -162.681L403.015 -162.681L402.015 -162.681ZM402.015 33.6721L401.015 33.6721L402.015 33.6721ZM402.015 189.988L401.015 189.988L401.015 190.988L402.015 190.988L402.015 189.988ZM600.274 189.988L600.274 190.988L601.274 190.988L601.274 189.988L600.274 189.988ZM600.274 33.6721L600.274 32.6721L599.274 32.6721L599.274 33.6721L600.274 33.6721ZM911.007 33.6721L911.007 34.6721L912.007 34.6721L912.007 33.6721L911.007 33.6721ZM600.274 -161.681L911.007 -161.681L911.007 -163.681L600.274 -163.681L600.274 -161.681ZM599.274 -319.004L599.274 -162.681L601.274 -162.681L601.274 -319.004L599.274 -319.004ZM402.015 -318.004L600.274 -318.004L600.274 -320.004L402.015 -320.004L402.015 -318.004ZM403.015 -162.681L403.015 -319.004L401.015 -319.004L401.015 -162.681L403.015 -162.681ZM403.015 33.6721L403.015 -162.681L401.015 -162.681L401.015 33.6721L403.015 33.6721ZM403.015 189.988L403.015 33.6721L401.015 33.6721L401.015 189.988L403.015 189.988ZM600.274 188.988L402.015 188.988L402.015 190.988L600.274 190.988L600.274 188.988ZM599.274 33.6721L599.274 189.988L601.274 189.988L601.274 33.6721L599.274 33.6721ZM911.007 32.6721L600.274 32.6721L600.274 34.6721L911.007 34.6721L911.007 32.6721ZM910.007 -162.681L910.007 33.6721L912.007 33.6721L912.007 -162.681L910.007 -162.681Z" fill="url(#paint13_linear_143_2730)" mask="url(#path-30-inside-14_143_2730)"/>
</g>
<defs>
<filter id="filter0_f_143_2730" x="105" y="-322" width="1000" height="795" filterUnits="userSpaceOnUse" color-interpolation-filters="sRGB">
<feFlood flood-opacity="0" result="BackgroundImageFix"/>
<feBlend mode="normal" in="SourceGraphic" in2="BackgroundImageFix" result="shape"/>
<feGaussianBlur stdDeviation="100" result="effect1_foregroundBlur_143_2730"/>
</filter>
<filter id="filter1_f_143_2730" x="1067.18" y="105.973" width="1555.81" height="1221.94" filterUnits="userSpaceOnUse" color-interpolation-filters="sRGB">
<feFlood flood-opacity="0" result="BackgroundImageFix"/>
<feBlend mode="normal" in="SourceGraphic" in2="BackgroundImageFix" result="shape"/>
<feGaussianBlur stdDeviation="200" result="effect1_foregroundBlur_143_2730"/>
</filter>
<filter id="filter2_f_143_2730" x="1476.6" y="-171.77" width="1584.15" height="1029.86" filterUnits="userSpaceOnUse" color-interpolation-filters="sRGB">
<feFlood flood-opacity="0" result="BackgroundImageFix"/>
<feBlend mode="normal" in="SourceGraphic" in2="BackgroundImageFix" result="shape"/>
<feGaussianBlur stdDeviation="100" result="effect1_foregroundBlur_143_2730"/>
</filter>
<linearGradient id="paint0_linear_143_2730" x1="1686.5" y1="180" x2="1686.5" y2="688.993" gradientUnits="userSpaceOnUse">
<stop stop-color="#359EFF"/>
<stop offset="1" stop-color="#AE6AFE"/>
</linearGradient>
<linearGradient id="paint1_linear_143_2730" x1="1700.99" y1="194.502" x2="1700.99" y2="703.495" gradientUnits="userSpaceOnUse">
<stop stop-color="#359EFF"/>
<stop offset="1" stop-color="#AE6AFE"/>
</linearGradient>
<linearGradient id="paint2_linear_143_2730" x1="1715.51" y1="209.006" x2="1715.51" y2="717.999" gradientUnits="userSpaceOnUse">
<stop stop-color="#359EFF"/>
<stop offset="1" stop-color="#AE6AFE"/>
</linearGradient>
<linearGradient id="paint3_linear_143_2730" x1="1730" y1="223.498" x2="1730" y2="732.491" gradientUnits="userSpaceOnUse">
<stop stop-color="#359EFF"/>
<stop offset="1" stop-color="#AE6AFE"/>
</linearGradient>
<linearGradient id="paint4_linear_143_2730" x1="1744.51" y1="238" x2="1744.51" y2="746.993" gradientUnits="userSpaceOnUse">
<stop stop-color="#359EFF"/>
<stop offset="1" stop-color="#AE6AFE"/>
</linearGradient>
<linearGradient id="paint5_linear_143_2730" x1="1758.99" y1="252.502" x2="1758.99" y2="761.495" gradientUnits="userSpaceOnUse">
<stop stop-color="#359EFF"/>
<stop offset="1" stop-color="#AE6AFE"/>
</linearGradient>
<linearGradient id="paint6_linear_143_2730" x1="1773.51" y1="267.008" x2="1773.51" y2="776" gradientUnits="userSpaceOnUse">
<stop stop-color="#359EFF"/>
<stop offset="1" stop-color="#AE6AFE"/>
</linearGradient>
<linearGradient id="paint7_linear_143_2730" x1="315.008" y1="22.5076" x2="824" y2="22.5075" gradientUnits="userSpaceOnUse">
<stop offset="0.223947" stop-color="#111823"/>
<stop offset="0.619797" stop-color="#359EFF"/>
</linearGradient>
<linearGradient id="paint8_linear_143_2730" x1="329.509" y1="8.01538" x2="838.501" y2="8.01536" gradientUnits="userSpaceOnUse">
<stop offset="0.223947" stop-color="#111823"/>
<stop offset="0.619797" stop-color="#359EFF"/>
</linearGradient>
<linearGradient id="paint9_linear_143_2730" x1="344.015" y1="-6.50415" x2="853.007" y2="-6.50417" gradientUnits="userSpaceOnUse">
<stop offset="0.223947" stop-color="#111823"/>
<stop offset="0.619797" stop-color="#359EFF"/>
</linearGradient>
<linearGradient id="paint10_linear_143_2730" x1="358.507" y1="-20.9963" x2="867.5" y2="-20.9964" gradientUnits="userSpaceOnUse">
<stop offset="0.223947" stop-color="#111823"/>
<stop offset="0.619797" stop-color="#359EFF"/>
</linearGradient>
<linearGradient id="paint11_linear_143_2730" x1="373.008" y1="-35.5061" x2="882" y2="-35.5061" gradientUnits="userSpaceOnUse">
<stop offset="0.223947" stop-color="#111823"/>
<stop offset="0.619797" stop-color="#359EFF"/>
</linearGradient>
<linearGradient id="paint12_linear_143_2730" x1="387.509" y1="-49.9885" x2="896.501" y2="-49.9885" gradientUnits="userSpaceOnUse">
<stop offset="0.223947" stop-color="#111823"/>
<stop offset="0.619797" stop-color="#359EFF"/>
</linearGradient>
<linearGradient id="paint13_linear_143_2730" x1="402.015" y1="-64.5081" x2="911.007" y2="-64.5081" gradientUnits="userSpaceOnUse">
<stop offset="0.223947" stop-color="#111823"/>
<stop offset="0.619797" stop-color="#359EFF"/>
</linearGradient>
<clipPath id="clip0_143_2730">
<rect width="2560" height="510" fill="white"/>
</clipPath>
</defs>
</svg>
