<svg width="18" height="18" viewBox="0 0 18 18" fill="none" xmlns="http://www.w3.org/2000/svg">
<path fill-rule="evenodd" clip-rule="evenodd" d="M8.90709 3.05034C11.3369 3.05034 13.4107 4.57487 14.2241 6.71959L13.3021 7.14334C13.1539 7.21146 13.1452 7.41882 13.2872 7.49914L16.0851 9.082C16.2039 9.14917 16.3535 9.08039 16.3799 8.94655L17.0006 5.79239C17.0321 5.63234 16.869 5.50392 16.7208 5.57205L15.6357 6.07077C14.5748 3.39343 11.962 1.5 8.90709 1.5C5.26301 1.5 2.24818 4.19412 1.74575 7.69922H3.31664C3.80353 5.05424 6.12129 3.05034 8.90709 3.05034ZM2.36027 11.7985L1.2798 12.2951C1.13158 12.3633 0.968541 12.2349 1.00004 12.0748L1.62074 8.92064C1.64708 8.7868 1.79673 8.71802 1.91546 8.78518L4.71341 10.3681C4.85538 10.4484 4.84667 10.6557 4.69845 10.7239L3.77192 11.1497C4.58481 13.2954 6.65907 14.8208 9.08959 14.8208C11.8754 14.8208 14.1932 12.8169 14.68 10.1719H16.2509C15.7485 13.677 12.7337 16.3711 9.08959 16.3711C6.03397 16.3711 3.42078 14.4768 2.36027 11.7985Z" fill="#4C4C51"/>
</svg>
