<svg width="66" height="70" viewBox="0 0 66 70" fill="none" xmlns="http://www.w3.org/2000/svg">
<circle cx="25.4792" cy="30.3132" r="2.60417" fill="white"/>
<path d="M43.7357 24.1712C43.9581 25.1541 44.7966 25.9074 45.8043 25.9074H46.4545C47.6601 25.9074 48.8162 26.3863 49.6687 27.2388C50.5211 28.0913 51 29.2475 51 30.4531V39.5445C51 40.75 50.5211 41.9062 49.6687 42.7587C48.8162 43.6112 47.6601 44.0901 46.4545 44.0901H45.8046C44.7967 44.0901 43.9581 44.8436 43.7358 45.8266C42.8957 49.5417 40.9056 52.9155 38.0267 55.4543C35.2074 57.9406 31.7003 59.481 27.9961 59.8901C26.8982 60.0114 26 59.1045 26 58V57.4543C26 56.3498 26.9002 55.4694 27.9929 55.308C30.8723 54.8826 33.5595 53.5431 35.6424 51.4601C38.1997 48.9027 39.6364 45.4341 39.6364 41.8173V28.1803C39.6364 24.5635 38.1997 21.0949 35.6424 18.5374C33.0851 15.98 29.6166 14.5432 26 14.5432C22.3834 14.5432 18.9149 15.98 16.3576 18.5374C13.8003 21.0949 12.3636 24.5635 12.3636 28.1803V42.0901C12.3636 43.1947 11.4682 44.0901 10.3636 44.0901H5.54545C4.33993 44.0901 3.18377 43.6112 2.33133 42.7587C1.47889 41.9062 1 40.75 1 39.5445V30.4531C1 29.2475 1.47889 28.0913 2.33133 27.2388C3.18377 26.3863 4.33993 25.9074 5.54545 25.9074H6.19568C7.2034 25.9074 8.04194 25.1541 8.26433 24.1712C9.10485 20.4565 11.0952 17.0832 13.974 14.5448C17.2956 11.616 21.5717 10 26 10C30.4283 10 34.7044 11.616 38.026 14.5448C40.9048 17.0832 42.8952 20.4565 43.7357 24.1712ZM6.68182 30.4531C6.05422 30.4531 5.54545 30.9619 5.54545 31.5895V38.4081C5.54545 39.0357 6.05422 39.5445 6.68182 39.5445C7.30941 39.5445 7.81818 39.0357 7.81818 38.4081V31.5895C7.81818 30.9619 7.30941 30.4531 6.68182 30.4531ZM45.3182 30.4531C44.6906 30.4531 44.1818 30.9619 44.1818 31.5895V38.4081C44.1818 39.0357 44.6906 39.5445 45.3182 39.5445C45.9458 39.5445 46.4545 39.0357 46.4545 38.4081V31.5895C46.4545 30.9619 45.9458 30.4531 45.3182 30.4531Z" fill="url(#paint0_linear_143_3762)"/>
<path d="M34.1136 35.689L32.8265 34.5822C32.8875 34.2066 32.9189 33.8232 32.9189 33.4398C32.9189 33.0563 32.8875 32.6729 32.8265 32.2973L34.1136 31.1905C34.2107 31.1069 34.2801 30.9956 34.3128 30.8713C34.3454 30.747 34.3397 30.6157 34.2963 30.4947L34.2786 30.4434C33.9243 29.4472 33.3937 28.5238 32.7126 27.7177L32.6772 27.6762C32.5946 27.5785 32.4844 27.5082 32.3613 27.4747C32.2382 27.4412 32.1079 27.446 31.9875 27.4885L30.39 28.0597C29.8005 27.5735 29.1423 27.19 28.431 26.9212L28.1225 25.2412C28.0992 25.1148 28.0382 24.9985 27.9477 24.9077C27.8571 24.817 27.7413 24.7561 27.6155 24.7332L27.5625 24.7233C26.5387 24.5375 25.4619 24.5375 24.4382 24.7233L24.3851 24.7332C24.2594 24.7561 24.1435 24.817 24.053 24.9077C23.9624 24.9985 23.9015 25.1148 23.8782 25.2412L23.5677 26.9291C22.8621 27.198 22.205 27.5812 21.6224 28.0636L20.0131 27.4885C19.8928 27.4457 19.7624 27.4407 19.6392 27.4742C19.516 27.5078 19.4059 27.5782 19.3234 27.6762L19.2881 27.7177C18.6077 28.5244 18.0772 29.4477 17.722 30.4434L17.7043 30.4947C17.6159 30.7418 17.6886 31.0185 17.8871 31.1905L19.1898 32.3092C19.1289 32.6808 19.0994 33.0603 19.0994 33.4378C19.0994 33.8173 19.1289 34.1968 19.1898 34.5664L17.8871 35.6851C17.79 35.7687 17.7205 35.88 17.6879 36.0043C17.6552 36.1286 17.661 36.2599 17.7043 36.3808L17.722 36.4322C18.0777 37.4284 18.6043 38.3474 19.2881 39.1578L19.3234 39.1993C19.4061 39.2971 19.5162 39.3673 19.6393 39.4008C19.7625 39.4343 19.8928 39.4296 20.0131 39.3871L21.6224 38.8119C22.208 39.2962 22.8623 39.6796 23.5677 39.9464L23.8782 41.6344C23.9015 41.7608 23.9624 41.8771 24.053 41.9678C24.1435 42.0586 24.2594 42.1194 24.3851 42.1423L24.4382 42.1522C25.4713 42.339 26.5293 42.339 27.5625 42.1522L27.6155 42.1423C27.7413 42.1194 27.8571 42.0586 27.9477 41.9678C28.0382 41.8771 28.0992 41.7608 28.1225 41.6344L28.431 39.9543C29.142 39.6862 29.804 39.3015 30.39 38.8159L31.9875 39.3871C32.1078 39.4299 32.2383 39.4349 32.3614 39.4013C32.4846 39.3678 32.5948 39.2973 32.6772 39.1993L32.7126 39.1578C33.3964 38.3455 33.923 37.4284 34.2786 36.4322L34.2963 36.3808C34.3847 36.1377 34.312 35.861 34.1136 35.689Z" fill="#28BFFF"/>
<circle cx="26.0003" cy="33.4368" r="2.08333" fill="#1E3448"/>
<defs>
<linearGradient id="paint0_linear_143_3762" x1="30.6053" y1="89.0698" x2="30.6053" y2="8.83721" gradientUnits="userSpaceOnUse">
<stop stop-color="#366EFF"/>
<stop offset="1" stop-color="#AD69FF"/>
</linearGradient>
</defs>
</svg>
