<svg width="50" height="50" viewBox="0 0 50 50" fill="none" xmlns="http://www.w3.org/2000/svg">
<circle cx="24.4792" cy="20.3132" r="2.60417" fill="white"/>
<path d="M42.7357 14.1712C42.9581 15.1541 43.7966 15.9074 44.8043 15.9074H45.4545C46.6601 15.9074 47.8162 16.3863 48.6687 17.2388C49.5211 18.0913 50 19.2475 50 20.4531V29.5445C50 30.75 49.5211 31.9062 48.6687 32.7587C47.8162 33.6112 46.6601 34.0901 45.4545 34.0901H44.8046C43.7967 34.0901 42.9581 34.8436 42.7358 35.8266C41.8957 39.5417 39.9056 42.9155 37.0267 45.4543C34.2074 47.9406 30.7003 49.481 26.9961 49.8901C25.8982 50.0114 25 49.1045 25 48V47.4543C25 46.3498 25.9002 45.4694 26.9929 45.308C29.8723 44.8826 32.5595 43.5431 34.6424 41.4601C37.1997 38.9027 38.6364 35.4341 38.6364 31.8173V18.1803C38.6364 14.5635 37.1997 11.0949 34.6424 8.53743C32.0851 5.97999 28.6166 4.54323 25 4.54323C21.3834 4.54323 17.9149 5.97999 15.3576 8.53743C12.8003 11.0949 11.3636 14.5635 11.3636 18.1803V32.0901C11.3636 33.1947 10.4682 34.0901 9.36364 34.0901H4.54545C3.33993 34.0901 2.18377 33.6112 1.33133 32.7587C0.478895 31.9062 0 30.75 0 29.5445V20.4531C0 19.2475 0.478895 18.0913 1.33133 17.2388C2.18377 16.3863 3.33993 15.9074 4.54545 15.9074H5.19568C6.2034 15.9074 7.04194 15.1541 7.26433 14.1712C8.10485 10.4565 10.0952 7.08318 12.974 4.54477C16.2956 1.61599 20.5717 0 25 0C29.4283 0 33.7044 1.61599 37.026 4.54477C39.9048 7.08318 41.8952 10.4565 42.7357 14.1712ZM5.68182 20.4531C5.05422 20.4531 4.54545 20.9619 4.54545 21.5895V28.4081C4.54545 29.0357 5.05422 29.5445 5.68182 29.5445C6.30941 29.5445 6.81818 29.0357 6.81818 28.4081V21.5895C6.81818 20.9619 6.30941 20.4531 5.68182 20.4531ZM44.3182 20.4531C43.6906 20.4531 43.1818 20.9619 43.1818 21.5895V28.4081C43.1818 29.0357 43.6906 29.5445 44.3182 29.5445C44.9458 29.5445 45.4545 29.0357 45.4545 28.4081V21.5895C45.4545 20.9619 44.9458 20.4531 44.3182 20.4531Z" fill="url(#paint0_linear_16_1963)"/>
<path d="M33.1133 25.689L31.8263 24.5822C31.8872 24.2066 31.9187 23.8232 31.9187 23.4398C31.9187 23.0563 31.8872 22.6729 31.8263 22.2973L33.1133 21.1905C33.2104 21.1069 33.2799 20.9956 33.3125 20.8713C33.3452 20.747 33.3394 20.6157 33.2961 20.4947L33.2784 20.4434C32.9241 19.4472 32.3935 18.5238 31.7123 17.7177L31.677 17.6762C31.5943 17.5785 31.4842 17.5082 31.3611 17.4747C31.238 17.4412 31.1076 17.446 30.9873 17.4885L29.3898 18.0597C28.8003 17.5735 28.142 17.19 27.4307 16.9212L27.1222 15.2412C27.0989 15.1148 27.038 14.9985 26.9474 14.9077C26.8569 14.817 26.741 14.7561 26.6153 14.7332L26.5622 14.7233C25.5385 14.5375 24.4617 14.5375 23.438 14.7233L23.3849 14.7332C23.2591 14.7561 23.1433 14.817 23.0527 14.9077C22.9622 14.9985 22.9012 15.1148 22.8779 15.2412L22.5675 16.9291C21.8618 17.198 21.2047 17.5812 20.6222 18.0636L19.0129 17.4885C18.8926 17.4457 18.7622 17.4407 18.639 17.4742C18.5158 17.5078 18.4056 17.5782 18.3232 17.6762L18.2878 17.7177C17.6075 18.5244 17.077 19.4477 16.7218 20.4434L16.7041 20.4947C16.6157 20.7418 16.6884 21.0185 16.8868 21.1905L18.1896 22.3092C18.1287 22.6808 18.0992 23.0603 18.0992 23.4378C18.0992 23.8173 18.1287 24.1968 18.1896 24.5664L16.8868 25.6851C16.7897 25.7687 16.7203 25.88 16.6876 26.0043C16.655 26.1286 16.6607 26.2599 16.7041 26.3808L16.7218 26.4322C17.0774 27.4284 17.604 28.3474 18.2878 29.1578L18.3232 29.1993C18.4058 29.2971 18.516 29.3673 18.6391 29.4008C18.7622 29.4343 18.8925 29.4296 19.0129 29.3871L20.6222 28.8119C21.2077 29.2962 21.8621 29.6796 22.5675 29.9464L22.8779 31.6344C22.9012 31.7608 22.9622 31.8771 23.0527 31.9678C23.1433 32.0586 23.2591 32.1194 23.3849 32.1423L23.438 32.1522C24.4711 32.339 25.5291 32.339 26.5622 32.1522L26.6153 32.1423C26.741 32.1194 26.8569 32.0586 26.9474 31.9678C27.038 31.8771 27.0989 31.7608 27.1222 31.6344L27.4307 29.9543C28.1417 29.6862 28.8037 29.3015 29.3898 28.8159L30.9873 29.3871C31.1076 29.4299 31.238 29.4349 31.3612 29.4013C31.4844 29.3678 31.5945 29.2973 31.677 29.1993L31.7123 29.1578C32.3961 28.3455 32.9227 27.4284 33.2784 26.4322L33.2961 26.3808C33.3845 26.1377 33.3118 25.861 33.1133 25.689Z" fill="#1365FF"/>
<circle cx="25.0001" cy="23.4368" r="2.08333" fill="white"/>
<defs>
<linearGradient id="paint0_linear_16_1963" x1="29.6053" y1="79.0698" x2="29.6053" y2="-1.16279" gradientUnits="userSpaceOnUse">
<stop stop-color="#366EFF"/>
<stop offset="1" stop-color="#A757FF"/>
</linearGradient>
</defs>
</svg>
