<svg width="current" fill='current' version="1.1" x="0px" y="0px" viewBox="0 0 1000 1000" enable-background="new 0 0 1000 1000">
<g>
<path d="M979.8,404.4c-5.5-28.8-22.8-47.5-44.2-47.5l-5,0c-68.4,0-124.1-55.7-124.1-124.1c0-22.5,10.7-47.2,10.8-47.4c11.3-25.4,2.6-56.6-20.2-72.6L673.6,44.1l-1.3-0.6c-7.6-3.3-15.8-4.9-24.6-4.9c-18.1,0-35.8,7.2-47.4,19.3c-14.7,15.1-60.9,54.4-97.7,54.4c-37.3,0-83.7-40.1-98.4-55.5c-11.7-12.3-29.6-19.7-47.8-19.7c-8.7,0-16.8,1.6-24.2,4.8l-128,70.1l-1.2,0.9c-22.9,15.9-31.6,47-20.4,72.5c0.1,0.2,10.8,25,10.8,47.4c0,68.4-55.7,124.1-124.1,124.1l-5,0c-21.3,0-38.6,18.6-44.2,47.9C17.8,417.8,10,463.3,10,500.4c0,36.9,7.8,82.4,10.2,96c5.5,28.8,22.8,47.5,44.2,47.5l5,0c68.4,0,124.1,55.6,124.1,124.1c0,22.5-10.7,47.2-10.8,47.4c-11.3,25.4-2.6,56.6,20.2,72.6l121.2,68l1.3,0.5c7.5,3.3,15.8,5,24.5,5c18.3,0,36.2-7.5,47.8-20.1c13.8-15,61.7-57.8,99.9-57.8c38.4,0,85.6,42.6,100.6,59c11.6,12.8,29.6,20.5,48,20.5c8.5,0,16.6-1.6,24.1-4.8l125.7-69.3l1.2-0.9c22.8-15.9,31.6-47.1,20.3-72.6c-0.1-0.2-10.8-25.1-10.8-47.4c0-68.4,55.7-124.1,124.1-124.1h4.9c21.4,0,38.8-18.6,44.2-47.5c0.1-0.5,10.3-54.2,10.3-96C990,459.3,980.2,406.6,979.8,404.4z M927.3,500.4c0,30.5-6.7,70.8-8.6,81.1c-98.2,6.2-174.9,87.6-174.9,186.4c0,30.2,10.4,58.8,14.9,69.7l-113.1,62.5c-0.6-0.1-1.2-0.2-1.3-0.2c0,0-0.1,0,0,0.1c-4.5-4.8-20.8-21.8-43.3-38.5c-36.5-27.1-71.3-40.8-103.5-40.8c-31.9,0-66.4,13.5-102.7,40.1c-24.3,17.8-41.3,35.8-42.7,37.4c-0.2,0.1-1,0.4-1.8,0.5l-109-60.9c4.5-10.9,14.9-39.6,14.9-69.8c0-98.8-76.6-180.2-174.9-186.4c-2.1-11.8-8.6-51-8.6-81.1c0-30.3,6.7-70.7,8.6-81.1c98.2-6.2,174.9-87.7,174.9-186.4c0-30.6-10.9-60.1-14.8-69.7l115.3-63.3c1.3,0.1,2.4,0.5,2.2,0.3c0.2,0.2,17.5,18.4,42.7,36.4c35.8,25.5,69.7,38.5,101,38.5c30.9,0,64.6-12.7,100.2-37.7c24.7-17.4,41.8-35,42.1-35.4c0.2-0.1,1.2-0.5,2.7-0.6l111.2,61.8c-3.9,9.6-14.9,39.1-14.9,69.7c0,98.7,76.6,180.2,174.9,186.4C920.8,431,927.3,470.2,927.3,500.4z"/><path d="M497.9,328.3c-94.5,0-171.4,76.9-171.4,171.4c0,94.5,76.9,171.4,171.4,171.4c94.5,0,171.4-76.9,171.4-171.4C669.3,405.2,592.4,328.3,497.9,328.3z M497.9,608.4c-59.9,0-108.7-48.8-108.7-108.7c0-59.9,48.8-108.7,108.7-108.7c59.9,0,108.7,48.8,108.7,108.7C606.6,559.7,557.8,608.4,497.9,608.4z"/></g>
</svg>