<svg width="2560" height="510" viewBox="0 0 2560 510" fill="none" xmlns="http://www.w3.org/2000/svg">
<g clip-path="url(#clip0_16_1972)">
<g filter="url(#filter0_f_16_1972)">
<path d="M864.862 -0.653314C578.837 14.4158 490.746 283.499 391.271 275.84C266.224 266.212 289.524 13.8166 391.271 -82.3504C511.203 -195.705 1058.7 -10.8654 864.862 -0.653314Z" fill="#5F8BFF" fill-opacity="0.3"/>
</g>
<path d="M851.839 -463.328C453.895 560.089 249.547 738.722 -38.415 -554.087" stroke="url(#paint0_linear_16_1972)" stroke-opacity="0.6"/>
<path d="M881.045 -407.131C493.21 517.127 284.826 653.429 -15.1404 -521.631" stroke="url(#paint1_linear_16_1972)" stroke-opacity="0.6"/>
<path d="M910.248 -350.923C540.845 455.995 340.889 609.064 40.4576 -373.53M40.4576 -373.53C33.6885 -395.669 9.72201 -480.445 2.84782 -503.743L40.4576 -373.53Z" stroke="url(#paint2_linear_16_1972)" stroke-opacity="0.6"/>
<path d="M939.448 -294.721C575.69 423.598 377.358 551.438 59.3552 -356.243M59.3552 -356.243C55.9817 -365.872 17.501 -487.936 14.1002 -497.799L59.3552 -356.243Z" stroke="url(#paint3_linear_16_1972)" stroke-opacity="0.6"/>
<path d="M968.657 -238.519C615.753 380.191 419.476 489.765 91.3131 -297.993M91.3131 -297.993C89.8272 -301.559 88.3388 -305.144 86.8475 -308.748L91.3131 -297.993Z" stroke="url(#paint4_linear_16_1972)" stroke-opacity="0.6"/>
<path d="M997.857 -182.318C650.458 345.304 455.586 430.99 107.604 -273.076" stroke="url(#paint5_linear_16_1972)" stroke-opacity="0.6"/>
<path d="M1027.05 -126.119C689.762 302.343 496.785 369.44 136.799 -216.878" stroke="url(#paint6_linear_16_1972)" stroke-opacity="0.6"/>
<path d="M1056.27 -69.9115C729.085 259.392 538.004 307.9 166.013 -160.67" stroke="url(#paint7_linear_16_1972)" stroke-opacity="0.6"/>
<path d="M1085.47 -13.715C768.394 216.429 579.208 246.348 195.213 -104.473C131.442 -161.864 -197.754 -459.325 -238.923 -498.243" stroke="url(#paint8_linear_16_1972)" stroke-opacity="0.6"/>
<path d="M1114.67 42.5027C807.703 173.488 620.412 184.817 224.413 -48.2556C142.892 -96.8429 -240.893 -343.033 -267.936 -363.845" stroke="url(#paint9_linear_16_1972)" stroke-opacity="0.6"/>
<g clip-path="url(#clip1_16_1972)">
<path d="M1441.72 901.067C1604.9 0.783036 1743.72 -177.756 2184.35 834.088" stroke="url(#paint10_angular_16_1972)"/>
<path d="M1408.91 859.725C1579.55 42.1573 1728.39 -102.394 2160.16 811.227" stroke="url(#paint11_angular_16_1972)"/>
<path d="M1376.11 818.383C1550.29 99.7237 1689.57 -57.2068 2091.19 698.902M2091.19 698.902C2100.24 715.938 2133.29 781.484 2142.61 799.451L2091.19 698.902Z" stroke="url(#paint12_angular_16_1972)"/>
<path d="M1343.31 777.044C1526.92 131.753 1668.88 -4.28086 2072.99 687.761M2072.99 687.761C2077.28 695.102 2128.12 788.847 2132.47 796.376L2072.99 687.761Z" stroke="url(#paint13_angular_16_1972)"/>
<path d="M1310.5 735.7C1501.04 173.612 1644.21 52.8452 2037.61 645.178M2037.61 645.178C2039.39 647.86 2041.18 650.556 2042.97 653.268L2037.61 645.178Z" stroke="url(#paint14_angular_16_1972)"/>
<path d="M1277.7 694.361C1478.18 207.658 1624 106.653 2020.33 627.382" stroke="url(#paint15_angular_16_1972)"/>
<path d="M1244.91 653.018C1452.84 249.03 1600.06 163.533 1987.53 586.039" stroke="url(#paint16_angular_16_1972)"/>
<path d="M1212.09 611.678C1427.49 290.407 1576.1 220.416 1954.72 544.699" stroke="url(#paint17_angular_16_1972)"/>
<path d="M1179.29 570.338C1402.15 331.783 1552.16 277.299 1921.92 503.359C1983.19 540.189 2299.66 731.294 2339.51 756.598" stroke="url(#paint18_angular_16_1972)"/>
<path d="M1146.49 528.983C1376.81 373.144 1528.22 334.167 1889.12 462.004C1963.51 488.817 2316.5 629.323 2341.92 642.057" stroke="url(#paint19_angular_16_1972)"/>
</g>
<g filter="url(#filter1_f_16_1972)">
<ellipse rx="382.514" ry="202.382" transform="matrix(-0.983125 0.182937 0.182937 0.983125 1887.08 716.943)" fill="#AC6AFC" fill-opacity="0.4"/>
</g>
<g filter="url(#filter2_f_16_1972)">
<path d="M1696.28 561.173C2019.84 502.076 2142.83 278.514 2195.12 176.572C2407.5 -237.497 2756 -139.497 2658 584.898C2632.58 772.769 1477.01 601.223 1696.28 561.173Z" fill="#5F6FFF" fill-opacity="0.5"/>
</g>
</g>
<defs>
<filter id="filter0_f_16_1972" x="106" y="-319" width="1000" height="795" filterUnits="userSpaceOnUse" color-interpolation-filters="sRGB">
<feFlood flood-opacity="0" result="BackgroundImageFix"/>
<feBlend mode="normal" in="SourceGraphic" in2="BackgroundImageFix" result="shape"/>
<feGaussianBlur stdDeviation="100" result="effect1_foregroundBlur_16_1972"/>
</filter>
<filter id="filter1_f_16_1972" x="1109.18" y="105.973" width="1555.81" height="1221.94" filterUnits="userSpaceOnUse" color-interpolation-filters="sRGB">
<feFlood flood-opacity="0" result="BackgroundImageFix"/>
<feBlend mode="normal" in="SourceGraphic" in2="BackgroundImageFix" result="shape"/>
<feGaussianBlur stdDeviation="200" result="effect1_foregroundBlur_16_1972"/>
</filter>
<filter id="filter2_f_16_1972" x="1468.62" y="-267.459" width="1406.38" height="1138.63" filterUnits="userSpaceOnUse" color-interpolation-filters="sRGB">
<feFlood flood-opacity="0" result="BackgroundImageFix"/>
<feBlend mode="normal" in="SourceGraphic" in2="BackgroundImageFix" result="shape"/>
<feGaussianBlur stdDeviation="100" result="effect1_foregroundBlur_16_1972"/>
</filter>
<linearGradient id="paint0_linear_16_1972" x1="318.488" y1="356.685" x2="406.712" y2="-508.708" gradientUnits="userSpaceOnUse">
<stop stop-color="#2979FF"/>
<stop offset="0.619792" stop-color="#101721"/>
</linearGradient>
<linearGradient id="paint1_linear_16_1972" x1="353.101" y1="318.883" x2="434.119" y2="-475.831" gradientUnits="userSpaceOnUse">
<stop stop-color="#2979FF"/>
<stop offset="0.619792" stop-color="#101721"/>
</linearGradient>
<linearGradient id="paint2_linear_16_1972" x1="381.897" y1="304.927" x2="459.591" y2="-457.179" gradientUnits="userSpaceOnUse">
<stop stop-color="#2979FF"/>
<stop offset="0.619792" stop-color="#101721"/>
</linearGradient>
<linearGradient id="paint3_linear_16_1972" x1="407.987" y1="278.476" x2="482.26" y2="-450.072" gradientUnits="userSpaceOnUse">
<stop stop-color="#2979FF"/>
<stop offset="0.619792" stop-color="#101721"/>
</linearGradient>
<linearGradient id="paint4_linear_16_1972" x1="473.751" y1="256.068" x2="528.745" y2="-283.367" gradientUnits="userSpaceOnUse">
<stop stop-color="#2979FF"/>
<stop offset="0.619792" stop-color="#101721"/>
</linearGradient>
<linearGradient id="paint5_linear_16_1972" x1="506.044" y1="230.25" x2="552.731" y2="-227.697" gradientUnits="userSpaceOnUse">
<stop stop-color="#2979FF"/>
<stop offset="0.619792" stop-color="#101721"/>
</linearGradient>
<linearGradient id="paint6_linear_16_1972" x1="543.547" y1="204.959" x2="581.926" y2="-171.499" gradientUnits="userSpaceOnUse">
<stop stop-color="#2979FF"/>
<stop offset="0.619792" stop-color="#101721"/>
</linearGradient>
<linearGradient id="paint7_linear_16_1972" x1="581.069" y1="179.678" x2="611.14" y2="-115.291" gradientUnits="userSpaceOnUse">
<stop stop-color="#2979FF"/>
<stop offset="0.619792" stop-color="#101721"/>
</linearGradient>
<linearGradient id="paint8_linear_16_1972" x1="383.876" y1="130.458" x2="440.905" y2="-428.937" gradientUnits="userSpaceOnUse">
<stop stop-color="#2979FF"/>
<stop offset="0.619792" stop-color="#101721"/>
</linearGradient>
<linearGradient id="paint9_linear_16_1972" x1="396.52" y1="102.651" x2="436.754" y2="-292.004" gradientUnits="userSpaceOnUse">
<stop stop-color="#2979FF"/>
<stop offset="0.619792" stop-color="#101721"/>
</linearGradient>
<radialGradient id="paint10_angular_16_1972" cx="0" cy="0" r="1" gradientUnits="userSpaceOnUse" gradientTransform="translate(1780.48 506.633) rotate(84.8463) scale(362.41 372.821)">
<stop offset="0.1875" stop-color="#101721"/>
<stop offset="0.416667" stop-color="#2A90FF"/>
<stop offset="0.583333" stop-color="#AF6AFE"/>
</radialGradient>
<radialGradient id="paint11_angular_16_1972" cx="0" cy="0" r="1" gradientUnits="userSpaceOnUse" gradientTransform="translate(1755.5 513.562) rotate(84.8463) scale(332.811 376.283)">
<stop offset="0.1875" stop-color="#101721"/>
<stop offset="0.416667" stop-color="#2A90FF"/>
<stop offset="0.583333" stop-color="#AF6AFE"/>
</radialGradient>
<radialGradient id="paint12_angular_16_1972" cx="0" cy="0" r="1" gradientUnits="userSpaceOnUse" gradientTransform="translate(1732.94 515.949) rotate(84.8463) scale(319.155 382.55)">
<stop offset="0.1875" stop-color="#101721"/>
<stop offset="0.416667" stop-color="#2A90FF"/>
<stop offset="0.583333" stop-color="#AF6AFE"/>
</radialGradient>
<radialGradient id="paint13_angular_16_1972" cx="0" cy="0" r="1" gradientUnits="userSpaceOnUse" gradientTransform="translate(1714.53 527.73) rotate(84.8463) scale(305.102 392.113)">
<stop offset="0.1875" stop-color="#101721"/>
<stop offset="0.416667" stop-color="#2A90FF"/>
<stop offset="0.583333" stop-color="#AF6AFE"/>
</radialGradient>
<radialGradient id="paint14_angular_16_1972" cx="0" cy="0" r="1" gradientUnits="userSpaceOnUse" gradientTransform="translate(1657.17 477.611) rotate(84.8463) scale(225.905 368.454)">
<stop offset="0.1875" stop-color="#101721"/>
<stop offset="0.416667" stop-color="#2A90FF"/>
<stop offset="0.583333" stop-color="#AF6AFE"/>
</radialGradient>
<radialGradient id="paint15_angular_16_1972" cx="0" cy="0" r="1" gradientUnits="userSpaceOnUse" gradientTransform="translate(1631.79 469.868) rotate(84.8463) scale(191.779 372.821)">
<stop offset="0.1875" stop-color="#101721"/>
<stop offset="0.416667" stop-color="#2A90FF"/>
<stop offset="0.583333" stop-color="#AF6AFE"/>
</radialGradient>
<radialGradient id="paint16_angular_16_1972" cx="0" cy="0" r="1" gradientUnits="userSpaceOnUse" gradientTransform="translate(1602.06 462.513) rotate(84.8463) scale(157.653 372.821)">
<stop offset="0.1875" stop-color="#101721"/>
<stop offset="0.416667" stop-color="#2A90FF"/>
<stop offset="0.583333" stop-color="#AF6AFE"/>
</radialGradient>
<radialGradient id="paint17_angular_16_1972" cx="0" cy="0" r="1" gradientUnits="userSpaceOnUse" gradientTransform="translate(1572.31 455.161) rotate(84.8463) scale(123.527 372.821)">
<stop offset="0.1875" stop-color="#101721"/>
<stop offset="0.416667" stop-color="#2A90FF"/>
<stop offset="0.583333" stop-color="#AF6AFE"/>
</radialGradient>
<radialGradient id="paint18_angular_16_1972" cx="0" cy="0" r="1" gradientUnits="userSpaceOnUse" gradientTransform="translate(1751.37 574.429) rotate(84.8463) scale(234.263 569.397)">
<stop offset="0.1875" stop-color="#101721"/>
<stop offset="0.416667" stop-color="#2A90FF"/>
<stop offset="0.583333" stop-color="#AF6AFE"/>
</radialGradient>
<radialGradient id="paint19_angular_16_1972" cx="0" cy="0" r="1" gradientUnits="userSpaceOnUse" gradientTransform="translate(1739.24 530.469) rotate(84.8463) scale(165.274 590.222)">
<stop offset="0.1875" stop-color="#101721"/>
<stop offset="0.416667" stop-color="#2A90FF"/>
<stop offset="0.583333" stop-color="#AF6AFE"/>
</radialGradient>
<clipPath id="clip0_16_1972">
<rect width="2560" height="510" fill="white"/>
</clipPath>
<clipPath id="clip1_16_1972">
<rect width="934" height="444" fill="white" transform="translate(1131 66)"/>
</clipPath>
</defs>
</svg>
