<svg width="66" height="70" viewBox="0 0 66 70" fill="none" xmlns="http://www.w3.org/2000/svg">
<path d="M30.1598 51.0961L30.0422 67H1L1.45021 65.8398C2.67106 62.3206 8.53899 46.001 9.01158 44.8409C9.45142 43.7611 9.44478 42.3659 9.36602 41.8245L6.29421 26.5104C5.03399 20.6322 8.42081 7.34582 23.1891 7.00892C38.1937 6.66662 42.644 16.2624 42.6834 21.2898L42.4471 27.2066L48 38.4601L44.2193 39.6203L44.1901 39.6281C43.381 39.8454 42.9182 39.9696 42.8016 40.8965C42.7622 42.4047 42.6362 45.9084 42.4471 47.8574C42.2581 49.8065 40.3993 50.1391 39.4935 50.0617C38.1152 49.9844 34.7669 49.5781 32.5227 49.3558C30.3093 49.1366 30.1598 50.2839 30.1598 51.0961Z" fill="url(#paint0_linear_143_4171)"/>
<path fill-rule="evenodd" clip-rule="evenodd" d="M53.7876 1.11885C53.5955 0.939551 53.2974 0.939551 53.1052 1.11885L42.0973 11.3929C41.7656 11.7025 41.9847 12.2584 42.4385 12.2584H48.2145V29.1829H58.571V12.2584H64.4543C64.9081 12.2584 65.1272 11.7025 64.7955 11.3929L53.7876 1.11885Z" fill="url(#paint1_linear_143_4171)"/>
<path fill-rule="evenodd" clip-rule="evenodd" d="M52.9257 46.0536L52.927 46.0523C54.0986 44.8444 54.8143 43.2588 54.8143 41.5164C54.8143 39.7739 54.0985 38.1883 52.9247 36.9783L52.9224 36.976L52.9202 36.9737C52.8217 36.8758 52.692 36.8219 52.5609 36.8135C52.4298 36.8051 52.2955 36.8419 52.1861 36.9237L51.2096 37.6589L51.2073 37.6606C50.9631 37.8475 50.9253 38.2006 51.1441 38.4307L51.1461 38.4328L51.1481 38.4349C51.9605 39.2625 52.4448 40.3403 52.4448 41.5164C52.4448 42.6925 51.9605 43.7705 51.1501 44.5981L51.1482 44.6001L51.1463 44.602C50.9276 44.8321 50.9653 45.1853 51.2095 45.3721L52.1857 46.107L52.1867 46.1078C52.4089 46.2762 52.7305 46.2529 52.9257 46.0536ZM52.6612 45.8022C52.6618 45.8015 52.6625 45.8008 52.6632 45.8001C53.7751 44.6537 54.4481 43.1564 54.4481 41.5164C54.4481 39.8763 53.7751 38.379 52.6609 37.2306C52.6291 37.1988 52.5847 37.1794 52.5373 37.1764C52.4898 37.1733 52.4428 37.1869 52.4063 37.2142L51.4308 37.9486C51.4246 37.9534 51.4188 37.9584 51.4135 37.9637C51.4187 37.9585 51.4244 37.9535 51.4306 37.9488L52.4061 37.2145C52.4426 37.1871 52.4896 37.1736 52.5371 37.1766C52.5845 37.1796 52.6288 37.1991 52.6607 37.2308C53.7749 38.3792 54.4479 39.8765 54.4479 41.5166C54.4479 43.1567 53.7749 44.6539 52.663 45.8004C52.6624 45.801 52.6618 45.8016 52.6612 45.8022ZM58.9072 41.5164C58.9072 38.8755 57.8552 36.4619 56.1182 34.5894L56.1165 34.5876C56.0192 34.4841 55.8877 34.4262 55.7542 34.4156C55.6208 34.405 55.4835 34.4414 55.3719 34.5246L54.3961 35.2593C54.1491 35.4432 54.1109 35.7968 54.3251 36.0253C55.7095 37.5205 56.5376 39.4352 56.5376 41.5164C56.5376 43.598 55.7091 45.513 54.3243 47.0062L54.323 47.0076C54.1142 47.2351 54.1462 47.5854 54.3961 47.7715L54.3978 47.7727L55.3706 48.5051L55.3733 48.5071C55.5911 48.668 55.9198 48.6565 56.1186 48.4408C57.8554 46.5703 58.9072 44.1569 58.9072 41.5164ZM54.5975 35.5659C54.6033 35.5602 54.6096 35.5547 54.6164 35.5497L55.5919 34.8153C55.629 34.7876 55.6769 34.7742 55.725 34.778C55.7732 34.7818 55.8176 34.8026 55.8488 34.8357C57.5291 36.6471 58.541 38.9747 58.541 41.5164C58.541 44.0581 57.5291 46.3856 55.8488 48.195C55.847 48.1969 55.8452 48.1988 55.8433 48.2006C55.8451 48.1989 55.8469 48.1971 55.8486 48.1952C57.5289 46.3858 58.5408 44.0583 58.5408 41.5166C58.5408 38.9749 57.5289 36.6474 55.8486 34.8359C55.8174 34.8028 55.7729 34.7821 55.7248 34.7782C55.6767 34.7744 55.6288 34.7878 55.5916 34.8155L54.6162 35.5499C54.6094 35.5549 54.6032 35.5602 54.5975 35.5659ZM58.5734 32.1131L57.5989 32.8468L57.5974 32.8479C57.3638 33.0258 57.3096 33.3713 57.523 33.6062C59.4709 35.7625 60.6305 38.4987 60.6305 41.4756C60.6305 44.4743 59.4532 47.2285 57.4807 49.3909C57.2661 49.6255 57.3149 49.9739 57.5567 50.1541L57.5584 50.1553L58.5289 50.8859L58.5304 50.8871C58.7558 51.0584 59.0874 51.0342 59.2816 50.8187C61.6015 48.2813 63 45.0264 63 41.4756C63 37.9475 61.62 34.7132 59.3276 32.182C59.2796 32.1287 59.2222 32.0865 59.16 32.0564C59.0975 32.0261 59.0303 32.008 58.9623 32.0021C58.8944 31.9962 58.8255 32.0026 58.7594 32.0211C58.6935 32.0395 58.6303 32.0701 58.5741 32.1127L58.5734 32.1131ZM59.002 50.5833C59.0045 50.5808 59.007 50.5782 59.0094 50.5755C61.2741 48.0991 62.6338 44.9291 62.6338 41.4756C62.6338 38.0445 61.2923 34.8949 59.0549 32.4246C59.0397 32.4076 59.0208 32.3935 58.9995 32.3832C58.9781 32.3728 58.9547 32.3664 58.9305 32.3643C58.9064 32.3623 58.882 32.3645 58.8588 32.371C58.8357 32.3775 58.8142 32.3881 58.7956 32.4021L57.8202 33.1365C57.8138 33.1413 57.8079 33.1465 57.8025 33.1519C57.8079 33.1466 57.8137 33.1415 57.82 33.1367L58.7954 32.4024C58.814 32.3883 58.8354 32.3777 58.8586 32.3712C58.8818 32.3647 58.9061 32.3625 58.9303 32.3646C58.9545 32.3667 58.9779 32.3731 58.9992 32.3834C59.0206 32.3937 59.0394 32.4078 59.0546 32.4248C61.292 34.8951 62.6336 38.0447 62.6336 41.4758C62.6336 44.9293 61.2739 48.0993 59.0092 50.5757C59.0068 50.5783 59.0044 50.5809 59.002 50.5833Z" fill="url(#paint2_linear_143_4171)" fill-opacity="0.8"/>
<defs>
<linearGradient id="paint0_linear_143_4171" x1="30.0819" y1="67" x2="30.0819" y2="5.5" gradientUnits="userSpaceOnUse">
<stop stop-color="#366EFF" stop-opacity="0"/>
<stop offset="0.341708" stop-color="#7672FF" stop-opacity="0.457143"/>
<stop offset="1" stop-color="#A85FFF"/>
</linearGradient>
<linearGradient id="paint1_linear_143_4171" x1="53.286" y1="8.5" x2="53.286" y2="29.1829" gradientUnits="userSpaceOnUse">
<stop stop-color="#41A4FF"/>
<stop offset="1" stop-color="#4988FF" stop-opacity="0"/>
</linearGradient>
<linearGradient id="paint2_linear_143_4171" x1="68.5" y1="41.5935" x2="51" y2="41.5935" gradientUnits="userSpaceOnUse">
<stop stop-color="#7047BD" stop-opacity="0.4"/>
<stop offset="1" stop-color="#A85FFF"/>
</linearGradient>
</defs>
</svg>
