<svg width="66" height="70" viewBox="0 0 66 70" fill="none" xmlns="http://www.w3.org/2000/svg">
<path fill-rule="evenodd" clip-rule="evenodd" d="M9.02453 10C10.1291 10 11.0245 10.8954 11.0245 12V52.1831L11.004 52.3251C10.9987 52.3624 10.9946 52.451 11.0137 52.5537C11.0319 52.6519 11.0626 52.7183 11.0896 52.7577C11.1089 52.7858 11.1428 52.8271 11.236 52.8716C11.3384 52.9205 11.5709 53 12.0139 53H55.9996C57.1041 53 57.9996 53.8954 57.9996 55C57.9996 56.1046 57.1041 57 55.9996 57H12.0139C10.1095 57 8.65242 56.2747 7.79217 55.0219C7.0631 53.9602 6.9362 52.7674 7.02453 51.9194V12C7.02453 10.8954 7.91996 10 9.02453 10Z" fill="url(#paint0_linear_143_4165)"/>
<path fill-rule="evenodd" clip-rule="evenodd" d="M55.4335 20.6053C56.2037 21.397 56.1864 22.6632 55.3947 23.4335L38.9503 39.4335C38.1739 40.1889 36.9372 40.1889 36.1608 39.4335L29.3333 32.7905L18.3947 43.4335C17.603 44.2037 16.3368 44.1864 15.5665 43.3947C14.7963 42.603 14.8136 41.3368 15.6053 40.5666L27.9386 28.5665C28.715 27.8112 29.9517 27.8112 30.728 28.5665L37.5556 35.2095L52.6053 20.5665C53.397 19.7963 54.6632 19.8136 55.4335 20.6053Z" fill="#41A4FF"/>
<path fill-rule="evenodd" clip-rule="evenodd" d="M42 22C42 20.8954 42.8954 20 44 20H54C55.1046 20 56 20.8954 56 22V32C56 33.1046 55.1046 34 54 34C52.8954 34 52 33.1046 52 32V24H44C42.8954 24 42 23.1046 42 22Z" fill="#41A4FF"/>
<defs>
<linearGradient id="paint0_linear_143_4165" x1="37.1971" y1="85.4186" x2="37.1971" y2="6.98325" gradientUnits="userSpaceOnUse">
<stop stop-color="#5236FF"/>
<stop offset="1" stop-color="#A85FFF"/>
</linearGradient>
</defs>
</svg>
