<svg width="66" height="70" viewBox="0 0 66 70" fill="none" xmlns="http://www.w3.org/2000/svg">
<path d="M44.1946 11C43.9809 11 43.7615 11.0394 43.5422 11.1294L11.1237 26.1552H1.89989C1.40495 26.1552 1 26.5714 1 27.0889V43.9055C1 44.4229 1.40495 44.8391 1.89989 44.8391H7.6198C7.4117 45.4916 7.29921 46.1833 7.29921 46.8864C7.29921 50.5928 10.3251 53.6074 14.0484 53.6074C17.1642 53.6074 19.7908 51.4927 20.5669 48.6355L43.5478 59.8706C43.7672 59.955 43.9865 60 44.2002 60C45.1507 60 46 59.2014 46 58.1327V12.8673C45.9944 11.7987 45.1507 11 44.1946 11ZM14.0484 49.5748C12.5579 49.5748 11.3487 48.3712 11.3487 46.8864C11.3487 46.2565 11.5681 45.6547 11.9674 45.1766L16.7424 47.0945C16.6299 48.4781 15.4657 49.5748 14.0484 49.5748Z" fill="url(#paint0_linear_143_4156)"/>
<path fill-rule="evenodd" clip-rule="evenodd" d="M51.7281 42.971L51.7299 42.9691C53.3896 41.2526 54.4036 38.9993 54.4036 36.5233C54.4036 34.0471 53.3895 31.7938 51.7266 30.0744L51.7235 30.0712L51.7202 30.0679C51.5808 29.9287 51.397 29.8522 51.2112 29.8403C51.0255 29.8284 50.8353 29.8806 50.6803 29.9969L49.2969 31.0415L49.2936 31.044C48.9477 31.3096 48.8942 31.8114 49.2041 32.1384L49.2069 32.1414L49.2098 32.1444C50.3607 33.3203 51.0468 34.852 51.0468 36.5233C51.0468 38.1946 50.3607 39.7265 49.2126 40.9026L49.2099 40.9053L49.2073 40.9081C48.8974 41.2351 48.9509 41.7369 49.2969 42.0025L50.6798 43.0469L50.6811 43.0479C50.996 43.2872 51.4516 43.2541 51.7281 42.971ZM51.3533 42.6137C51.3543 42.6127 51.3553 42.6117 51.3562 42.6107C52.9314 40.9816 53.8849 38.8539 53.8849 36.5233C53.8849 34.1926 52.9314 32.0649 51.353 30.4329C51.3078 30.3878 51.2451 30.3602 51.1778 30.3559C51.1105 30.3516 51.044 30.3709 50.9922 30.4097L49.6103 31.4533C49.6015 31.46 49.5933 31.4672 49.5857 31.4748C49.5932 31.4674 49.6013 31.4603 49.61 31.4536L50.9919 30.41C51.0437 30.3712 51.1102 30.3519 51.1775 30.3562C51.2447 30.3605 51.3075 30.3881 51.3527 30.4332C52.9311 32.0652 53.8846 34.1929 53.8846 36.5236C53.8846 38.8542 52.9311 40.9819 51.3559 42.611C51.355 42.6119 51.3542 42.6128 51.3533 42.6137ZM60.2018 36.5233C60.2018 32.7705 58.7115 29.3406 56.2507 26.6797L56.2484 26.6771C56.1105 26.53 55.9242 26.4477 55.7351 26.4327C55.5461 26.4176 55.3516 26.4693 55.1935 26.5876L53.8111 27.6316C53.4612 27.893 53.4071 28.3954 53.7105 28.7201C55.6718 30.8449 56.845 33.5659 56.845 36.5233C56.845 39.4814 55.6713 42.2027 53.7094 44.3247L53.7076 44.3266C53.4118 44.6498 53.4571 45.1476 53.8112 45.4121L53.8135 45.4138L55.1917 46.4546L55.1954 46.4574C55.504 46.6861 55.9697 46.6697 56.2514 46.3632C58.7119 43.7052 60.2018 40.2756 60.2018 36.5233ZM54.0964 28.0673C54.1046 28.0592 54.1136 28.0515 54.1232 28.0443L55.5051 27.0007C55.5578 26.9613 55.6256 26.9423 55.6938 26.9477C55.762 26.9531 55.825 26.9826 55.8691 27.0297C58.2496 29.6038 59.683 32.9114 59.683 36.5233C59.683 40.1351 58.2496 43.4427 55.8691 46.0139C55.8666 46.0167 55.864 46.0193 55.8614 46.022C55.8639 46.0194 55.8664 46.0169 55.8688 46.0142C58.2493 43.443 59.6827 40.1355 59.6827 36.5236C59.6827 32.9117 58.2493 29.6042 55.8688 27.03C55.8247 26.9829 55.7617 26.9535 55.6935 26.948C55.6253 26.9426 55.5575 26.9617 55.5048 27.001L54.1229 28.0446C54.1134 28.0517 54.1045 28.0593 54.0964 28.0673ZM59.729 23.1608L58.3485 24.2033L58.3463 24.205C58.0153 24.4577 57.9386 24.9487 58.2409 25.2825C61.0004 28.3467 62.6432 32.235 62.6432 36.4653C62.6432 40.7266 60.9753 44.6404 58.181 47.7134C57.8769 48.0467 57.946 48.5419 58.2887 48.7979L58.291 48.7996L59.6659 49.8379L59.668 49.8395C59.9874 50.0829 60.4572 50.0486 60.7323 49.7424C64.0188 46.1366 66 41.5112 66 36.4653C66 31.4517 64.045 26.8556 60.7975 23.2586C60.7295 23.1829 60.6482 23.123 60.56 23.0802C60.4714 23.0371 60.3762 23.0114 60.28 23.003C60.1837 22.9947 60.0861 23.0036 59.9924 23.03C59.8991 23.0562 59.8096 23.0997 59.7299 23.1601L59.729 23.1608Z" fill="url(#paint1_linear_143_4156)"/>
<g filter="url(#filter0_b_143_4156)">
<circle cx="23" cy="17" r="12" fill="#28BFFF" fill-opacity="0.6"/>
</g>
<defs>
<filter id="filter0_b_143_4156" x="5" y="-1" width="36" height="36" filterUnits="userSpaceOnUse" color-interpolation-filters="sRGB">
<feFlood flood-opacity="0" result="BackgroundImageFix"/>
<feGaussianBlur in="BackgroundImage" stdDeviation="3"/>
<feComposite in2="SourceAlpha" operator="in" result="effect1_backgroundBlur_143_4156"/>
<feBlend mode="normal" in="SourceGraphic" in2="effect1_backgroundBlur_143_4156" result="shape"/>
</filter>
<linearGradient id="paint0_linear_143_4156" x1="27.6447" y1="84.1628" x2="27.6447" y2="11.9535" gradientUnits="userSpaceOnUse">
<stop stop-color="#366EFF"/>
<stop offset="1" stop-color="#AD68FF"/>
</linearGradient>
<linearGradient id="paint1_linear_143_4156" x1="59.0658" y1="65.6977" x2="59.0658" y2="22.3721" gradientUnits="userSpaceOnUse">
<stop stop-color="#366EFF"/>
<stop offset="1" stop-color="#AD68FF"/>
</linearGradient>
</defs>
</svg>
