<svg width="2560" height="510" viewBox="0 0 2560 510" fill="none" xmlns="http://www.w3.org/2000/svg">
<g clip-path="url(#clip0_32_4710)">
<g filter="url(#filter0_f_32_4710)">
<path d="M863.862 -3.65331C577.837 11.4158 489.746 280.499 390.271 272.84C265.224 263.212 288.524 10.8166 390.271 -85.3504C510.203 -198.705 1057.7 -13.8654 863.862 -3.65331Z" fill="#5F8BFF" fill-opacity="0.3"/>
</g>
<path d="M1493.6 -709.893C1361.21 -726.696 883.33 -603.587 666.477 -279.302C449.624 44.9828 447.292 174.75 356.724 469.252C201.613 973.625 -336.675 1010.63 -479.186 1050.67C-621.697 1090.72 -803.161 1150.04 -953.134 1382.99" stroke="url(#paint0_radial_32_4710)"/>
<path d="M1636.14 -509.764C1507.86 -546.55 1016.8 -497.719 753.05 -210.277C489.302 77.1644 467.218 205.06 332.818 482.316C102.642 957.153 -434.997 911.679 -581.947 929.532C-728.896 947.384 -917.281 978.35 -1101.01 1185.73" stroke="url(#paint1_radial_32_4710)"/>
<path d="M1730.41 -328.052C1607.84 -380.845 1114.55 -394.827 816.409 -143.24C518.265 108.347 480.103 232.398 311.554 490.323C22.89 932.052 -504.608 818.61 -652.635 817.64C-800.662 816.67 -991.455 823.44 -1200.05 1005.78" stroke="url(#paint2_radial_32_4710)"/>
<path d="M1788.92 -174.322C1672.39 -239.366 1183.12 -303.69 860.825 -83.8922C538.53 135.906 487.889 255.407 293.861 494.755C-38.4373 904.668 -551.579 737.908 -698.732 721.814C-845.884 705.72 -1036.37 692.955 -1262.51 853.022" stroke="url(#paint3_radial_32_4710)"/>
<path d="M1827.21 -34.6436C1717.01 -109.914 1235.51 -218.024 894.736 -28.1328C553.962 161.758 492.769 276.215 277.982 497.124C-89.8698 875.458 -585.916 663.179 -731.022 633.903C-876.128 604.627 -1064.69 574.766 -1304.32 713.825" stroke="url(#paint4_radial_32_4710)"/>
<path d="M1849.8 86.8755C1745.71 3.35878 1273.94 -141.436 919.585 21.7043C565.225 184.844 495.417 294.26 264.287 498.008C-131.552 846.953 -609.817 597.18 -752.244 556.839C-894.671 516.498 -1080.38 472.233 -1329.99 592.465" stroke="url(#paint5_radial_32_4710)"/>
<path d="M1861.33 187.704C1762.72 97.7856 1301.03 -76.4908 937.082 63.9624C573.133 204.416 496.56 309.208 253.033 497.965C-164.037 821.235 -625.587 541.779 -765.184 492.531C-904.781 443.282 -1087.33 387.386 -1344.03 491.626" stroke="url(#paint6_radial_32_4710)"/>
<path d="M1866.23 278.421C1772.86 183.074 1321.75 -17.009 950.452 102.657C579.149 222.323 496.777 322.622 242.975 497.317C-191.694 796.507 -636.717 491.42 -773.309 434.363C-909.901 377.306 -1089 311.185 -1351.18 400.756" stroke="url(#paint7_radial_32_4710)"/>
<path d="M1866.33 356.796C1777.72 257.01 1336.91 35.1733 960.212 136.595C583.517 238.018 496.354 334.181 234.337 496.296C-214.401 773.939 -644.022 447.52 -777.67 383.872C-911.318 320.223 -1086.98 245.45 -1353.21 322.133" stroke="url(#paint8_radial_32_4710)"/>
<path d="M1864.18 410.821C1778.97 308.11 1345.87 71.5681 965.981 160.259C586.087 248.95 495.737 342.127 228.414 495.335C-229.411 757.723 -647.806 417.034 -779.237 348.925C-910.668 280.816 -1083.71 200.176 -1352.38 267.857" stroke="url(#paint9_radial_32_4710)"/>
<path d="M278.218 1481.73C433.824 1512.22 1010.17 1404.44 1293.13 1037.32C1576.1 670.203 1589.22 516.554 1720.11 174.661C1944.26 -410.875 2585.34 -411.766 2757.48 -447.857C2929.62 -483.947 3149.47 -539.779 3345.86 -803.97" stroke="url(#paint10_radial_32_4710)"/>
<path d="M125.219 1233.1C274.359 1286.95 860.398 1268.27 1196.01 948.578C1531.63 628.882 1568.02 479.029 1749.49 161.08C2060.27 -383.447 2693.99 -286.612 2869.62 -296.043C3045.25 -305.473 3271.05 -327.141 3505.41 -558.311" stroke="url(#paint11_radial_32_4710)"/>
<path d="M27.982 1010.16C169.067 1082.53 752.728 1138.49 1126.26 864.05C1499.79 589.606 1554.93 445.593 1775.33 153.289C2152.81 -347.321 2769.08 -170.722 2944.49 -157.753C3119.89 -144.783 3346.61 -137.576 3608.46 -337.081" stroke="url(#paint12_radial_32_4710)"/>
<path d="M-29.115 823.247C103.835 909.659 678.719 1024.98 1078.34 790.148C1477.96 555.317 1547.54 417.695 1796.66 149.447C2223.32 -309.962 2818.32 -71.3015 2991.48 -40.4733C3164.64 -9.64501 3389.44 20.6968 3670.3 -151.003" stroke="url(#paint13_radial_32_4710)"/>
<path d="M-63.3435 654.604C61.2872 752.634 623.456 919.24 1042.6 721.338C1461.74 523.437 1543.42 392.637 1815.68 147.906C2281.97 -271.228 2853.06 20.0283 3022.75 66.3201C3192.43 112.612 3413.58 163.068 3708.76 17.3502" stroke="url(#paint14_radial_32_4710)"/>
<path d="M-80.4268 508.742C36.3015 616.06 584.003 825.378 1017.11 660.273C1450.22 495.168 1541.71 371.033 1831.98 147.949C2329.1 -234.109 2876.13 100.176 3041.75 159.371C3207.37 218.566 3423.99 285.869 3729.5 163.268" stroke="url(#paint15_radial_32_4710)"/>
<path d="M-86.0429 388.291C23.6805 502.761 557.082 746.223 999.747 608.779C1442.41 471.335 1541.56 353.22 1845.32 148.899C2365.56 -201.028 2890.4 167.111 3051.96 236.64C3213.51 306.168 3425.45 387.007 3738.09 283.929" stroke="url(#paint16_radial_32_4710)"/>
<path d="M-84.6109 280.357C18.4697 400.843 537.263 674.054 986.987 561.84C1436.71 449.625 1542.37 337.301 1857.19 150.468C2396.37 -169.506 2899.57 227.698 3056.94 306.244C3214.31 384.789 3421.35 477.473 3739.31 392.224" stroke="url(#paint17_radial_32_4710)"/>
<path d="M-78.4753 187.438C18.6089 312.807 523.466 610.985 978.126 520.829C1432.79 430.672 1543.79 323.632 1867.35 152.37C2421.49 -140.939 2904.73 280.325 3058.08 366.449C3211.43 452.573 3413.71 555.24 3735.44 485.593" stroke="url(#paint18_radial_32_4710)"/>
<path d="M-71.6076 123.563C21.2036 252.127 515.743 567.122 973.179 492.314C1430.61 417.505 1545.16 314.261 1874.3 153.981C2437.99 -120.518 2906.78 316.766 3057.15 408.001C3207.52 499.236 3406.22 608.65 3730.12 549.867" stroke="url(#paint19_radial_32_4710)"/>
<g filter="url(#filter1_f_32_4710)">
<ellipse rx="382.514" ry="202.382" transform="matrix(-0.983125 0.182937 0.182937 0.983125 1845.08 716.943)" fill="#AC6AFC" fill-opacity="0.4"/>
</g>
<g filter="url(#filter2_f_32_4710)">
<path d="M1702.28 561.171C2434 351.999 2168.5 317.999 2738.5 33.9998C2867.41 -30.2272 2903.78 460.358 2802 584.897C2682.03 731.694 1487.97 622.436 1702.28 561.171Z" fill="#5F6FFF" fill-opacity="0.5"/>
</g>
</g>
<defs>
<filter id="filter0_f_32_4710" x="105" y="-322" width="1000" height="795" filterUnits="userSpaceOnUse" color-interpolation-filters="sRGB">
<feFlood flood-opacity="0" result="BackgroundImageFix"/>
<feBlend mode="normal" in="SourceGraphic" in2="BackgroundImageFix" result="shape"/>
<feGaussianBlur stdDeviation="100" result="effect1_foregroundBlur_32_4710"/>
</filter>
<filter id="filter1_f_32_4710" x="1067.18" y="105.972" width="1555.81" height="1221.94" filterUnits="userSpaceOnUse" color-interpolation-filters="sRGB">
<feFlood flood-opacity="0" result="BackgroundImageFix"/>
<feBlend mode="normal" in="SourceGraphic" in2="BackgroundImageFix" result="shape"/>
<feGaussianBlur stdDeviation="200" result="effect1_foregroundBlur_32_4710"/>
</filter>
<filter id="filter2_f_32_4710" x="1476.6" y="-171.77" width="1584.15" height="1029.86" filterUnits="userSpaceOnUse" color-interpolation-filters="sRGB">
<feFlood flood-opacity="0" result="BackgroundImageFix"/>
<feBlend mode="normal" in="SourceGraphic" in2="BackgroundImageFix" result="shape"/>
<feGaussianBlur stdDeviation="100" result="effect1_foregroundBlur_32_4710"/>
</filter>
<radialGradient id="paint0_radial_32_4710" cx="0" cy="0" r="1" gradientUnits="userSpaceOnUse" gradientTransform="translate(259.515 319.827) rotate(-122.66) scale(351.689 1594.66)">
<stop offset="0.0260417"/>
<stop offset="0.520833" stop-color="#2979FF"/>
<stop offset="1" stop-color="#101721"/>
</radialGradient>
<radialGradient id="paint1_radial_32_4710" cx="0" cy="0" r="1" gradientUnits="userSpaceOnUse" gradientTransform="translate(259.521 319.82) rotate(-113.893) scale(351.689 1594.66)">
<stop offset="0.0260417"/>
<stop offset="0.520833" stop-color="#2979FF"/>
<stop offset="1" stop-color="#101721"/>
</radialGradient>
<radialGradient id="paint2_radial_32_4710" cx="0" cy="0" r="1" gradientUnits="userSpaceOnUse" gradientTransform="translate(259.505 319.828) rotate(-106.591) scale(351.689 1594.66)">
<stop offset="0.0260417"/>
<stop offset="0.520833" stop-color="#2979FF"/>
<stop offset="1" stop-color="#101721"/>
</radialGradient>
<radialGradient id="paint3_radial_32_4710" cx="0" cy="0" r="1" gradientUnits="userSpaceOnUse" gradientTransform="translate(259.511 319.833) rotate(-100.725) scale(351.689 1594.66)">
<stop offset="0.0260417"/>
<stop offset="0.520833" stop-color="#2979FF"/>
<stop offset="1" stop-color="#101721"/>
</radialGradient>
<radialGradient id="paint4_radial_32_4710" cx="0" cy="0" r="1" gradientUnits="userSpaceOnUse" gradientTransform="translate(259.518 319.82) rotate(-95.5595) scale(351.689 1594.66)">
<stop offset="0.0260417"/>
<stop offset="0.520833" stop-color="#2979FF"/>
<stop offset="1" stop-color="#101721"/>
</radialGradient>
<radialGradient id="paint5_radial_32_4710" cx="0" cy="0" r="1" gradientUnits="userSpaceOnUse" gradientTransform="translate(259.504 319.81) rotate(-91.1518) scale(351.689 1594.66)">
<stop offset="0.0260417"/>
<stop offset="0.520833" stop-color="#2979FF"/>
<stop offset="1" stop-color="#101721"/>
</radialGradient>
<radialGradient id="paint6_radial_32_4710" cx="0" cy="0" r="1" gradientUnits="userSpaceOnUse" gradientTransform="translate(259.505 319.82) rotate(-87.5338) scale(351.689 1594.66)">
<stop offset="0.0260417"/>
<stop offset="0.520833" stop-color="#2979FF"/>
<stop offset="1" stop-color="#101721"/>
</radialGradient>
<radialGradient id="paint7_radial_32_4710" cx="0" cy="0" r="1" gradientUnits="userSpaceOnUse" gradientTransform="translate(259.502 319.823) rotate(-84.2949) scale(351.689 1594.66)">
<stop offset="0.0260417"/>
<stop offset="0.520833" stop-color="#2979FF"/>
<stop offset="1" stop-color="#101721"/>
</radialGradient>
<radialGradient id="paint8_radial_32_4710" cx="0" cy="0" r="1" gradientUnits="userSpaceOnUse" gradientTransform="translate(259.497 319.818) rotate(-81.5005) scale(351.689 1594.66)">
<stop offset="0.0260417"/>
<stop offset="0.520833" stop-color="#2979FF"/>
<stop offset="1" stop-color="#101721"/>
</radialGradient>
<radialGradient id="paint9_radial_32_4710" cx="0" cy="0" r="1" gradientUnits="userSpaceOnUse" gradientTransform="translate(259.497 319.803) rotate(-79.5725) scale(351.689 1594.66)">
<stop offset="0.0260417"/>
<stop offset="0.520833" stop-color="#2979FF"/>
<stop offset="1" stop-color="#101721"/>
</radialGradient>
<radialGradient id="paint10_radial_32_4710" cx="0" cy="0" r="1" gradientUnits="userSpaceOnUse" gradientTransform="translate(1823.41 359.562) rotate(61.1928) scale(417.862 1894.7)">
<stop stop-color="#101721"/>
<stop offset="0.15625" stop-color="#2063AC"/>
<stop offset="0.291667" stop-color="#2C8DFF"/>
<stop offset="0.645833" stop-color="#A150FF"/>
<stop offset="0.854167" stop-color="#51397C"/>
<stop offset="1" stop-color="#101721"/>
</radialGradient>
<radialGradient id="paint11_radial_32_4710" cx="0" cy="0" r="1" gradientUnits="userSpaceOnUse" gradientTransform="translate(1823.4 359.568) rotate(69.9602) scale(417.862 1894.7)">
<stop stop-color="#101721"/>
<stop offset="0.15625" stop-color="#2063AC"/>
<stop offset="0.291667" stop-color="#2C8DFF"/>
<stop offset="0.645833" stop-color="#A150FF"/>
<stop offset="0.854167" stop-color="#51397C"/>
<stop offset="1" stop-color="#101721"/>
</radialGradient>
<radialGradient id="paint12_radial_32_4710" cx="0" cy="0" r="1" gradientUnits="userSpaceOnUse" gradientTransform="translate(1823.42 359.561) rotate(77.2625) scale(417.862 1894.7)">
<stop stop-color="#101721"/>
<stop offset="0.15625" stop-color="#2063AC"/>
<stop offset="0.291667" stop-color="#2C8DFF"/>
<stop offset="0.645833" stop-color="#A150FF"/>
<stop offset="0.854167" stop-color="#51397C"/>
<stop offset="1" stop-color="#101721"/>
</radialGradient>
<radialGradient id="paint13_radial_32_4710" cx="0" cy="0" r="1" gradientUnits="userSpaceOnUse" gradientTransform="translate(1823.42 359.554) rotate(83.1286) scale(417.862 1894.7)">
<stop stop-color="#101721"/>
<stop offset="0.15625" stop-color="#2063AC"/>
<stop offset="0.291667" stop-color="#2C8DFF"/>
<stop offset="0.645833" stop-color="#A150FF"/>
<stop offset="0.854167" stop-color="#51397C"/>
<stop offset="1" stop-color="#101721"/>
</radialGradient>
<radialGradient id="paint14_radial_32_4710" cx="0" cy="0" r="1" gradientUnits="userSpaceOnUse" gradientTransform="translate(1823.41 359.568) rotate(88.2937) scale(417.862 1894.7)">
<stop stop-color="#101721"/>
<stop offset="0.15625" stop-color="#2063AC"/>
<stop offset="0.291667" stop-color="#2C8DFF"/>
<stop offset="0.645833" stop-color="#A150FF"/>
<stop offset="0.854167" stop-color="#51397C"/>
<stop offset="1" stop-color="#101721"/>
</radialGradient>
<radialGradient id="paint15_radial_32_4710" cx="0" cy="0" r="1" gradientUnits="userSpaceOnUse" gradientTransform="translate(1823.42 359.58) rotate(92.7013) scale(417.862 1894.7)">
<stop stop-color="#101721"/>
<stop offset="0.15625" stop-color="#2063AC"/>
<stop offset="0.291667" stop-color="#2C8DFF"/>
<stop offset="0.645833" stop-color="#A150FF"/>
<stop offset="0.854167" stop-color="#51397C"/>
<stop offset="1" stop-color="#101721"/>
</radialGradient>
<radialGradient id="paint16_radial_32_4710" cx="0" cy="0" r="1" gradientUnits="userSpaceOnUse" gradientTransform="translate(1823.42 359.568) rotate(96.3194) scale(417.862 1894.7)">
<stop stop-color="#101721"/>
<stop offset="0.15625" stop-color="#2063AC"/>
<stop offset="0.291667" stop-color="#2C8DFF"/>
<stop offset="0.645833" stop-color="#A150FF"/>
<stop offset="0.854167" stop-color="#51397C"/>
<stop offset="1" stop-color="#101721"/>
</radialGradient>
<radialGradient id="paint17_radial_32_4710" cx="0" cy="0" r="1" gradientUnits="userSpaceOnUse" gradientTransform="translate(1823.43 359.564) rotate(99.5583) scale(417.862 1894.7)">
<stop stop-color="#101721"/>
<stop offset="0.15625" stop-color="#2063AC"/>
<stop offset="0.291667" stop-color="#2C8DFF"/>
<stop offset="0.645833" stop-color="#A150FF"/>
<stop offset="0.854167" stop-color="#51397C"/>
<stop offset="1" stop-color="#101721"/>
</radialGradient>
<radialGradient id="paint18_radial_32_4710" cx="0" cy="0" r="1" gradientUnits="userSpaceOnUse" gradientTransform="translate(1823.43 359.571) rotate(102.353) scale(417.862 1894.7)">
<stop stop-color="#101721"/>
<stop offset="0.15625" stop-color="#2063AC"/>
<stop offset="0.291667" stop-color="#2C8DFF"/>
<stop offset="0.645833" stop-color="#A150FF"/>
<stop offset="0.854167" stop-color="#51397C"/>
<stop offset="1" stop-color="#101721"/>
</radialGradient>
<radialGradient id="paint19_radial_32_4710" cx="0" cy="0" r="1" gradientUnits="userSpaceOnUse" gradientTransform="translate(1823.43 359.587) rotate(104.281) scale(417.862 1894.7)">
<stop stop-color="#101721"/>
<stop offset="0.15625" stop-color="#2063AC"/>
<stop offset="0.291667" stop-color="#2C8DFF"/>
<stop offset="0.645833" stop-color="#A150FF"/>
<stop offset="0.854167" stop-color="#51397C"/>
<stop offset="1" stop-color="#101721"/>
</radialGradient>
<clipPath id="clip0_32_4710">
<rect width="2560" height="510" fill="white"/>
</clipPath>
</defs>
</svg>
