<svg width="24" height="24" viewBox="0 0 24 24" fill="current" xmlns="http://www.w3.org/2000/svg">
<path fill-rule="evenodd" clip-rule="evenodd" d="M3.00213 4C2.44985 4 2.00213 4.44772 2.00213 5V13.7628C2.00072 13.7845 2 13.8063 2 13.8281V20.7929C2 21.1958 2.24177 21.5594 2.61333 21.7151C2.98488 21.8709 3.41363 21.7885 3.70097 21.5061L6.74918 18.5102H20.8738C21.4261 18.5102 21.8738 18.0625 21.8738 17.5102V5C21.8738 4.44772 21.4261 4 20.8738 4H3.00213ZM4 18.4079V13.8941C4.00142 13.8725 4.00213 13.8507 4.00213 13.8288V6H19.8738V16.5102H6.34002C6.0778 16.5102 5.82607 16.6132 5.63905 16.797L4 18.4079ZM8.9375 10H6.9375V12H8.9375V10ZM10.9375 10H12.9375V12H10.9375V10ZM16.9375 10H14.9375V12H16.9375V10Z" fill="current"/>
</svg>
