<svg width="24" height="24" viewBox="0 0 24 24" fill="current" xmlns="http://www.w3.org/2000/svg">
<path fill-rule="evenodd" clip-rule="evenodd" d="M15.5556 4C15.5556 3.64568 15.3681 3.31781 15.0627 3.13813C14.7573 2.95844 14.3796 2.95377 14.0699 3.12584L6.29643 7.44444H3C2.44772 7.44444 2 7.89216 2 8.44444V15.5556C2 16.1078 2.44772 16.5556 3 16.5556H6.29643L14.0699 20.8742C14.3796 21.0462 14.7573 21.0416 15.0627 20.8619C15.3681 20.6822 15.5556 20.3543 15.5556 20V4ZM7.0412 9.3186L13.5556 5.69951V18.3005L7.0412 14.6814C6.89264 14.5989 6.7255 14.5556 6.55556 14.5556H4V9.44444H6.55556C6.7255 9.44444 6.89264 9.40113 7.0412 9.3186ZM22.2812 11H18.2812V13H22.2812V11ZM17.2812 7L20.7454 5L21.7454 6.73205L18.2812 8.73205L17.2812 7ZM21.7454 17L18.2812 15L17.2812 16.7321L20.7454 18.7321L21.7454 17Z" fill="current"/>
</svg>
