<svg width="400" height="282" viewBox="0 0 400 282" fill="none" xmlns="http://www.w3.org/2000/svg">
<g clip-path="url(#clip0_143_5266)">
<rect x="102.5" y="80.5" width="378" height="378" rx="2.5" stroke="url(#paint0_linear_143_5266)"/>
<rect x="145.5" y="123.5" width="292" height="292" rx="2.5" stroke="url(#paint1_linear_143_5266)"/>
<rect x="178.5" y="156.5" width="226" height="226" rx="2.5" stroke="url(#paint2_linear_143_5266)"/>
<rect x="198.5" y="176.5" width="186" height="186" rx="2.5" stroke="url(#paint3_linear_143_5266)"/>
<rect x="213.5" y="191.5" width="156" height="156" rx="2.5" stroke="url(#paint4_linear_143_5266)"/>
<rect x="223.5" y="201.5" width="136" height="136" rx="2.5" stroke="url(#paint5_linear_143_5266)"/>
<rect x="231.5" y="209.5" width="120" height="120" rx="2.5" stroke="url(#paint6_linear_143_5266)"/>
<rect x="238.5" y="216.5" width="106" height="106" rx="2.5" stroke="url(#paint7_linear_143_5266)"/>
<rect x="244.5" y="222.5" width="94" height="94" rx="2.5" stroke="url(#paint8_linear_143_5266)"/>
</g>
<defs>
<linearGradient id="paint0_linear_143_5266" x1="291.5" y1="80" x2="291.5" y2="459" gradientUnits="userSpaceOnUse">
<stop stop-color="#359EFF"/>
<stop offset="0.515625" stop-color="#AF6AFE"/>
</linearGradient>
<linearGradient id="paint1_linear_143_5266" x1="291.5" y1="123" x2="291.5" y2="416" gradientUnits="userSpaceOnUse">
<stop stop-color="#359EFF"/>
<stop offset="0.515625" stop-color="#AF6AFE"/>
</linearGradient>
<linearGradient id="paint2_linear_143_5266" x1="291.5" y1="156" x2="291.5" y2="383" gradientUnits="userSpaceOnUse">
<stop stop-color="#359EFF"/>
<stop offset="0.515625" stop-color="#AF6AFE"/>
</linearGradient>
<linearGradient id="paint3_linear_143_5266" x1="291.5" y1="176" x2="291.5" y2="363" gradientUnits="userSpaceOnUse">
<stop stop-color="#359EFF"/>
<stop offset="0.515625" stop-color="#AF6AFE"/>
</linearGradient>
<linearGradient id="paint4_linear_143_5266" x1="291.5" y1="191" x2="291.5" y2="348" gradientUnits="userSpaceOnUse">
<stop stop-color="#359EFF"/>
<stop offset="0.515625" stop-color="#AF6AFE"/>
</linearGradient>
<linearGradient id="paint5_linear_143_5266" x1="291.5" y1="201" x2="291.5" y2="338" gradientUnits="userSpaceOnUse">
<stop stop-color="#359EFF"/>
<stop offset="0.515625" stop-color="#AF6AFE"/>
</linearGradient>
<linearGradient id="paint6_linear_143_5266" x1="291.5" y1="209" x2="291.5" y2="330" gradientUnits="userSpaceOnUse">
<stop stop-color="#359EFF"/>
<stop offset="0.515625" stop-color="#AF6AFE"/>
</linearGradient>
<linearGradient id="paint7_linear_143_5266" x1="291.5" y1="216" x2="291.5" y2="323" gradientUnits="userSpaceOnUse">
<stop stop-color="#359EFF"/>
<stop offset="0.515625" stop-color="#AF6AFE"/>
</linearGradient>
<linearGradient id="paint8_linear_143_5266" x1="291.5" y1="222" x2="291.5" y2="317" gradientUnits="userSpaceOnUse">
<stop stop-color="#359EFF"/>
<stop offset="0.515625" stop-color="#AF6AFE"/>
</linearGradient>
<clipPath id="clip0_143_5266">
<path d="M0 0H400V278C400 280.209 398.209 282 396 282H4C1.79086 282 0 280.209 0 278V0Z" fill="white"/>
</clipPath>
</defs>
</svg>
