<svg width="400" height="282" viewBox="0 0 400 282" fill="none" xmlns="http://www.w3.org/2000/svg">
<g clip-path="url(#clip0_16_2798)">
<mask id="path-2-inside-1_16_2798" fill="white">
<path fill-rule="evenodd" clip-rule="evenodd" d="M316.72 189.474C316.719 189.474 316.719 189.475 316.719 189.476L316.719 328.499C316.719 330.156 315.375 331.499 313.719 331.499L141.86 331.499C140.203 331.499 138.86 330.156 138.86 328.499L138.86 189.474C138.86 189.474 138.861 189.473 138.862 189.473C138.862 189.473 138.863 189.472 138.863 189.472C139.169 166.845 121.58 116.402 95.7607 86.2482C94.0351 84.2329 95.4309 81.0003 98.084 81.0003L143.424 81.0003L227.792 81.0003L311.835 81.0003L357.175 81.0004C359.828 81.0004 361.224 84.2334 359.5 86.2499C333.714 116.405 316.415 166.847 316.721 189.473C316.721 189.474 316.721 189.474 316.72 189.474Z"/>
</mask>
<path d="M143.424 81.0003L143.424 82.0003L143.424 81.0003ZM227.792 81.0003L227.792 80.0003L227.792 81.0003ZM311.835 81.0003L311.835 80.0003L311.835 81.0003ZM316.721 189.473L315.721 189.487L316.721 189.473ZM95.7607 86.2482L95.0011 86.8986L95.7607 86.2482ZM98.084 81.0003L98.084 80.0003L98.084 81.0003ZM138.863 189.472L139.863 189.485L138.863 189.472ZM315.719 189.476L315.719 328.499L317.719 328.499L317.719 189.476L315.719 189.476ZM313.719 330.499L141.86 330.499L141.86 332.499L313.719 332.499L313.719 330.499ZM139.86 328.499L139.86 189.474L137.86 189.474L137.86 328.499L139.86 328.499ZM139.863 189.485C140.019 177.978 135.643 159.567 128.039 140.315C120.426 121.041 109.524 100.785 96.5203 85.5978L95.0011 86.8986C107.817 101.866 118.618 121.908 126.179 141.05C133.748 160.214 138.013 178.338 137.863 189.458L139.863 189.485ZM98.084 82.0003L143.424 82.0003L143.424 80.0003L98.084 80.0003L98.084 82.0003ZM143.424 82.0003L227.792 82.0003L227.792 80.0003L143.424 80.0003L143.424 82.0003ZM227.792 82.0003L311.835 82.0003L311.835 80.0003L227.792 80.0003L227.792 82.0003ZM311.835 82.0003L357.175 82.0004L357.175 80.0004L311.835 80.0003L311.835 82.0003ZM358.74 85.5999C345.752 100.789 334.93 121.046 327.395 140.321C319.867 159.574 315.566 177.983 315.721 189.487L317.721 189.459C317.571 178.337 321.765 160.212 329.257 141.049C336.741 121.907 347.462 101.866 360.26 86.8998L358.74 85.5999ZM315.721 189.487C315.713 188.878 316.216 188.474 316.72 188.474L316.72 190.474C317.225 190.474 317.729 190.069 317.721 189.459L315.721 189.487ZM357.175 82.0004C358.916 82.0004 359.947 84.188 358.74 85.5999L360.26 86.8998C362.501 84.2789 360.74 80.0004 357.175 80.0004L357.175 82.0004ZM96.5203 85.5978C95.3126 84.1874 96.3423 82.0003 98.084 82.0003L98.084 80.0003C94.5194 80.0003 92.7576 84.2785 95.0011 86.8986L96.5203 85.5978ZM138.862 190.473C139.358 190.473 139.855 190.083 139.863 189.485L137.863 189.458C137.871 188.862 138.367 188.473 138.862 188.473L138.862 190.473ZM139.86 189.474C139.86 190.027 139.413 190.473 138.862 190.473L138.862 188.473C138.309 188.473 137.86 188.921 137.86 189.474L139.86 189.474ZM141.86 330.499C140.756 330.499 139.86 329.604 139.86 328.499L137.86 328.499C137.86 330.708 139.651 332.499 141.86 332.499L141.86 330.499ZM315.719 328.499C315.719 329.604 314.823 330.499 313.719 330.499L313.719 332.499C315.928 332.499 317.719 330.708 317.719 328.499L315.719 328.499ZM317.719 189.476C317.719 190.027 317.271 190.474 316.72 190.474L316.72 188.474C316.167 188.474 315.719 188.923 315.719 189.476L317.719 189.476Z" fill="url(#paint0_angular_16_2798)" mask="url(#path-2-inside-1_16_2798)"/>
<mask id="path-4-inside-2_16_2798" fill="white">
<path fill-rule="evenodd" clip-rule="evenodd" d="M316.72 189.474C316.719 189.474 316.719 189.475 316.719 189.476L316.719 328.499C316.719 330.156 315.375 331.499 313.719 331.499L141.86 331.499C140.203 331.499 138.86 330.156 138.86 328.499L138.86 189.474C138.86 189.474 138.861 189.473 138.862 189.473C138.862 189.473 138.863 189.472 138.863 189.472C139.169 166.845 121.58 116.402 95.7607 86.2482C94.0351 84.2329 95.4309 81.0003 98.084 81.0003L143.424 81.0003L227.792 81.0003L311.835 81.0003L357.175 81.0004C359.828 81.0004 361.224 84.2334 359.5 86.2499C333.714 116.405 316.415 166.847 316.721 189.473C316.721 189.474 316.721 189.474 316.72 189.474Z"/>
</mask>
<path d="M143.424 81.0003L143.424 82.0003L143.424 81.0003ZM227.792 81.0003L227.792 80.0003L227.792 81.0003ZM311.835 81.0003L311.835 80.0003L311.835 81.0003ZM316.721 189.473L315.721 189.487L316.721 189.473ZM95.7607 86.2482L95.0011 86.8986L95.7607 86.2482ZM98.084 81.0003L98.084 80.0003L98.084 81.0003ZM138.863 189.472L139.863 189.485L138.863 189.472ZM315.719 189.476L315.719 328.499L317.719 328.499L317.719 189.476L315.719 189.476ZM313.719 330.499L141.86 330.499L141.86 332.499L313.719 332.499L313.719 330.499ZM139.86 328.499L139.86 189.474L137.86 189.474L137.86 328.499L139.86 328.499ZM139.863 189.485C140.019 177.978 135.643 159.567 128.039 140.315C120.426 121.041 109.524 100.785 96.5203 85.5978L95.0011 86.8986C107.817 101.866 118.618 121.908 126.179 141.05C133.748 160.214 138.013 178.338 137.863 189.458L139.863 189.485ZM98.084 82.0003L143.424 82.0003L143.424 80.0003L98.084 80.0003L98.084 82.0003ZM143.424 82.0003L227.792 82.0003L227.792 80.0003L143.424 80.0003L143.424 82.0003ZM227.792 82.0003L311.835 82.0003L311.835 80.0003L227.792 80.0003L227.792 82.0003ZM311.835 82.0003L357.175 82.0004L357.175 80.0004L311.835 80.0003L311.835 82.0003ZM358.74 85.5999C345.752 100.789 334.93 121.046 327.395 140.321C319.867 159.574 315.566 177.983 315.721 189.487L317.721 189.459C317.571 178.337 321.765 160.212 329.257 141.049C336.741 121.907 347.462 101.866 360.26 86.8998L358.74 85.5999ZM315.721 189.487C315.713 188.878 316.216 188.474 316.72 188.474L316.72 190.474C317.225 190.474 317.729 190.069 317.721 189.459L315.721 189.487ZM357.175 82.0004C358.916 82.0004 359.947 84.188 358.74 85.5999L360.26 86.8998C362.501 84.2789 360.74 80.0004 357.175 80.0004L357.175 82.0004ZM96.5203 85.5978C95.3126 84.1874 96.3423 82.0003 98.084 82.0003L98.084 80.0003C94.5194 80.0003 92.7576 84.2785 95.0011 86.8986L96.5203 85.5978ZM138.862 190.473C139.358 190.473 139.855 190.083 139.863 189.485L137.863 189.458C137.871 188.862 138.367 188.473 138.862 188.473L138.862 190.473ZM139.86 189.474C139.86 190.027 139.413 190.473 138.862 190.473L138.862 188.473C138.309 188.473 137.86 188.921 137.86 189.474L139.86 189.474ZM141.86 330.499C140.756 330.499 139.86 329.604 139.86 328.499L137.86 328.499C137.86 330.708 139.651 332.499 141.86 332.499L141.86 330.499ZM315.719 328.499C315.719 329.604 314.823 330.499 313.719 330.499L313.719 332.499C315.928 332.499 317.719 330.708 317.719 328.499L315.719 328.499ZM317.719 189.476C317.719 190.027 317.271 190.474 316.72 190.474L316.72 188.474C316.167 188.474 315.719 188.923 315.719 189.476L317.719 189.476Z" fill="url(#paint1_angular_16_2798)" mask="url(#path-4-inside-2_16_2798)"/>
<mask id="path-6-inside-3_16_2798" fill="white">
<path fill-rule="evenodd" clip-rule="evenodd" d="M337.24 189.474C337.24 189.474 337.239 189.475 337.239 189.475L337.239 328.499C337.239 330.156 335.896 331.499 334.239 331.499L162.381 331.499C160.724 331.499 159.381 330.156 159.381 328.499L159.381 189.474C159.381 189.473 159.381 189.473 159.382 189.473C159.382 189.473 159.383 189.473 159.383 189.472C159.689 166.846 142.1 116.402 116.28 86.2482C114.555 84.2329 115.95 81.0003 118.603 81.0003L163.943 81.0003L248.312 81.0003L332.355 81.0004L377.694 81.0004C380.347 81.0004 381.743 84.2334 380.019 86.2499C354.233 116.405 336.934 166.848 337.241 189.474C337.241 189.474 337.24 189.474 337.24 189.474Z"/>
</mask>
<path d="M248.312 81.0003L248.312 80.0003L248.312 81.0003ZM332.355 81.0004L332.355 82.0004L332.355 81.0004ZM337.241 189.474L338.241 189.46L337.241 189.474ZM377.694 81.0004L377.694 80.0004L377.694 81.0004ZM380.019 86.2499L379.259 85.5999L380.019 86.2499ZM116.28 86.2482L117.04 85.5978L116.28 86.2482ZM159.383 189.472L158.383 189.459L159.383 189.472ZM336.239 189.475L336.239 328.499L338.239 328.499L338.239 189.475L336.239 189.475ZM334.239 330.499L162.381 330.499L162.381 332.499L334.239 332.499L334.239 330.499ZM160.381 328.499L160.381 189.474L158.381 189.474L158.381 328.499L160.381 328.499ZM160.382 189.486C160.538 177.979 156.162 159.568 148.558 140.316C140.946 121.041 130.044 100.785 117.04 85.5978L115.521 86.8986C128.336 101.866 139.138 121.908 146.698 141.05C154.267 160.215 158.533 178.339 158.383 189.459L160.382 189.486ZM118.603 82.0003L163.943 82.0003L163.943 80.0003L118.603 80.0003L118.603 82.0003ZM163.943 82.0003L248.312 82.0003L248.312 80.0003L163.943 80.0003L163.943 82.0003ZM248.312 82.0003L332.355 82.0004L332.355 80.0004L248.312 80.0003L248.312 82.0003ZM332.355 82.0004L377.694 82.0004L377.694 80.0004L332.355 80.0004L332.355 82.0004ZM379.259 85.5999C366.271 100.789 355.449 121.046 347.914 140.321C340.387 159.574 336.085 177.983 336.241 189.487L338.241 189.46C338.09 178.338 342.284 160.213 349.777 141.049C357.26 121.907 367.981 101.866 380.779 86.8998L379.259 85.5999ZM336.241 189.487C336.233 188.881 336.733 188.474 337.24 188.474L337.24 190.474C337.748 190.474 338.249 190.067 338.241 189.46L336.241 189.487ZM377.694 82.0004C379.435 82.0004 380.466 84.188 379.259 85.5999L380.779 86.8998C383.02 84.2789 381.259 80.0004 377.694 80.0004L377.694 82.0004ZM117.04 85.5978C115.832 84.1874 116.862 82.0003 118.603 82.0003L118.603 80.0003C115.039 80.0003 113.277 84.2785 115.521 86.8986L117.04 85.5978ZM159.382 190.473C159.878 190.473 160.374 190.083 160.382 189.486L158.383 189.459C158.391 188.862 158.886 188.473 159.382 188.473L159.382 190.473ZM160.381 189.474C160.381 190.039 159.92 190.473 159.382 190.473L159.382 188.473C158.843 188.473 158.381 188.908 158.381 189.474L160.381 189.474ZM162.381 330.499C161.277 330.499 160.381 329.604 160.381 328.499L158.381 328.499C158.381 330.708 160.172 332.499 162.381 332.499L162.381 330.499ZM336.239 328.499C336.239 329.604 335.344 330.499 334.239 330.499L334.239 332.499C336.448 332.499 338.239 330.708 338.239 328.499L336.239 328.499ZM338.239 189.475C338.239 190.027 337.792 190.474 337.24 190.474L337.24 188.474C336.687 188.474 336.239 188.922 336.239 189.475L338.239 189.475Z" fill="url(#paint2_angular_16_2798)" mask="url(#path-6-inside-3_16_2798)"/>
<mask id="path-8-inside-4_16_2798" fill="white">
<path fill-rule="evenodd" clip-rule="evenodd" d="M136.187 81.0003C133.534 81.0003 132.138 84.2329 133.864 86.2482C159.684 116.403 177.273 166.847 176.966 189.473C176.966 189.474 176.967 189.474 176.967 189.474C176.968 189.474 176.968 189.475 176.968 189.475L176.968 328.499C176.968 330.156 178.311 331.499 179.968 331.499L351.826 331.499C353.483 331.499 354.826 330.156 354.826 328.499L354.826 189.474C354.826 189.473 354.826 189.473 354.825 189.473C354.825 189.473 354.824 189.473 354.824 189.472C354.518 166.846 371.817 116.404 397.603 86.2499C399.327 84.2334 397.931 81.0004 395.278 81.0004L349.938 81.0003L265.895 81.0003L181.527 81.0003L136.187 81.0003Z"/>
</mask>
<path d="M349.938 81.0003L349.938 80.0003L349.938 81.0003ZM265.895 81.0003L265.895 80.0003L265.895 81.0003ZM181.527 81.0003L181.527 82.0003L181.527 81.0003ZM397.603 86.2499L398.363 86.8998L397.603 86.2499ZM395.278 81.0004L395.278 82.0004L395.278 81.0004ZM354.824 189.472L355.824 189.459L354.824 189.472ZM133.864 86.2482L133.104 86.8986L133.864 86.2482ZM136.187 81.0003L136.187 80.0003L136.187 81.0003ZM176.966 189.473L175.966 189.46L176.966 189.473ZM177.966 189.487C178.122 177.98 173.746 159.569 166.143 140.317C158.53 121.042 147.627 100.785 134.623 85.5978L133.104 86.8986C145.92 101.866 156.722 121.909 164.282 141.051C171.852 160.216 176.117 178.34 175.966 189.46L177.966 189.487ZM177.968 328.499L177.968 189.475L175.968 189.475L175.968 328.499L177.968 328.499ZM351.826 330.499L179.968 330.499L179.968 332.499L351.826 332.499L351.826 330.499ZM353.826 189.474L353.826 328.499L355.826 328.499L355.826 189.474L353.826 189.474ZM396.843 85.5999C383.855 100.788 373.034 121.046 365.498 140.32C357.971 159.573 353.669 177.982 353.824 189.486L355.824 189.459C355.674 178.336 359.869 160.211 367.361 141.048C374.844 121.906 385.565 101.866 398.363 86.8998L396.843 85.5999ZM349.938 82.0003L395.278 82.0004L395.278 80.0004L349.938 80.0003L349.938 82.0003ZM265.895 82.0003L349.938 82.0003L349.938 80.0003L265.895 80.0003L265.895 82.0003ZM181.527 82.0003L265.895 82.0003L265.895 80.0003L181.527 80.0003L181.527 82.0003ZM136.187 82.0003L181.527 82.0003L181.527 80.0003L136.187 80.0003L136.187 82.0003ZM398.363 86.8998C400.604 84.2789 398.843 80.0004 395.278 80.0004L395.278 82.0004C397.019 82.0004 398.05 84.188 396.843 85.5999L398.363 86.8998ZM354.825 188.473C355.321 188.473 355.816 188.863 355.824 189.459L353.824 189.486C353.833 190.082 354.329 190.473 354.825 190.473L354.825 188.473ZM355.826 189.474C355.826 188.921 355.378 188.473 354.825 188.473L354.825 190.473C354.274 190.473 353.826 190.026 353.826 189.474L355.826 189.474ZM351.826 332.499C354.035 332.499 355.826 330.708 355.826 328.499L353.826 328.499C353.826 329.604 352.931 330.499 351.826 330.499L351.826 332.499ZM175.968 328.499C175.968 330.708 177.759 332.499 179.968 332.499L179.968 330.499C178.864 330.499 177.968 329.604 177.968 328.499L175.968 328.499ZM176.967 190.474C176.406 190.474 175.968 190.018 175.968 189.475L177.968 189.475C177.968 188.932 177.529 188.474 176.967 188.474L176.967 190.474ZM134.623 85.5978C133.416 84.1874 134.445 82.0003 136.187 82.0003L136.187 80.0003C132.623 80.0003 130.861 84.2785 133.104 86.8986L134.623 85.5978ZM175.966 189.46C175.958 190.07 176.462 190.474 176.967 190.474L176.967 188.474C177.471 188.474 177.974 188.878 177.966 189.487L175.966 189.46Z" fill="url(#paint3_angular_16_2798)" mask="url(#path-8-inside-4_16_2798)"/>
<mask id="path-10-inside-5_16_2798" fill="white">
<path fill-rule="evenodd" clip-rule="evenodd" d="M149.214 81.0003C146.561 81.0003 145.165 84.2329 146.891 86.2482C172.711 116.403 190.3 166.846 189.993 189.473C189.993 189.474 189.994 189.474 189.995 189.474C189.996 189.474 189.997 189.475 189.997 189.476L189.997 328.499C189.997 330.156 191.34 331.499 192.997 331.499L364.855 331.499C366.512 331.499 367.855 330.156 367.855 328.499L367.855 189.475C367.855 189.474 367.854 189.473 367.853 189.473C367.852 189.473 367.852 189.472 367.852 189.471C367.546 166.845 384.845 116.404 410.63 86.2499C412.354 84.2334 410.958 81.0004 408.305 81.0004L362.965 81.0003L278.923 81.0003L194.554 81.0003L149.214 81.0003Z"/>
</mask>
<path d="M362.965 81.0003L362.965 80.0003L362.965 81.0003ZM278.923 81.0003L278.923 80.0003L278.923 81.0003ZM194.554 81.0003L194.554 82.0003L194.554 81.0003ZM410.63 86.2499L411.39 86.8998L410.63 86.2499ZM367.852 189.471L366.852 189.485L367.852 189.471ZM146.891 86.2482L146.131 86.8986L146.891 86.2482ZM149.214 81.0003L149.214 80.0003L149.214 81.0003ZM189.993 189.473L188.994 189.459L189.993 189.473ZM190.993 189.486C191.149 177.98 186.773 159.568 179.17 140.316C171.557 121.042 160.655 100.785 147.651 85.5978L146.131 86.8986C158.947 101.866 169.749 121.908 177.309 141.051C184.879 160.216 189.144 178.34 188.994 189.459L190.993 189.486ZM190.997 328.499L190.997 189.476L188.997 189.476L188.997 328.499L190.997 328.499ZM364.855 330.499L192.997 330.499L192.997 332.499L364.855 332.499L364.855 330.499ZM366.855 189.475L366.855 328.499L368.855 328.499L368.855 189.475L366.855 189.475ZM409.87 85.5999C396.882 100.788 386.061 121.045 378.525 140.319C370.998 159.572 366.696 177.981 366.852 189.485L368.852 189.458C368.701 178.336 372.896 160.21 380.388 141.048C387.872 121.906 398.592 101.866 411.39 86.8998L409.87 85.5999ZM362.965 82.0003L408.305 82.0004L408.305 80.0004L362.965 80.0003L362.965 82.0003ZM278.923 82.0003L362.965 82.0003L362.965 80.0003L278.923 80.0003L278.923 82.0003ZM194.554 82.0003L278.923 82.0003L278.923 80.0003L194.554 80.0003L194.554 82.0003ZM149.214 82.0003L194.554 82.0003L194.554 80.0003L149.214 80.0003L149.214 82.0003ZM411.39 86.8998C413.631 84.2789 411.87 80.0004 408.305 80.0004L408.305 82.0004C410.046 82.0004 411.077 84.188 409.87 85.5999L411.39 86.8998ZM367.853 188.473C368.351 188.473 368.844 188.864 368.852 189.458L366.852 189.485C366.86 190.08 367.354 190.473 367.853 190.473L367.853 188.473ZM368.855 189.475C368.855 188.921 368.406 188.473 367.853 188.473L367.853 190.473C367.302 190.473 366.855 190.026 366.855 189.475L368.855 189.475ZM364.855 332.499C367.064 332.499 368.855 330.708 368.855 328.499L366.855 328.499C366.855 329.604 365.959 330.499 364.855 330.499L364.855 332.499ZM188.997 328.499C188.997 330.708 190.788 332.499 192.997 332.499L192.997 330.499C191.892 330.499 190.997 329.604 190.997 328.499L188.997 328.499ZM189.995 190.474C189.45 190.474 188.997 190.034 188.997 189.476L190.997 189.476C190.997 188.916 190.541 188.474 189.995 188.474L189.995 190.474ZM147.651 85.5978C146.443 84.1874 147.473 82.0003 149.214 82.0003L149.214 80.0003C145.65 80.0003 143.888 84.2785 146.131 86.8986L147.651 85.5978ZM188.994 189.459C188.985 190.069 189.49 190.474 189.995 190.474L189.995 188.474C190.499 188.474 191.002 188.878 190.993 189.486L188.994 189.459Z" fill="url(#paint4_angular_16_2798)" mask="url(#path-10-inside-5_16_2798)"/>
<mask id="path-12-inside-6_16_2798" fill="white">
<path fill-rule="evenodd" clip-rule="evenodd" d="M159.642 81.0003C156.989 81.0003 155.593 84.2329 157.319 86.2482C183.139 116.403 200.728 166.848 200.421 189.474C200.421 189.474 200.422 189.474 200.422 189.474C200.422 189.474 200.423 189.475 200.423 189.475L200.423 328.499C200.423 330.156 201.766 331.499 203.423 331.499L375.281 331.499C376.938 331.499 378.281 330.156 378.281 328.499L378.281 189.474C378.281 189.473 378.281 189.473 378.28 189.473C378.28 189.473 378.28 189.473 378.28 189.472C377.974 166.846 395.272 116.404 421.058 86.2499C422.782 84.2334 421.386 81.0004 418.733 81.0004L373.393 81.0003L289.351 81.0003L204.982 81.0003L159.642 81.0003Z"/>
</mask>
<path d="M373.393 81.0003L373.393 80.0003L373.393 81.0003ZM289.351 81.0003L289.351 80.0003L289.351 81.0003ZM421.058 86.2499L421.818 86.8998L421.058 86.2499ZM418.733 81.0004L418.733 82.0004L418.733 81.0004ZM378.28 189.472L377.28 189.486L378.28 189.472ZM157.319 86.2482L156.559 86.8986L157.319 86.2482ZM200.421 189.474L201.421 189.487L200.421 189.474ZM201.421 189.487C201.577 177.981 197.202 159.569 189.598 140.317C181.985 121.042 171.083 100.785 158.079 85.5978L156.559 86.8986C169.375 101.866 180.177 121.909 187.738 141.052C195.307 160.217 199.572 178.341 199.422 189.46L201.421 189.487ZM201.423 328.499L201.423 189.475L199.423 189.475L199.423 328.499L201.423 328.499ZM375.281 330.499L203.423 330.499L203.423 332.499L375.281 332.499L375.281 330.499ZM377.281 189.474L377.281 328.499L379.281 328.499L379.281 189.474L377.281 189.474ZM420.298 85.5999C407.31 100.788 396.489 121.046 388.953 140.32C381.426 159.573 377.124 177.982 377.28 189.486L379.28 189.459C379.129 178.337 383.324 160.212 390.816 141.048C398.3 121.907 409.02 101.866 421.818 86.8998L420.298 85.5999ZM373.393 82.0003L418.733 82.0004L418.733 80.0004L373.393 80.0003L373.393 82.0003ZM289.351 82.0003L373.393 82.0003L373.393 80.0003L289.351 80.0003L289.351 82.0003ZM204.982 82.0003L289.351 82.0003L289.351 80.0003L204.982 80.0003L204.982 82.0003ZM159.642 82.0003L204.982 82.0003L204.982 80.0003L159.642 80.0003L159.642 82.0003ZM421.818 86.8998C424.059 84.2789 422.298 80.0004 418.733 80.0004L418.733 82.0004C420.474 82.0004 421.505 84.188 420.298 85.5999L421.818 86.8998ZM378.28 188.473C378.768 188.473 379.271 188.855 379.28 189.459L377.28 189.486C377.288 190.091 377.792 190.473 378.28 190.473L378.28 188.473ZM379.281 189.474C379.281 188.921 378.833 188.473 378.28 188.473L378.28 190.473C377.728 190.473 377.281 190.026 377.281 189.474L379.281 189.474ZM375.281 332.499C377.49 332.499 379.281 330.708 379.281 328.499L377.281 328.499C377.281 329.604 376.385 330.499 375.281 330.499L375.281 332.499ZM199.423 328.499C199.423 330.708 201.213 332.499 203.423 332.499L203.423 330.499C202.318 330.499 201.423 329.604 201.423 328.499L199.423 328.499ZM200.422 190.474C199.896 190.474 199.423 190.053 199.423 189.475L201.423 189.475C201.423 188.896 200.948 188.474 200.422 188.474L200.422 190.474ZM158.079 85.5978C156.871 84.1874 157.901 82.0003 159.642 82.0003L159.642 80.0003C156.078 80.0003 154.316 84.2785 156.559 86.8986L158.079 85.5978ZM199.422 189.46C199.413 190.07 199.917 190.474 200.422 190.474L200.422 188.474C200.926 188.474 201.43 188.879 201.421 189.487L199.422 189.46Z" fill="url(#paint5_angular_16_2798)" mask="url(#path-12-inside-6_16_2798)"/>
<mask id="path-14-inside-7_16_2798" fill="white">
<path fill-rule="evenodd" clip-rule="evenodd" d="M387.407 189.474C387.406 189.474 387.406 189.475 387.406 189.476L387.406 328.499C387.406 330.156 386.062 331.499 384.406 331.499L212.547 331.499C210.89 331.499 209.547 330.156 209.547 328.499L209.547 189.474C209.547 189.474 209.548 189.473 209.549 189.473C209.549 189.473 209.55 189.472 209.55 189.472C209.856 166.845 192.267 116.402 166.447 86.2482C164.722 84.2329 166.118 81.0003 168.771 81.0003L214.11 81.0003L298.479 81.0003L382.522 81.0003L427.861 81.0004C430.515 81.0004 431.911 84.2334 430.186 86.2499C404.401 116.405 387.102 166.847 387.408 189.473C387.408 189.474 387.408 189.474 387.407 189.474Z"/>
</mask>
<path d="M298.479 81.0003L298.479 80.0003L298.479 81.0003ZM382.522 81.0003L382.522 80.0003L382.522 81.0003ZM387.408 189.473L386.408 189.487L387.408 189.473ZM430.186 86.2499L430.946 86.8998L430.186 86.2499ZM166.447 86.2482L167.207 85.5978L166.447 86.2482ZM209.55 189.472L210.55 189.485L209.55 189.472ZM386.406 189.476L386.406 328.499L388.406 328.499L388.406 189.476L386.406 189.476ZM384.406 330.499L212.547 330.499L212.547 332.499L384.406 332.499L384.406 330.499ZM210.547 328.499L210.547 189.474L208.547 189.474L208.547 328.499L210.547 328.499ZM210.55 189.485C210.705 177.978 206.329 159.567 198.726 140.315C191.113 121.041 180.211 100.785 167.207 85.5978L165.688 86.8986C178.503 101.866 189.305 121.908 196.865 141.05C204.435 160.215 208.7 178.338 208.55 189.458L210.55 189.485ZM168.771 82.0003L214.11 82.0003L214.11 80.0003L168.771 80.0003L168.771 82.0003ZM214.11 82.0003L298.479 82.0003L298.479 80.0003L214.11 80.0003L214.11 82.0003ZM298.479 82.0003L382.522 82.0003L382.522 80.0003L298.479 80.0003L298.479 82.0003ZM382.522 82.0003L427.861 82.0004L427.861 80.0004L382.522 80.0003L382.522 82.0003ZM429.426 85.5999C416.438 100.789 405.617 121.046 398.081 140.321C390.554 159.574 386.252 177.983 386.408 189.487L388.408 189.46C388.257 178.338 392.452 160.212 399.944 141.049C407.428 121.907 418.149 101.866 430.946 86.8998L429.426 85.5999ZM386.408 189.487C386.4 188.876 386.905 188.474 387.407 188.474L387.407 190.474C387.91 190.474 388.416 190.071 388.408 189.46L386.408 189.487ZM427.861 82.0004C429.603 82.0004 430.634 84.188 429.426 85.5999L430.946 86.8998C433.188 84.2789 431.426 80.0004 427.861 80.0004L427.861 82.0004ZM167.207 85.5978C165.999 84.1874 167.029 82.0003 168.771 82.0003L168.771 80.0003C165.206 80.0003 163.444 84.2785 165.688 86.8986L167.207 85.5978ZM209.549 190.473C210.045 190.473 210.542 190.083 210.55 189.485L208.55 189.458C208.558 188.862 209.053 188.473 209.549 188.473L209.549 190.473ZM210.547 189.474C210.547 190.031 210.095 190.473 209.549 190.473L209.549 188.473C209 188.473 208.547 188.916 208.547 189.474L210.547 189.474ZM212.547 330.499C211.443 330.499 210.547 329.604 210.547 328.499L208.547 328.499C208.547 330.708 210.338 332.499 212.547 332.499L212.547 330.499ZM386.406 328.499C386.406 329.604 385.51 330.499 384.406 330.499L384.406 332.499C386.615 332.499 388.406 330.708 388.406 328.499L386.406 328.499ZM388.406 189.476C388.406 190.027 387.958 190.474 387.407 190.474L387.407 188.474C386.854 188.474 386.406 188.923 386.406 189.476L388.406 189.476Z" fill="url(#paint6_angular_16_2798)" mask="url(#path-14-inside-7_16_2798)"/>
<mask id="path-16-inside-8_16_2798" fill="white">
<path fill-rule="evenodd" clip-rule="evenodd" d="M395.221 189.474C395.221 189.474 395.221 189.474 395.221 189.474L395.221 328.499C395.221 330.156 393.878 331.499 392.221 331.499L220.363 331.499C218.706 331.499 217.363 330.156 217.363 328.499L217.363 189.473C217.363 189.473 217.363 189.473 217.363 189.473C217.363 189.473 217.363 189.473 217.363 189.473C217.669 166.847 200.08 116.403 174.261 86.2482C172.535 84.2329 173.931 81.0003 176.584 81.0003L221.924 81.0003L306.292 81.0003L390.335 81.0004L435.675 81.0004C438.328 81.0004 439.724 84.2334 438 86.2499C412.213 116.405 394.914 166.849 395.221 189.474C395.221 189.474 395.221 189.474 395.221 189.474Z"/>
</mask>
<path d="M306.292 81.0003L306.292 80.0003L306.292 81.0003ZM390.335 81.0004L390.335 82.0004L390.335 81.0004ZM395.221 189.474L396.221 189.461L395.221 189.474ZM435.675 81.0004L435.675 80.0004L435.675 81.0004ZM438 86.2499L437.24 85.5999L438 86.2499ZM174.261 86.2482L175.02 85.5978L174.261 86.2482ZM217.363 189.473L218.363 189.486L217.363 189.473ZM394.221 189.474L394.221 328.499L396.221 328.499L396.221 189.474L394.221 189.474ZM392.221 330.499L220.363 330.499L220.363 332.499L392.221 332.499L392.221 330.499ZM218.363 328.499L218.363 189.473L216.363 189.473L216.363 328.499L218.363 328.499ZM218.363 189.486C218.519 177.98 214.143 159.569 206.539 140.316C198.927 121.042 188.024 100.785 175.02 85.5978L173.501 86.8986C186.317 101.866 197.119 121.909 204.679 141.051C212.248 160.216 216.514 178.34 216.363 189.459L218.363 189.486ZM176.584 82.0003L221.924 82.0003L221.924 80.0003L176.584 80.0003L176.584 82.0003ZM221.924 82.0003L306.292 82.0003L306.292 80.0003L221.924 80.0003L221.924 82.0003ZM306.292 82.0003L390.335 82.0004L390.335 80.0004L306.292 80.0003L306.292 82.0003ZM390.335 82.0004L435.675 82.0004L435.675 80.0004L390.335 80.0004L390.335 82.0004ZM437.24 85.5999C424.251 100.789 413.43 121.047 405.894 140.322C398.367 159.575 394.065 177.984 394.221 189.488L396.221 189.461C396.07 178.339 400.265 160.214 407.757 141.05C415.241 121.908 425.962 101.866 438.76 86.8998L437.24 85.5999ZM394.221 189.488C394.213 188.873 394.722 188.474 395.221 188.474L395.221 190.474C395.72 190.474 396.23 190.075 396.221 189.461L394.221 189.488ZM435.675 82.0004C437.416 82.0004 438.447 84.188 437.24 85.5999L438.76 86.8998C441.001 84.2789 439.24 80.0004 435.675 80.0004L435.675 82.0004ZM175.02 85.5978C173.813 84.1874 174.842 82.0003 176.584 82.0003L176.584 80.0003C173.019 80.0003 171.258 84.2785 173.501 86.8986L175.02 85.5978ZM217.363 190.473C217.859 190.473 218.355 190.083 218.363 189.486L216.363 189.459C216.371 188.863 216.867 188.473 217.363 188.473L217.363 190.473ZM218.363 189.473C218.363 190.018 217.922 190.473 217.363 190.473L217.363 188.473C216.804 188.473 216.363 188.928 216.363 189.473L218.363 189.473ZM220.363 330.499C219.258 330.499 218.363 329.604 218.363 328.499L216.363 328.499C216.363 330.708 218.154 332.499 220.363 332.499L220.363 330.499ZM394.221 328.499C394.221 329.604 393.326 330.499 392.221 330.499L392.221 332.499C394.43 332.499 396.221 330.708 396.221 328.499L394.221 328.499ZM396.221 189.474C396.221 190.027 395.773 190.474 395.221 190.474L395.221 188.474C394.669 188.474 394.221 188.922 394.221 189.474L396.221 189.474Z" fill="url(#paint7_angular_16_2798)" mask="url(#path-16-inside-8_16_2798)"/>
<mask id="path-18-inside-9_16_2798" fill="white">
<path fill-rule="evenodd" clip-rule="evenodd" d="M402.391 189.474C402.391 189.474 402.39 189.475 402.39 189.476L402.39 328.499C402.39 330.156 401.047 331.499 399.39 331.499L227.532 331.499C225.875 331.499 224.532 330.156 224.532 328.499L224.532 189.474C224.532 189.474 224.532 189.473 224.533 189.473C224.534 189.473 224.534 189.472 224.534 189.472C224.84 166.845 207.251 116.402 181.432 86.2482C179.706 84.2329 181.102 81.0003 183.755 81.0003L229.095 81.0003L313.463 81.0003L397.506 81.0004L442.846 81.0004C445.499 81.0004 446.895 84.2334 445.171 86.2499C419.385 116.405 402.086 166.847 402.393 189.473C402.393 189.474 402.392 189.474 402.391 189.474Z"/>
</mask>
<path d="M229.095 81.0003L229.095 80.0003L229.095 81.0003ZM313.463 81.0003L313.463 80.0003L313.463 81.0003ZM397.506 81.0004L397.506 82.0004L397.506 81.0004ZM402.393 189.473L403.392 189.46L402.393 189.473ZM442.846 81.0004L442.846 80.0004L442.846 81.0004ZM445.171 86.2499L445.931 86.8998L445.171 86.2499ZM181.432 86.2482L180.672 86.8986L181.432 86.2482ZM183.755 81.0003L183.755 80.0003L183.755 81.0003ZM224.534 189.472L223.534 189.458L224.534 189.472ZM401.39 189.476L401.39 328.499L403.39 328.499L403.39 189.476L401.39 189.476ZM399.39 330.499L227.532 330.499L227.532 332.499L399.39 332.499L399.39 330.499ZM225.532 328.499L225.532 189.474L223.532 189.474L223.532 328.499L225.532 328.499ZM225.534 189.485C225.69 177.978 221.314 159.567 213.71 140.315C206.098 121.041 195.195 100.785 182.192 85.5978L180.672 86.8986C193.488 101.866 204.29 121.908 211.85 141.05C219.419 160.215 223.685 178.338 223.534 189.458L225.534 189.485ZM183.755 82.0003L229.095 82.0003L229.095 80.0003L183.755 80.0003L183.755 82.0003ZM229.095 82.0003L313.463 82.0003L313.463 80.0003L229.095 80.0003L229.095 82.0003ZM313.463 82.0003L397.506 82.0004L397.506 80.0004L313.463 80.0003L313.463 82.0003ZM397.506 82.0004L442.846 82.0004L442.846 80.0004L397.506 80.0004L397.506 82.0004ZM444.411 85.5999C431.423 100.789 420.601 121.046 413.066 140.321C405.539 159.574 401.237 177.983 401.393 189.487L403.392 189.46C403.242 178.338 407.436 160.212 414.928 141.049C422.412 121.907 433.133 101.866 445.931 86.8998L444.411 85.5999ZM401.393 189.487C401.384 188.877 401.889 188.474 402.391 188.474L402.391 190.474C402.895 190.474 403.401 190.071 403.392 189.46L401.393 189.487ZM442.846 82.0004C444.587 82.0004 445.618 84.188 444.411 85.5999L445.931 86.8998C448.172 84.2789 446.411 80.0004 442.846 80.0004L442.846 82.0004ZM182.192 85.5978C180.984 84.1874 182.014 82.0003 183.755 82.0003L183.755 80.0003C180.191 80.0003 178.429 84.2785 180.672 86.8986L182.192 85.5978ZM224.533 190.473C225.03 190.473 225.526 190.083 225.534 189.485L223.534 189.458C223.542 188.862 224.038 188.473 224.533 188.473L224.533 190.473ZM225.532 189.474C225.532 190.025 225.085 190.473 224.533 190.473L224.533 188.473C223.979 188.473 223.532 188.922 223.532 189.474L225.532 189.474ZM227.532 330.499C226.427 330.499 225.532 329.604 225.532 328.499L223.532 328.499C223.532 330.708 225.323 332.499 227.532 332.499L227.532 330.499ZM401.39 328.499C401.39 329.604 400.495 330.499 399.39 330.499L399.39 332.499C401.599 332.499 403.39 330.708 403.39 328.499L401.39 328.499ZM403.39 189.476C403.39 190.027 402.943 190.474 402.391 190.474L402.391 188.474C401.838 188.474 401.39 188.923 401.39 189.476L403.39 189.476Z" fill="url(#paint8_angular_16_2798)" mask="url(#path-18-inside-9_16_2798)"/>
<mask id="path-20-inside-10_16_2798" fill="white">
<path fill-rule="evenodd" clip-rule="evenodd" d="M189.611 81.0003C186.958 81.0003 185.562 84.2329 187.288 86.2482C213.108 116.403 230.697 166.848 230.39 189.474C230.39 189.474 230.391 189.474 230.391 189.474C230.391 189.474 230.391 189.475 230.391 189.475L230.391 328.499C230.391 330.156 231.735 331.499 233.391 331.499L405.25 331.499C406.907 331.499 408.25 330.156 408.25 328.499L408.25 189.474C408.25 189.473 408.249 189.473 408.249 189.473C408.249 189.473 408.249 189.473 408.249 189.472C407.942 166.846 425.241 116.404 451.027 86.2499C452.751 84.2334 451.355 81.0004 448.702 81.0004L403.362 81.0004L319.319 81.0003L234.951 81.0003L189.611 81.0003Z"/>
</mask>
<path d="M403.362 81.0004L403.362 82.0004L403.362 81.0004ZM319.319 81.0003L319.319 80.0003L319.319 81.0003ZM234.951 81.0003L234.951 80.0003L234.951 81.0003ZM451.027 86.2499L451.787 86.8998L451.027 86.2499ZM448.702 81.0004L448.702 80.0004L448.702 81.0004ZM408.249 189.472L409.248 189.459L408.249 189.472ZM187.288 86.2482L186.528 86.8986L187.288 86.2482ZM189.611 81.0003L189.611 80.0003L189.611 81.0003ZM230.39 189.474L229.39 189.46L230.39 189.474ZM231.39 189.487C231.546 177.981 227.17 159.57 219.567 140.317C211.954 121.042 201.052 100.785 188.048 85.5978L186.528 86.8986C199.344 101.866 210.146 121.909 217.707 141.052C225.276 160.217 229.541 178.341 229.39 189.46L231.39 189.487ZM231.391 328.499L231.391 189.475L229.391 189.475L229.391 328.499L231.391 328.499ZM405.25 330.499L233.391 330.499L233.391 332.499L405.25 332.499L405.25 330.499ZM407.25 189.474L407.25 328.499L409.25 328.499L409.25 189.474L407.25 189.474ZM450.267 85.5999C437.279 100.788 426.458 121.046 418.922 140.32C411.395 159.573 407.093 177.982 407.249 189.486L409.248 189.459C409.098 178.337 413.293 160.212 420.785 141.048C428.268 121.907 438.989 101.866 451.787 86.8998L450.267 85.5999ZM403.362 82.0004L448.702 82.0004L448.702 80.0004L403.362 80.0004L403.362 82.0004ZM319.319 82.0003L403.362 82.0004L403.362 80.0004L319.319 80.0003L319.319 82.0003ZM234.951 82.0003L319.319 82.0003L319.319 80.0003L234.951 80.0003L234.951 82.0003ZM189.611 82.0003L234.951 82.0003L234.951 80.0003L189.611 80.0003L189.611 82.0003ZM451.787 86.8998C454.028 84.2789 452.267 80.0004 448.702 80.0004L448.702 82.0004C450.443 82.0004 451.474 84.188 450.267 85.5999L451.787 86.8998ZM408.249 188.473C408.731 188.473 409.24 188.849 409.248 189.459L407.249 189.486C407.257 190.096 407.767 190.473 408.249 190.473L408.249 188.473ZM409.25 189.474C409.25 188.921 408.802 188.473 408.249 188.473L408.249 190.473C407.697 190.473 407.25 190.026 407.25 189.474L409.25 189.474ZM405.25 332.499C407.459 332.499 409.25 330.708 409.25 328.499L407.25 328.499C407.25 329.604 406.354 330.499 405.25 330.499L405.25 332.499ZM229.391 328.499C229.391 330.708 231.182 332.499 233.391 332.499L233.391 330.499C232.287 330.499 231.391 329.604 231.391 328.499L229.391 328.499ZM230.391 190.474C229.842 190.474 229.391 190.03 229.391 189.475L231.391 189.475C231.391 188.92 230.941 188.474 230.391 188.474L230.391 190.474ZM188.048 85.5978C186.84 84.1874 187.87 82.0003 189.611 82.0003L189.611 80.0003C186.047 80.0003 184.285 84.2785 186.528 86.8986L188.048 85.5978ZM229.39 189.46C229.382 190.07 229.886 190.474 230.391 190.474L230.391 188.474C230.895 188.474 231.398 188.879 231.39 189.487L229.39 189.46Z" fill="url(#paint9_angular_16_2798)" mask="url(#path-20-inside-10_16_2798)"/>
<mask id="path-22-inside-11_16_2798" fill="white">
<path fill-rule="evenodd" clip-rule="evenodd" d="M194.168 81.0003C191.515 81.0003 190.119 84.2329 191.844 86.2482C217.664 116.403 235.253 166.846 234.947 189.473C234.947 189.474 234.947 189.474 234.948 189.474C234.949 189.474 234.95 189.475 234.95 189.476L234.95 328.499C234.95 330.156 236.293 331.499 237.95 331.499L409.808 331.499C411.465 331.499 412.808 330.156 412.808 328.499L412.808 189.475C412.808 189.474 412.807 189.473 412.807 189.473C412.806 189.473 412.805 189.472 412.805 189.471C412.499 166.845 429.798 116.404 455.583 86.2499C457.308 84.2334 455.911 81.0004 453.258 81.0004L407.919 81.0003L323.876 81.0003L239.507 81.0003L194.168 81.0003Z"/>
</mask>
<path d="M407.919 81.0003L407.919 80.0003L407.919 81.0003ZM323.876 81.0003L323.876 80.0003L323.876 81.0003ZM239.507 81.0003L239.507 82.0003L239.507 81.0003ZM455.583 86.2499L456.343 86.8998L455.583 86.2499ZM412.805 189.471L413.805 189.458L412.805 189.471ZM191.844 86.2482L191.085 86.8986L191.844 86.2482ZM194.168 81.0003L194.168 80.0003L194.168 81.0003ZM234.947 189.473L235.947 189.486L234.947 189.473ZM235.947 189.486C236.102 177.98 231.727 159.568 224.123 140.316C216.51 121.042 205.608 100.785 192.604 85.5978L191.085 86.8986C203.9 101.866 214.702 121.908 222.263 141.051C229.832 160.216 234.097 178.34 233.947 189.459L235.947 189.486ZM235.95 328.499L235.95 189.476L233.95 189.476L233.95 328.499L235.95 328.499ZM409.808 330.499L237.95 330.499L237.95 332.499L409.808 332.499L409.808 330.499ZM411.808 189.475L411.808 328.499L413.808 328.499L413.808 189.475L411.808 189.475ZM454.823 85.5999C441.836 100.788 431.014 121.045 423.479 140.319C415.952 159.572 411.65 177.981 411.805 189.485L413.805 189.458C413.655 178.336 417.849 160.211 425.341 141.048C432.825 121.906 443.546 101.866 456.343 86.8998L454.823 85.5999ZM407.919 82.0003L453.258 82.0004L453.258 80.0004L407.919 80.0003L407.919 82.0003ZM323.876 82.0003L407.919 82.0003L407.919 80.0003L323.876 80.0003L323.876 82.0003ZM239.507 82.0003L323.876 82.0003L323.876 80.0003L239.507 80.0003L239.507 82.0003ZM194.168 82.0003L239.507 82.0003L239.507 80.0003L194.168 80.0003L194.168 82.0003ZM456.343 86.8998C458.584 84.2789 456.823 80.0004 453.258 80.0004L453.258 82.0004C455 82.0004 456.031 84.188 454.823 85.5999L456.343 86.8998ZM412.807 188.473C413.303 188.473 413.797 188.864 413.805 189.458L411.805 189.485C411.813 190.081 412.308 190.473 412.807 190.473L412.807 188.473ZM413.808 189.475C413.808 188.921 413.36 188.473 412.807 188.473L412.807 190.473C412.255 190.473 411.808 190.026 411.808 189.475L413.808 189.475ZM409.808 332.499C412.017 332.499 413.808 330.708 413.808 328.499L411.808 328.499C411.808 329.604 410.913 330.499 409.808 330.499L409.808 332.499ZM233.95 328.499C233.95 330.708 235.741 332.499 237.95 332.499L237.95 330.499C236.845 330.499 235.95 329.604 235.95 328.499L233.95 328.499ZM234.948 190.474C234.398 190.474 233.95 190.029 233.95 189.476L235.95 189.476C235.95 188.921 235.5 188.474 234.948 188.474L234.948 190.474ZM192.604 85.5978C191.396 84.1874 192.426 82.0003 194.168 82.0003L194.168 80.0003C190.603 80.0003 188.841 84.2785 191.085 86.8986L192.604 85.5978ZM233.947 189.459C233.939 190.069 234.443 190.474 234.948 190.474L234.948 188.474C235.452 188.474 235.955 188.878 235.947 189.486L233.947 189.459Z" fill="url(#paint10_angular_16_2798)" mask="url(#path-22-inside-11_16_2798)"/>
<mask id="path-24-inside-12_16_2798" fill="white">
<path fill-rule="evenodd" clip-rule="evenodd" d="M198.082 81.0003C195.429 81.0003 194.033 84.2329 195.759 86.2482C221.579 116.403 239.168 166.848 238.861 189.474C238.861 189.474 238.861 189.474 238.861 189.474C238.861 189.474 238.862 189.474 238.862 189.475L238.862 328.499C238.862 330.156 240.205 331.499 241.862 331.499L413.72 331.499C415.377 331.499 416.72 330.156 416.72 328.499L416.72 189.473C416.72 189.473 416.72 189.473 416.72 189.473C416.719 189.473 416.719 189.473 416.719 189.473C416.413 166.847 433.712 116.404 459.498 86.2499C461.222 84.2334 459.826 81.0004 457.173 81.0004L411.833 81.0003L327.79 81.0003L243.422 81.0003L198.082 81.0003Z"/>
</mask>
<path d="M411.833 81.0003L411.833 80.0003L411.833 81.0003ZM327.79 81.0003L327.79 80.0003L327.79 81.0003ZM243.422 81.0003L243.422 82.0003L243.422 81.0003ZM459.498 86.2499L460.258 86.8998L459.498 86.2499ZM416.719 189.473L415.719 189.486L416.719 189.473ZM195.759 86.2482L194.999 86.8986L195.759 86.2482ZM198.082 81.0003L198.082 80.0003L198.082 81.0003ZM238.861 189.474L237.861 189.461L238.861 189.474ZM239.861 189.488C240.017 177.981 235.641 159.57 228.038 140.317C220.425 121.042 209.523 100.785 196.518 85.5978L194.999 86.8986C207.815 101.866 218.617 121.909 226.178 141.052C233.747 160.217 238.012 178.341 237.861 189.461L239.861 189.488ZM239.862 328.499L239.862 189.475L237.862 189.475L237.862 328.499L239.862 328.499ZM413.72 330.499L241.862 330.499L241.862 332.499L413.72 332.499L413.72 330.499ZM415.72 189.473L415.72 328.499L417.72 328.499L417.72 189.473L415.72 189.473ZM458.738 85.5999C445.75 100.788 434.928 121.046 427.393 140.32C419.865 159.573 415.564 177.982 415.719 189.486L417.719 189.459C417.569 178.337 421.763 160.212 429.255 141.049C436.739 121.907 447.46 101.866 460.258 86.8998L458.738 85.5999ZM411.833 82.0003L457.173 82.0004L457.173 80.0004L411.833 80.0003L411.833 82.0003ZM327.79 82.0003L411.833 82.0003L411.833 80.0003L327.79 80.0003L327.79 82.0003ZM243.422 82.0003L327.79 82.0003L327.79 80.0003L243.422 80.0003L243.422 82.0003ZM198.082 82.0003L243.422 82.0003L243.422 80.0003L198.082 80.0003L198.082 82.0003ZM460.258 86.8998C462.499 84.2789 460.738 80.0004 457.173 80.0004L457.173 82.0004C458.914 82.0004 459.945 84.188 458.738 85.5999L460.258 86.8998ZM416.72 188.473C417.231 188.473 417.711 188.878 417.719 189.459L415.719 189.486C415.727 190.068 416.207 190.473 416.72 190.473L416.72 188.473ZM417.72 189.473C417.72 188.921 417.272 188.473 416.72 188.473L416.72 190.473C416.167 190.473 415.72 190.025 415.72 189.473L417.72 189.473ZM413.72 332.499C415.929 332.499 417.72 330.708 417.72 328.499L415.72 328.499C415.72 329.604 414.824 330.499 413.72 330.499L413.72 332.499ZM237.862 328.499C237.862 330.708 239.652 332.499 241.862 332.499L241.862 330.499C240.757 330.499 239.862 329.604 239.862 328.499L237.862 328.499ZM238.861 190.474C238.281 190.474 237.862 189.998 237.862 189.475L239.862 189.475C239.862 188.951 239.442 188.474 238.861 188.474L238.861 190.474ZM196.518 85.5978C195.311 84.1874 196.34 82.0003 198.082 82.0003L198.082 80.0003C194.517 80.0003 192.756 84.2785 194.999 86.8986L196.518 85.5978ZM237.861 189.461C237.853 190.07 238.357 190.474 238.861 190.474L238.861 188.474C239.366 188.474 239.869 188.879 239.861 189.488L237.861 189.461Z" fill="url(#paint11_angular_16_2798)" mask="url(#path-24-inside-12_16_2798)"/>
</g>
<defs>
<radialGradient id="paint0_angular_16_2798" cx="0" cy="0" r="1" gradientUnits="userSpaceOnUse" gradientTransform="translate(227.63 206.25) scale(132.63 125.249)">
<stop offset="0.442708" stop-color="#AF6AFE"/>
<stop offset="0.682292" stop-color="#359EFF"/>
</radialGradient>
<radialGradient id="paint1_angular_16_2798" cx="0" cy="0" r="1" gradientUnits="userSpaceOnUse" gradientTransform="translate(227.63 206.25) scale(132.63 125.249)">
<stop offset="0.442708" stop-color="#AF6AFE"/>
<stop offset="0.682292" stop-color="#359EFF"/>
</radialGradient>
<radialGradient id="paint2_angular_16_2798" cx="0" cy="0" r="1" gradientUnits="userSpaceOnUse" gradientTransform="translate(248.149 206.25) scale(132.63 125.249)">
<stop offset="0.442708" stop-color="#AF6AFE"/>
<stop offset="0.682292" stop-color="#359EFF"/>
</radialGradient>
<radialGradient id="paint3_angular_16_2798" cx="0" cy="0" r="1" gradientUnits="userSpaceOnUse" gradientTransform="translate(265.733 206.25) scale(132.63 125.249)">
<stop offset="0.442708" stop-color="#AF6AFE"/>
<stop offset="0.682292" stop-color="#359EFF"/>
</radialGradient>
<radialGradient id="paint4_angular_16_2798" cx="0" cy="0" r="1" gradientUnits="userSpaceOnUse" gradientTransform="translate(278.76 206.25) scale(132.63 125.249)">
<stop offset="0.442708" stop-color="#AF6AFE"/>
<stop offset="0.682292" stop-color="#359EFF"/>
</radialGradient>
<radialGradient id="paint5_angular_16_2798" cx="0" cy="0" r="1" gradientUnits="userSpaceOnUse" gradientTransform="translate(289.188 206.25) scale(132.63 125.249)">
<stop offset="0.442708" stop-color="#AF6AFE"/>
<stop offset="0.682292" stop-color="#359EFF"/>
</radialGradient>
<radialGradient id="paint6_angular_16_2798" cx="0" cy="0" r="1" gradientUnits="userSpaceOnUse" gradientTransform="translate(298.316 206.25) scale(132.63 125.249)">
<stop offset="0.442708" stop-color="#AF6AFE"/>
<stop offset="0.682292" stop-color="#359EFF"/>
</radialGradient>
<radialGradient id="paint7_angular_16_2798" cx="0" cy="0" r="1" gradientUnits="userSpaceOnUse" gradientTransform="translate(306.13 206.25) scale(132.63 125.249)">
<stop offset="0.442708" stop-color="#AF6AFE"/>
<stop offset="0.682292" stop-color="#359EFF"/>
</radialGradient>
<radialGradient id="paint8_angular_16_2798" cx="0" cy="0" r="1" gradientUnits="userSpaceOnUse" gradientTransform="translate(313.301 206.25) scale(132.63 125.249)">
<stop offset="0.442708" stop-color="#AF6AFE"/>
<stop offset="0.682292" stop-color="#359EFF"/>
</radialGradient>
<radialGradient id="paint9_angular_16_2798" cx="0" cy="0" r="1" gradientUnits="userSpaceOnUse" gradientTransform="translate(319.157 206.25) scale(132.63 125.249)">
<stop offset="0.442708" stop-color="#AF6AFE"/>
<stop offset="0.682292" stop-color="#359EFF"/>
</radialGradient>
<radialGradient id="paint10_angular_16_2798" cx="0" cy="0" r="1" gradientUnits="userSpaceOnUse" gradientTransform="translate(323.713 206.25) scale(132.63 125.249)">
<stop offset="0.442708" stop-color="#AF6AFE"/>
<stop offset="0.682292" stop-color="#359EFF"/>
</radialGradient>
<radialGradient id="paint11_angular_16_2798" cx="0" cy="0" r="1" gradientUnits="userSpaceOnUse" gradientTransform="translate(327.628 206.25) scale(132.63 125.249)">
<stop offset="0.442708" stop-color="#AF6AFE"/>
<stop offset="0.682292" stop-color="#359EFF"/>
</radialGradient>
<clipPath id="clip0_16_2798">
<path d="M0 0H400V278C400 280.209 398.209 282 396 282H4C1.79086 282 0 280.209 0 278V0Z" fill="white"/>
</clipPath>
</defs>
</svg>
