<svg width="400" height="282" viewBox="0 0 400 282" fill="none" xmlns="http://www.w3.org/2000/svg">
<g clip-path="url(#clip0_16_2884)">
<mask id="path-2-inside-1_16_2884" fill="white">
<path fill-rule="evenodd" clip-rule="evenodd" d="M320.001 405.504L320.001 203.736H421.504V75H320.001L192.504 75L91 75V203.736H192.504L192.504 405.504H320.001Z"/>
</mask>
<path d="M320.001 203.736V202.736H319.001V203.736H320.001ZM320.001 405.504V406.504H321.001V405.504H320.001ZM421.504 203.736V204.736H422.504V203.736H421.504ZM421.504 75H422.504V74H421.504V75ZM320.001 75V76V75ZM192.504 75V74V75ZM91 75L91 74H90V75H91ZM91 203.736H90V204.736H91V203.736ZM192.504 203.736H193.504V202.736H192.504V203.736ZM192.504 405.504H191.504V406.504H192.504V405.504ZM319.001 203.736L319.001 405.504H321.001L321.001 203.736H319.001ZM421.504 202.736H320.001V204.736H421.504V202.736ZM420.504 75V203.736H422.504V75H420.504ZM320.001 76H421.504V74H320.001V76ZM192.504 76L320.001 76V74L192.504 74V76ZM91 76L192.504 76V74L91 74L91 76ZM92 203.736V75H90V203.736H92ZM192.504 202.736H91V204.736H192.504V202.736ZM193.504 405.504L193.504 203.736H191.504L191.504 405.504H193.504ZM320.001 404.504H192.504V406.504H320.001V404.504Z" fill="url(#paint0_linear_16_2884)" mask="url(#path-2-inside-1_16_2884)"/>
<mask id="path-4-inside-2_16_2884" fill="white">
<path fill-rule="evenodd" clip-rule="evenodd" d="M329.418 414.918L329.418 213.15H430.92V84.4141H329.418L201.92 84.4141L100.416 84.4141V213.15H201.92L201.92 414.918H329.418Z"/>
</mask>
<path d="M329.418 213.15V212.15H328.418V213.15H329.418ZM329.418 414.918V415.918H330.418V414.918H329.418ZM430.92 213.15V214.15H431.92V213.15H430.92ZM430.92 84.4141H431.92V83.4141H430.92V84.4141ZM329.418 84.4141V85.4141V84.4141ZM201.92 84.4141V83.4141V84.4141ZM100.416 84.4141L100.416 83.4141H99.4161V84.4141H100.416ZM100.416 213.15H99.4161V214.15H100.416V213.15ZM201.92 213.15H202.92V212.15H201.92V213.15ZM201.92 414.918H200.92V415.918H201.92V414.918ZM328.418 213.15L328.418 414.918H330.418L330.418 213.15H328.418ZM430.92 212.15H329.418V214.15H430.92V212.15ZM429.92 84.4141V213.15H431.92V84.4141H429.92ZM329.418 85.4141H430.92V83.4141H329.418V85.4141ZM201.92 85.4141L329.418 85.4141V83.4141L201.92 83.4141V85.4141ZM100.416 85.4141L201.92 85.4141V83.4141L100.416 83.4141L100.416 85.4141ZM101.416 213.15V84.4141H99.4161V213.15H101.416ZM201.92 212.15H100.416V214.15H201.92V212.15ZM202.92 414.918L202.92 213.15H200.92L200.92 414.918H202.92ZM329.418 413.918H201.92V415.918H329.418V413.918Z" fill="url(#paint1_linear_16_2884)" mask="url(#path-4-inside-2_16_2884)"/>
<mask id="path-6-inside-3_16_2884" fill="white">
<path fill-rule="evenodd" clip-rule="evenodd" d="M440.336 93.832H109.832V222.568H211.336L211.336 424.336H338.834L338.834 222.568H440.336V93.832Z"/>
</mask>
<path d="M109.832 93.832V92.832H108.832V93.832H109.832ZM440.336 93.832H441.336V92.832H440.336V93.832ZM109.832 222.568H108.832V223.568H109.832V222.568ZM211.336 222.568H212.336V221.568H211.336V222.568ZM211.336 424.336H210.336V425.336H211.336V424.336ZM338.834 424.336V425.336H339.834V424.336H338.834ZM338.834 222.568V221.568H337.834V222.568H338.834ZM440.336 222.568V223.568H441.336V222.568H440.336ZM109.832 94.832H440.336V92.832H109.832V94.832ZM110.832 222.568V93.832H108.832V222.568H110.832ZM211.336 221.568H109.832V223.568H211.336V221.568ZM212.336 424.336L212.336 222.568H210.336L210.336 424.336H212.336ZM338.834 423.336H211.336V425.336H338.834V423.336ZM337.834 222.568L337.834 424.336H339.834L339.834 222.568H337.834ZM440.336 221.568H338.834V223.568H440.336V221.568ZM439.336 93.832V222.568H441.336V93.832H439.336Z" fill="url(#paint2_linear_16_2884)" mask="url(#path-6-inside-3_16_2884)"/>
<mask id="path-8-inside-4_16_2884" fill="white">
<path fill-rule="evenodd" clip-rule="evenodd" d="M348.25 433.75L348.25 231.982H449.752V103.247H348.25L220.752 103.247L119.248 103.247V231.982H220.752L220.752 433.75H348.25Z"/>
</mask>
<path d="M348.25 231.982V230.982H347.25V231.982H348.25ZM348.25 433.75V434.75H349.25V433.75H348.25ZM449.752 231.982V232.982H450.752V231.982H449.752ZM449.752 103.247H450.752V102.247H449.752V103.247ZM348.25 103.247V104.247V103.247ZM220.752 103.247V102.247V103.247ZM119.248 103.247L119.248 102.247H118.248V103.247H119.248ZM119.248 231.982H118.248V232.982H119.248V231.982ZM220.752 231.982H221.752V230.982H220.752V231.982ZM220.752 433.75H219.752V434.75H220.752V433.75ZM347.25 231.982L347.25 433.75H349.25L349.25 231.982H347.25ZM449.752 230.982H348.25V232.982H449.752V230.982ZM448.752 103.247V231.982H450.752V103.247H448.752ZM348.25 104.247H449.752V102.247H348.25V104.247ZM220.752 104.247L348.25 104.247V102.247L220.752 102.247V104.247ZM119.248 104.247L220.752 104.247V102.247L119.248 102.247L119.248 104.247ZM120.248 231.982V103.247H118.248V231.982H120.248ZM220.752 230.982H119.248V232.982H220.752V230.982ZM221.752 433.75L221.752 231.982H219.752L219.752 433.75H221.752ZM348.25 432.75H220.752V434.75H348.25V432.75Z" fill="url(#paint3_linear_16_2884)" mask="url(#path-8-inside-4_16_2884)"/>
<mask id="path-10-inside-5_16_2884" fill="white">
<path fill-rule="evenodd" clip-rule="evenodd" d="M357.666 443.168L357.666 241.4H459.168V112.665H357.666L230.168 112.665L128.664 112.665V241.4H230.168L230.168 443.168H357.666Z"/>
</mask>
<path d="M357.666 241.4V240.4H356.666V241.4H357.666ZM357.666 443.168V444.168H358.666V443.168H357.666ZM459.168 241.4V242.4H460.168V241.4H459.168ZM459.168 112.665H460.168V111.665H459.168V112.665ZM357.666 112.665V113.665V112.665ZM230.168 112.665V111.665V112.665ZM128.664 112.665L128.664 111.665H127.664V112.665H128.664ZM128.664 241.4H127.664V242.4H128.664V241.4ZM230.168 241.4H231.168V240.4H230.168V241.4ZM230.168 443.168H229.168V444.168H230.168V443.168ZM356.666 241.4L356.666 443.168H358.666L358.666 241.4H356.666ZM459.168 240.4H357.666V242.4H459.168V240.4ZM458.168 112.665V241.4H460.168V112.665H458.168ZM357.666 113.665H459.168V111.665H357.666V113.665ZM230.168 113.665L357.666 113.665V111.665L230.168 111.665V113.665ZM128.664 113.665L230.168 113.665V111.665L128.664 111.665L128.664 113.665ZM129.664 241.4V112.665H127.664V241.4H129.664ZM230.168 240.4H128.664V242.4H230.168V240.4ZM231.168 443.168L231.168 241.4H229.168L229.168 443.168H231.168ZM357.666 442.168H230.168V444.168H357.666V442.168Z" fill="url(#paint4_linear_16_2884)" mask="url(#path-10-inside-5_16_2884)"/>
<mask id="path-12-inside-6_16_2884" fill="white">
<path fill-rule="evenodd" clip-rule="evenodd" d="M367.082 452.582L367.082 250.814H468.584V122.079H367.082L239.584 122.079L138.081 122.079V250.814H239.584L239.584 452.582H367.082Z"/>
</mask>
<path d="M367.082 250.814V249.814H366.082V250.814H367.082ZM367.082 452.582V453.582H368.082V452.582H367.082ZM468.584 250.814V251.814H469.584V250.814H468.584ZM468.584 122.079H469.584V121.079H468.584V122.079ZM367.082 122.079V123.079V122.079ZM239.584 122.079V121.079V122.079ZM138.081 122.079L138.081 121.079H137.081V122.079H138.081ZM138.081 250.814H137.081V251.814H138.081V250.814ZM239.584 250.814H240.584V249.814H239.584V250.814ZM239.584 452.582H238.584V453.582H239.584V452.582ZM366.082 250.814L366.082 452.582H368.082L368.082 250.814H366.082ZM468.584 249.814H367.082V251.814H468.584V249.814ZM467.584 122.079V250.814H469.584V122.079H467.584ZM367.082 123.079H468.584V121.079H367.082V123.079ZM239.584 123.079L367.082 123.079V121.079L239.584 121.079V123.079ZM138.081 123.079L239.584 123.079V121.079L138.081 121.079L138.081 123.079ZM139.081 250.814V122.079H137.081V250.814H139.081ZM239.584 249.814H138.081V251.814H239.584V249.814ZM240.584 452.582L240.584 250.814H238.584L238.584 452.582H240.584ZM367.082 451.582H239.584V453.582H367.082V451.582Z" fill="url(#paint5_linear_16_2884)" mask="url(#path-12-inside-6_16_2884)"/>
<mask id="path-14-inside-7_16_2884" fill="white">
<path fill-rule="evenodd" clip-rule="evenodd" d="M376.498 462.001L376.498 260.233H478V131.497H376.498L249 131.497L147.497 131.497V260.233H249L249 462.001H376.498Z"/>
</mask>
<path d="M376.498 260.233V259.233H375.498V260.233H376.498ZM376.498 462.001V463.001H377.498V462.001H376.498ZM478 260.233V261.233H479V260.233H478ZM478 131.497H479V130.497H478V131.497ZM376.498 131.497V132.497V131.497ZM249 131.497V130.497V131.497ZM147.497 131.497L147.497 130.497H146.497V131.497H147.497ZM147.497 260.233H146.497V261.233H147.497V260.233ZM249 260.233H250V259.233H249V260.233ZM249 462.001H248V463.001H249V462.001ZM375.498 260.233L375.498 462.001H377.498L377.498 260.233H375.498ZM478 259.233H376.498V261.233H478V259.233ZM477 131.497V260.233H479V131.497H477ZM376.498 132.497H478V130.497H376.498V132.497ZM249 132.497L376.498 132.497V130.497L249 130.497V132.497ZM147.497 132.497L249 132.497V130.497L147.497 130.497L147.497 132.497ZM148.497 260.233V131.497H146.497V260.233H148.497ZM249 259.233H147.497V261.233H249V259.233ZM250 462.001L250 260.233H248L248 462.001H250ZM376.498 461.001H249V463.001H376.498V461.001Z" fill="url(#paint6_linear_16_2884)" mask="url(#path-14-inside-7_16_2884)"/>
</g>
<defs>
<linearGradient id="paint0_linear_16_2884" x1="256.252" y1="75" x2="256.252" y2="405.504" gradientUnits="userSpaceOnUse">
<stop stop-color="#359EFF"/>
<stop offset="1" stop-color="#AE6AFE"/>
</linearGradient>
<linearGradient id="paint1_linear_16_2884" x1="265.668" y1="84.4141" x2="265.668" y2="414.918" gradientUnits="userSpaceOnUse">
<stop stop-color="#359EFF"/>
<stop offset="1" stop-color="#AE6AFE"/>
</linearGradient>
<linearGradient id="paint2_linear_16_2884" x1="275.084" y1="93.832" x2="275.084" y2="424.336" gradientUnits="userSpaceOnUse">
<stop stop-color="#359EFF"/>
<stop offset="1" stop-color="#AE6AFE"/>
</linearGradient>
<linearGradient id="paint3_linear_16_2884" x1="284.5" y1="103.247" x2="284.5" y2="433.75" gradientUnits="userSpaceOnUse">
<stop stop-color="#359EFF"/>
<stop offset="1" stop-color="#AE6AFE"/>
</linearGradient>
<linearGradient id="paint4_linear_16_2884" x1="293.916" y1="112.665" x2="293.916" y2="443.168" gradientUnits="userSpaceOnUse">
<stop stop-color="#359EFF"/>
<stop offset="1" stop-color="#AE6AFE"/>
</linearGradient>
<linearGradient id="paint5_linear_16_2884" x1="303.332" y1="122.079" x2="303.332" y2="452.582" gradientUnits="userSpaceOnUse">
<stop stop-color="#359EFF"/>
<stop offset="1" stop-color="#AE6AFE"/>
</linearGradient>
<linearGradient id="paint6_linear_16_2884" x1="312.748" y1="131.497" x2="312.748" y2="462.001" gradientUnits="userSpaceOnUse">
<stop stop-color="#359EFF"/>
<stop offset="1" stop-color="#AE6AFE"/>
</linearGradient>
<clipPath id="clip0_16_2884">
<path d="M0 0H400V278C400 280.209 398.209 282 396 282H4C1.79086 282 0 280.209 0 278V0Z" fill="white"/>
</clipPath>
</defs>
</svg>
