<svg width="400" height="282" viewBox="0 0 400 282" fill="none" xmlns="http://www.w3.org/2000/svg">
<g clip-path="url(#clip0_16_2756)">
<circle cx="296.494" cy="282.99" r="214.5" stroke="url(#paint0_linear_16_2756)" stroke-opacity="0.8"/>
<path d="M510.994 282.49C510.994 292.988 505.093 303.056 494.274 312.276C483.457 321.495 467.775 329.82 448.352 336.821C409.512 350.821 355.822 359.49 296.494 359.49C237.166 359.49 183.476 350.821 144.636 336.821C125.213 329.82 109.531 321.495 98.7141 312.276C87.8949 303.056 81.994 292.988 81.994 282.49C81.994 271.992 87.8949 261.925 98.7141 252.704C109.531 243.485 125.213 235.161 144.636 228.16C183.476 214.159 237.166 205.49 296.494 205.49C355.822 205.49 409.512 214.159 448.352 228.16C467.775 235.161 483.457 243.485 494.274 252.704C505.093 261.925 510.994 271.992 510.994 282.49Z" stroke="url(#paint1_linear_16_2756)" stroke-opacity="0.8"/>
<path d="M296.494 496.99C285.996 496.99 275.928 491.089 266.708 480.27C257.489 469.453 249.165 453.771 242.164 434.349C228.163 395.509 219.494 341.819 219.494 282.49C219.494 223.162 228.163 169.472 242.164 130.632C249.165 111.21 257.489 95.5275 266.708 84.7103C275.928 73.8912 285.996 67.9902 296.494 67.9902C306.992 67.9902 317.059 73.8912 326.28 84.7103C335.499 95.5275 343.823 111.21 350.824 130.632C364.825 169.472 373.494 223.162 373.494 282.49C373.494 341.819 364.825 395.509 350.824 434.349C343.823 453.771 335.499 469.453 326.28 480.27C317.059 491.089 306.992 496.99 296.494 496.99Z" stroke="url(#paint2_linear_16_2756)" stroke-opacity="0.8"/>
<path d="M509.439 308.264C508.178 318.686 501.11 327.971 489.262 335.825C477.415 343.678 460.847 350.058 440.724 354.675C400.483 363.908 346.141 366.064 287.242 358.936C228.343 351.808 176.084 336.751 139.207 318.186C120.767 308.902 106.198 298.754 96.5671 288.302C86.9341 277.849 82.2854 267.145 83.5466 256.723C84.8079 246.301 91.8756 237.016 103.724 229.162C115.571 221.309 132.139 214.929 152.262 210.312C192.503 201.08 246.845 198.924 305.744 206.051C364.643 213.179 416.902 228.236 453.779 246.801C472.219 256.085 486.788 266.233 496.419 276.685C506.052 287.138 510.701 297.842 509.439 308.264Z" stroke="url(#paint3_linear_16_2756)" stroke-opacity="0.8"/>
<path d="M270.728 495.436C260.306 494.174 251.02 487.107 243.167 475.258C235.314 463.412 228.934 446.843 224.317 426.72C215.084 386.48 212.928 332.137 220.056 273.238C227.184 214.34 242.241 162.08 260.806 125.203C270.09 106.763 280.238 92.1946 290.69 82.5633C301.143 72.9303 311.847 68.2816 322.269 69.5429C332.691 70.8041 341.976 77.8718 349.83 89.7203C357.683 101.567 364.063 118.135 368.68 138.258C377.912 178.499 380.068 232.841 372.941 291.74C365.813 350.639 350.756 402.898 332.191 439.775C322.907 458.215 312.759 472.784 302.307 482.415C291.854 492.048 281.15 496.697 270.728 495.436Z" stroke="url(#paint4_linear_16_2756)" stroke-opacity="0.8"/>
<path d="M506.518 326.073C504.386 336.352 496.562 345.011 484.096 351.841C471.631 358.67 454.585 363.635 434.145 366.544C393.271 372.362 338.939 369.942 280.848 357.889C222.757 345.836 171.948 326.44 136.762 304.841C119.168 294.04 105.504 282.703 96.7851 271.479C88.0648 260.252 84.3323 249.196 86.4651 238.917C88.5979 228.638 96.4211 219.979 108.888 213.149C121.352 206.32 138.399 201.355 158.838 198.446C199.713 192.628 254.044 195.048 312.135 207.101C370.226 219.154 421.035 238.55 456.221 260.149C473.816 270.95 487.48 282.287 496.198 293.512C504.919 304.738 508.651 315.794 506.518 326.073Z" stroke="url(#paint5_linear_16_2756)" stroke-opacity="0.8"/>
<path d="M252.923 492.515C242.643 490.382 233.985 482.559 227.155 470.092C220.326 457.627 215.361 440.581 212.452 420.142C206.634 379.267 209.053 324.936 221.107 266.845C233.16 208.753 252.556 157.944 274.155 122.759C284.956 105.164 296.293 91.5001 307.517 82.7814C318.743 74.0611 329.8 70.3285 340.079 72.4614C350.358 74.5942 359.017 82.4173 365.847 94.8841C372.676 107.349 377.641 124.395 380.55 144.834C386.368 185.709 383.948 240.04 371.895 298.131C359.842 356.223 340.446 407.032 318.846 442.217C308.046 459.812 296.709 473.476 285.484 482.195C274.258 490.915 263.202 494.647 252.923 492.515Z" stroke="url(#paint6_linear_16_2756)" stroke-opacity="0.8"/>
<path d="M503.19 339.813C500.385 349.929 492.008 358.053 479.119 364.048C466.231 370.041 448.895 373.872 428.308 375.429C387.139 378.541 333.085 372.548 275.914 356.695C218.743 340.841 169.322 318.14 135.636 294.27C118.791 282.334 105.903 270.122 97.9427 258.347C89.9808 246.571 86.9847 235.293 89.7899 225.177C92.5952 215.06 100.972 206.936 113.861 200.942C126.749 194.949 144.085 191.117 164.672 189.561C205.84 186.448 259.895 192.441 317.066 208.295C374.237 224.148 423.658 246.849 457.344 270.719C474.189 282.655 487.077 294.868 495.037 306.642C502.999 318.418 505.995 329.696 503.19 339.813Z" stroke="url(#paint7_linear_16_2756)" stroke-opacity="0.8"/>
<path d="M239.183 489.19C229.067 486.385 220.942 478.008 214.948 465.119C208.955 452.232 205.124 434.895 203.567 414.308C200.455 373.14 206.448 319.085 222.301 261.914C238.155 204.743 260.855 155.322 284.726 121.636C296.662 104.791 308.874 91.9033 320.648 83.9429C332.425 75.981 343.703 72.9848 353.819 75.7901C363.936 78.5954 372.06 86.9719 378.054 99.8615C384.047 112.749 387.879 130.085 389.435 150.672C392.548 191.841 386.555 245.895 370.701 303.066C354.848 360.237 332.147 409.658 308.277 443.344C296.341 460.189 284.128 473.077 272.354 481.037C260.578 488.999 249.3 491.995 239.183 489.19Z" stroke="url(#paint8_linear_16_2756)" stroke-opacity="0.8"/>
<path d="M499.796 350.88C496.449 360.83 487.646 368.491 474.452 373.781C461.26 379.07 443.742 381.961 423.102 382.404C381.825 383.291 328.173 374.391 271.94 355.477C215.708 336.562 167.583 311.228 135.233 285.576C119.057 272.748 106.847 259.858 99.5333 247.672C92.2183 235.483 89.8349 224.06 93.1818 214.109C96.5288 204.159 105.331 196.498 118.526 191.208C131.717 185.919 149.235 183.029 169.876 182.585C211.153 181.698 264.805 190.598 321.037 209.513C377.27 228.427 425.394 253.761 457.744 279.414C473.921 292.241 486.131 305.131 493.444 317.318C500.759 329.506 503.143 340.929 499.796 350.88Z" stroke="url(#paint9_linear_16_2756)" stroke-opacity="0.8"/>
<path d="M228.116 485.796C218.166 482.449 210.505 473.646 205.215 460.452C199.926 447.26 197.035 429.743 196.592 409.102C195.704 367.825 204.605 314.173 223.519 257.94C242.434 201.708 267.768 153.583 293.42 121.234C306.248 105.057 319.138 92.8472 331.324 85.5335C343.513 78.2185 354.936 75.8351 364.886 79.182C374.837 82.5289 382.498 91.3315 387.788 104.526C393.077 117.718 395.967 135.235 396.411 155.876C397.298 197.153 388.398 250.805 369.483 307.037C350.569 363.27 325.235 411.394 299.582 443.744C286.755 459.921 273.865 472.131 261.678 479.444C249.49 486.759 238.067 489.143 228.116 485.796Z" stroke="url(#paint10_linear_16_2756)" stroke-opacity="0.8"/>
<path d="M496.59 359.76C492.808 369.553 483.677 376.819 470.263 381.523C456.851 386.227 439.223 388.344 418.583 387.879C377.307 386.949 324.098 375.696 268.753 354.326C213.407 332.955 166.444 305.528 135.254 278.477C119.658 264.95 108.027 251.535 101.256 239.039C94.4848 226.54 92.6063 215.023 96.3879 205.23C100.169 195.436 109.301 188.17 122.715 183.466C136.127 178.762 153.755 176.645 174.395 177.11C215.671 178.04 268.879 189.293 324.225 210.664C379.571 232.034 426.534 259.461 457.723 286.512C473.32 300.039 484.951 313.454 491.721 325.95C498.493 338.449 500.371 349.966 496.59 359.76Z" stroke="url(#paint11_linear_16_2756)" stroke-opacity="0.8"/>
<path d="M219.236 482.59C209.443 478.808 202.177 469.677 197.473 456.263C192.769 442.851 190.652 425.223 191.117 404.583C192.047 363.307 203.3 310.098 224.67 254.753C246.041 199.407 273.468 152.444 300.519 121.254C314.046 105.658 327.461 94.0269 339.957 87.2565C352.456 80.485 363.973 78.6065 373.766 82.388C383.56 86.1696 390.826 95.3007 395.53 108.715C400.234 122.127 402.35 139.755 401.885 160.395C400.956 201.671 389.703 254.879 368.332 310.225C346.962 365.571 319.535 412.534 292.484 443.724C278.957 459.32 265.542 470.951 253.045 477.721C240.547 484.493 229.03 486.371 219.236 482.59Z" stroke="url(#paint12_linear_16_2756)" stroke-opacity="0.8"/>
<path d="M493.725 366.807C489.598 376.46 480.215 383.398 466.643 387.623C453.072 391.848 435.38 393.339 414.77 392.142C373.553 389.748 320.777 376.616 266.224 353.295C211.671 329.975 165.71 300.899 135.5 272.759C120.393 258.687 109.245 244.868 102.922 232.14C96.5984 219.409 95.1297 207.832 99.2562 198.179C103.383 188.526 112.766 181.588 126.338 177.363C139.909 173.138 157.601 171.648 178.211 172.845C219.428 175.238 272.204 188.371 326.757 211.691C381.31 235.011 427.271 264.087 457.481 292.227C472.588 306.299 483.736 320.118 490.059 332.847C496.383 345.578 497.851 357.154 493.725 366.807Z" stroke="url(#paint13_linear_16_2756)" stroke-opacity="0.8"/>
<path d="M212.189 479.725C202.536 475.599 195.598 466.215 191.373 452.643C187.148 439.073 185.657 421.381 186.854 400.77C189.248 359.553 202.38 306.777 225.701 252.224C249.021 197.671 278.096 151.711 306.237 121.5C320.309 106.393 334.128 95.2454 346.856 88.9226C359.587 82.5986 371.164 81.1299 380.817 85.2564C390.47 89.3829 397.407 98.7661 401.633 112.339C405.858 125.909 407.348 143.601 406.151 164.212C403.758 205.428 390.625 258.204 367.305 312.757C343.984 367.31 314.909 413.271 286.769 443.481C272.697 458.588 258.878 469.736 246.149 476.059C233.418 482.383 221.842 483.852 212.189 479.725Z" stroke="url(#paint14_linear_16_2756)" stroke-opacity="0.8"/>
<path d="M491.083 372.736C486.666 382.26 477.078 388.91 463.383 392.723C449.692 396.536 431.963 397.49 411.398 395.67C370.272 392.031 317.918 377.307 264.095 352.347C210.273 327.387 165.213 296.934 135.868 267.893C121.193 253.37 110.469 239.22 104.534 226.306C98.5981 213.39 97.4803 201.774 101.897 192.25C106.314 182.726 115.902 176.076 129.597 172.263C143.288 168.451 161.018 167.496 181.583 169.316C222.708 172.956 275.063 187.679 328.885 212.639C382.707 237.6 427.767 268.052 457.113 297.094C471.787 311.616 482.511 325.766 488.446 338.68C494.382 351.597 495.5 363.212 491.083 372.736Z" stroke="url(#paint15_linear_16_2756)" stroke-opacity="0.8"/>
<path d="M206.264 477.083C196.74 472.667 190.089 463.078 186.276 449.384C182.464 435.692 181.51 417.963 183.33 397.398C186.969 356.272 201.692 303.918 226.653 250.095C251.613 196.273 282.066 151.213 311.107 121.868C325.63 107.194 339.779 96.469 352.694 90.5342C365.61 84.5983 377.226 83.4805 386.75 87.8972C396.273 92.3139 402.924 101.903 406.737 115.597C410.549 129.289 411.503 147.018 409.684 167.583C406.044 208.708 391.321 261.063 366.361 314.885C341.4 368.707 310.948 413.767 281.906 443.113C267.384 457.787 253.234 468.511 240.32 474.446C227.403 480.382 215.788 481.5 206.264 477.083Z" stroke="url(#paint16_linear_16_2756)" stroke-opacity="0.8"/>
</g>
<defs>
<linearGradient id="paint0_linear_16_2756" x1="296.494" y1="67.9902" x2="296.494" y2="497.99" gradientUnits="userSpaceOnUse">
<stop stop-color="#359EFF"/>
<stop offset="1" stop-color="#AF6AFE"/>
</linearGradient>
<linearGradient id="paint1_linear_16_2756" x1="296.494" y1="204.99" x2="296.494" y2="359.99" gradientUnits="userSpaceOnUse">
<stop stop-color="#359EFF"/>
<stop offset="1" stop-color="#AF6AFE"/>
</linearGradient>
<linearGradient id="paint2_linear_16_2756" x1="373.994" y1="282.49" x2="218.994" y2="282.49" gradientUnits="userSpaceOnUse">
<stop stop-color="#359EFF"/>
<stop offset="1" stop-color="#AF6AFE"/>
</linearGradient>
<linearGradient id="paint3_linear_16_2756" x1="305.804" y1="205.555" x2="287.182" y2="359.432" gradientUnits="userSpaceOnUse">
<stop stop-color="#359EFF"/>
<stop offset="1" stop-color="#AF6AFE"/>
</linearGradient>
<linearGradient id="paint4_linear_16_2756" x1="373.437" y1="291.8" x2="219.56" y2="273.178" gradientUnits="userSpaceOnUse">
<stop stop-color="#359EFF"/>
<stop offset="1" stop-color="#AF6AFE"/>
</linearGradient>
<linearGradient id="paint5_linear_16_2756" x1="312.237" y1="206.611" x2="280.747" y2="358.379" gradientUnits="userSpaceOnUse">
<stop stop-color="#359EFF"/>
<stop offset="1" stop-color="#AF6AFE"/>
</linearGradient>
<linearGradient id="paint6_linear_16_2756" x1="372.385" y1="298.233" x2="220.617" y2="266.743" gradientUnits="userSpaceOnUse">
<stop stop-color="#359EFF"/>
<stop offset="1" stop-color="#AF6AFE"/>
</linearGradient>
<linearGradient id="paint7_linear_16_2756" x1="317.199" y1="207.813" x2="275.781" y2="357.177" gradientUnits="userSpaceOnUse">
<stop stop-color="#359EFF"/>
<stop offset="1" stop-color="#AF6AFE"/>
</linearGradient>
<linearGradient id="paint8_linear_16_2756" x1="371.183" y1="303.199" x2="221.819" y2="261.781" gradientUnits="userSpaceOnUse">
<stop stop-color="#359EFF"/>
<stop offset="1" stop-color="#AF6AFE"/>
</linearGradient>
<linearGradient id="paint9_linear_16_2756" x1="321.197" y1="209.039" x2="271.781" y2="355.95" gradientUnits="userSpaceOnUse">
<stop stop-color="#359EFF"/>
<stop offset="1" stop-color="#AF6AFE"/>
</linearGradient>
<linearGradient id="paint10_linear_16_2756" x1="369.957" y1="307.197" x2="223.045" y2="257.781" gradientUnits="userSpaceOnUse">
<stop stop-color="#359EFF"/>
<stop offset="1" stop-color="#AF6AFE"/>
</linearGradient>
<linearGradient id="paint11_linear_16_2756" x1="324.405" y1="210.197" x2="268.572" y2="354.792" gradientUnits="userSpaceOnUse">
<stop stop-color="#359EFF"/>
<stop offset="1" stop-color="#AF6AFE"/>
</linearGradient>
<linearGradient id="paint12_linear_16_2756" x1="368.799" y1="310.405" x2="224.204" y2="254.573" gradientUnits="userSpaceOnUse">
<stop stop-color="#359EFF"/>
<stop offset="1" stop-color="#AF6AFE"/>
</linearGradient>
<linearGradient id="paint13_linear_16_2756" x1="326.954" y1="211.231" x2="266.027" y2="353.755" gradientUnits="userSpaceOnUse">
<stop stop-color="#359EFF"/>
<stop offset="1" stop-color="#AF6AFE"/>
</linearGradient>
<linearGradient id="paint14_linear_16_2756" x1="367.765" y1="312.954" x2="225.241" y2="252.028" gradientUnits="userSpaceOnUse">
<stop stop-color="#359EFF"/>
<stop offset="1" stop-color="#AF6AFE"/>
</linearGradient>
<linearGradient id="paint15_linear_16_2756" x1="329.095" y1="212.186" x2="263.885" y2="352.801" gradientUnits="userSpaceOnUse">
<stop stop-color="#359EFF"/>
<stop offset="1" stop-color="#AF6AFE"/>
</linearGradient>
<linearGradient id="paint16_linear_16_2756" x1="366.814" y1="315.095" x2="226.199" y2="249.885" gradientUnits="userSpaceOnUse">
<stop stop-color="#359EFF"/>
<stop offset="1" stop-color="#AF6AFE"/>
</linearGradient>
<clipPath id="clip0_16_2756">
<path d="M0 0H400V278C400 280.209 398.209 282 396 282H4C1.79086 282 0 280.209 0 278V0Z" fill="white"/>
</clipPath>
</defs>
</svg>
