<svg width="16" height="14" viewBox="0 0 16 14" fill="none" xmlns="http://www.w3.org/2000/svg">
<path fill-rule="evenodd" clip-rule="evenodd" d="M14 0.25H2C1.175 0.25 0.5 0.925 0.5 1.75V12.25C0.5 13.075 1.175 13.75 2 13.75H14C14.825 13.75 15.5 13.075 15.5 12.25V1.75C15.5 0.925 14.825 0.25 14 0.25ZM14 12.25H2V1.75H14V12.25Z" fill="white"/>
<path fill-rule="evenodd" clip-rule="evenodd" d="M13.5575 5.815L12.4925 4.75L10.115 7.1275L9.0575 6.0625L8 7.12L10.115 9.25L13.5575 5.815Z" fill="white"/>
<path d="M6.5 3.25H2.75V4.75H6.5V3.25Z" fill="white"/>
<path d="M6.5 6.25H2.75V7.75H6.5V6.25Z" fill="white"/>
<path d="M6.5 9.25H2.75V10.75H6.5V9.25Z" fill="white"/>
</svg>
