<svg version="1.0" 
 width="current" viewBox="0 0 480 480"
 preserveAspectRatio="xMidYMid meet">
<g transform="translate(0,480) scale(0.1,-0.1)"
fill="#000000" stroke="none">
<path d="M803 4421 c-62 -29 -120 -94 -138 -155 -13 -45 -15 -282 -13 -1901
l3 -1850 22 -41 c25 -46 75 -98 118 -122 28 -16 152 -17 1570 -17 1412 0 1542
1 1570 17 44 24 99 80 121 124 18 38 19 78 22 1169 2 1102 2 1131 -18 1210
-11 44 -38 118 -61 165 -41 85 -43 87 -648 691 -582 582 -609 608 -686 647
-44 22 -114 50 -155 61 -73 20 -97 21 -870 21 -758 0 -797 -1 -837 -19z m1567
-911 c0 -479 3 -597 14 -624 21 -51 76 -107 131 -132 l50 -24 588 0 587 0 0
-1030 0 -1030 -1375 0 -1375 0 0 1715 0 1715 690 0 690 0 0 -590z m1130 -432
c0 -5 -178 -8 -395 -8 l-395 0 0 403 0 402 395 -395 c217 -217 395 -398 395
-402z"/>
<path d="M1391 2379 c-44 -18 -50 -37 -51 -161 0 -64 3 -124 6 -133 18 -46 4
-45 1019 -45 1015 0 1001 -1 1019 45 10 27 7 245 -4 265 -5 10 -24 23 -41 29
-41 14 -1912 14 -1948 0z"/>
<path d="M1365 1675 c-24 -23 -25 -30 -25 -148 0 -116 1 -125 23 -145 l23 -22
980 0 981 0 21 23 c20 21 22 34 22 146 0 116 -1 123 -25 146 l-24 25 -976 0
-976 0 -24 -25z"/>
</g>
</svg>
