<svg width="60" height="60" viewBox="0 0 60 60" fill="none" xmlns="http://www.w3.org/2000/svg">
<circle cx="30" cy="30" r="30" fill="url(#paint0_linear_7_15)" fill-opacity="0.8"/>
<circle cx="30" cy="30" r="28" fill="white"/>
<path d="M29.84 35.728C32.944 35.728 35.472 33.2 35.472 30.096V29.52V20.112C35.472 16.944 33.008 14.48 29.84 14.48C26.736 14.48 24.208 17.008 24.208 20.112V29.52V30.096C24.208 33.2 26.736 35.728 29.84 35.728ZM25.808 29.52V20.112C25.808 17.904 27.6 16.08 29.84 16.08C32.112 16.08 33.872 17.84 33.872 20.112V29.52V30.096C33.872 32.304 32.08 34.128 29.84 34.128C27.6 34.128 25.808 32.336 25.808 30.096V29.52Z" fill="url(#paint1_linear_7_15)"/>
<path d="M38.0642 29.52C37.6482 29.52 37.3282 29.84 37.2642 30.224C36.8162 33.904 33.9362 36.752 30.3522 36.944C28.2722 37.072 26.2882 36.368 24.7522 34.96C23.4082 33.744 22.5762 32.048 22.3842 30.256C22.3522 29.84 22.0002 29.52 21.5842 29.52C21.1042 29.52 20.7522 29.936 20.7842 30.416C21.0082 32.624 22.0322 34.672 23.6642 36.144C25.1682 37.552 27.0242 38.384 29.0402 38.544V43.984H26.2882C25.8402 43.984 25.4882 44.336 25.4882 44.784C25.4882 45.232 25.8402 45.584 26.2882 45.584H33.3922C33.8402 45.584 34.1922 45.232 34.1922 44.784C34.1922 44.336 33.8402 43.984 33.3922 43.984H30.6402V38.544C34.9282 38.224 38.3202 34.768 38.8642 30.416C38.8962 29.936 38.5442 29.52 38.0642 29.52Z" fill="url(#paint2_linear_7_15)"/>
<defs>
<linearGradient id="paint0_linear_7_15" x1="9.6875" y1="9.6875" x2="53.125" y2="53.125" gradientUnits="userSpaceOnUse">
<stop stop-color="#0F1A83"/>
<stop offset="0.244792" stop-color="#1F5C94"/>
<stop offset="0.510417" stop-color="#4097C9"/>
<stop offset="0.708333" stop-color="#43BDCE"/>
<stop offset="0.880208" stop-color="#5EDEEF"/>
<stop offset="1" stop-color="#A0F4FF"/>
</linearGradient>
<linearGradient id="paint1_linear_7_15" x1="29.84" y1="14.48" x2="29.84" y2="35.728" gradientUnits="userSpaceOnUse">
<stop stop-color="#0F1A83"/>
<stop offset="1" stop-color="#4097C9"/>
</linearGradient>
<linearGradient id="paint2_linear_7_15" x1="29.8242" y1="29.52" x2="29.8242" y2="45.584" gradientUnits="userSpaceOnUse">
<stop stop-color="#0F1A83"/>
<stop offset="1" stop-color="#4097C9"/>
</linearGradient>
</defs>
</svg>
