<svg width="24" height="24" viewBox="0 0 24 24" fill="none" xmlns="http://www.w3.org/2000/svg">
	<path fill-rule="evenodd" clip-rule="evenodd" fill="white" d="M14.4985 14.4955C12.3506 16.6434 8.86817 16.6434 6.72029 14.4955C4.5724 12.3476 4.5724 8.86524 6.72029 6.71736C8.86817 4.56947 12.3506 4.56947 14.4985 6.71736C16.6463 8.86524 16.6463 12.3476 14.4985 14.4955ZM14.7563 16.8575C11.8433 18.7944 7.8748 18.4785 5.30607 15.9097C2.37714 12.9808 2.37714 8.23208 5.30607 5.30314C8.23501 2.37421 12.9837 2.37421 15.9127 5.30314C18.7227 8.11314 18.8368 12.5982 16.255 15.5442C16.2599 15.5489 16.2648 15.5537 16.2696 15.5585L21.4081 20.697C21.7987 21.0876 21.7987 21.7207 21.4081 22.1113C21.0176 22.5018 20.3844 22.5018 19.9939 22.1113L14.8554 16.9727C14.819 16.9363 14.7859 16.8977 14.7563 16.8575Z" />
</svg>
