<svg width="60" height="60" viewBox="0 0 60 60" fill="none" xmlns="http://www.w3.org/2000/svg">
<circle cx="30" cy="30" r="29" fill="white" stroke="url(#paint0_linear_9_65)" stroke-width="2"/>
<path d="M33.8281 41.4844V40.9844V33.875V33.375H34.3281H37.0625C37.0716 33.375 37.0805 33.3723 37.0882 33.3674C37.0958 33.3624 37.1018 33.3553 37.1054 33.3469C37.1091 33.3386 37.1102 33.3294 37.1087 33.3204C37.1072 33.3114 37.1031 33.303 37.097 33.2963L30.5427 26.1959C30.5374 26.1911 30.5313 26.1873 30.5247 26.1845C30.5169 26.1813 30.5084 26.1796 30.4999 26.1796C30.4914 26.1796 30.483 26.1813 30.4752 26.1845C30.4686 26.1873 30.4625 26.1911 30.4572 26.1959L23.9029 33.2963C23.8967 33.303 23.8927 33.3114 23.8911 33.3204C23.8896 33.3294 23.8908 33.3386 23.8944 33.3469C23.8981 33.3553 23.9041 33.3624 23.9117 33.3674C23.9194 33.3723 23.9283 33.375 23.9374 33.375H23.9375H26.6719H27.1719V33.875V40.9844V41.4844H26.6719H21.7503H33.8281ZM33.8281 41.4844H34.3281H39.2497H33.8281ZM39.7923 27.3996C39.7923 27.3881 39.7953 27.332 39.7961 27.3203C39.7995 26.0976 39.5617 24.8862 39.0963 23.7555C38.6309 22.6249 37.947 21.5971 37.0838 20.7312C36.2206 19.8652 35.1951 19.178 34.0659 18.7089C32.9368 18.2399 31.7262 17.9982 30.5035 17.9977C29.2808 17.9972 28.07 18.2379 26.9404 18.706C25.8109 19.1741 24.7848 19.8604 23.9209 20.7257C23.057 21.5909 22.3722 22.6181 21.9059 23.7484C21.4395 24.8786 21.2007 26.0898 21.2031 27.3125L39.7923 27.3996ZM39.7923 27.3996C39.7912 27.531 39.8374 27.6584 39.9225 27.7586M39.7923 27.3996L39.9225 27.7586M39.9225 27.7586C40.0077 27.8587 40.126 27.9248 40.2559 27.9449L39.9225 27.7586ZM20.222 27.4376L20.6019 27.3547L20.6152 26.9662C20.7032 24.4034 21.7832 21.9749 23.6274 20.193C25.4715 18.4111 27.9356 17.4151 30.5 17.4151C33.0644 17.4151 35.5285 18.4111 37.3726 20.193C39.2168 21.9749 40.2968 24.4034 40.3848 26.9662L40.8845 26.949L40.778 27.4376C42.502 27.8136 44.0261 28.8136 45.0574 30.2454C46.0887 31.6772 46.5544 33.4396 46.3648 35.194C46.1753 36.9483 45.344 38.5706 44.0307 39.7491C42.7174 40.9276 41.0148 41.579 39.2502 41.5781H39.25H21.75H21.7497C19.9852 41.579 18.2826 40.9276 16.9693 39.7491C15.656 38.5706 14.8247 36.9483 14.6351 35.194C14.4456 33.4396 14.9113 31.6772 15.9426 30.2454C16.9739 28.8136 18.498 27.8136 20.222 27.4376ZM27.2656 40.9844V41.4844H27.7656H33.2344H33.7344V40.9844V33.3281C33.7344 33.3157 33.7393 33.3038 33.7481 33.295C33.7569 33.2862 33.7688 33.2812 33.7812 33.2812H35.8133H36.9553L36.1807 32.4421L30.8674 26.6858L30.5 26.2877L30.1326 26.6858L24.8193 32.4421L24.0447 33.2812H25.1867H27.2187C27.2312 33.2812 27.2431 33.2862 27.2519 33.295C27.2607 33.3038 27.2656 33.3157 27.2656 33.3281V40.9844Z" fill="white" stroke="url(#paint1_linear_9_65)"/>
<defs>
<linearGradient id="paint0_linear_9_65" x1="30" y1="0" x2="30" y2="60" gradientUnits="userSpaceOnUse">
<stop stop-color="#0F1A83"/>
<stop offset="1" stop-color="#4097C9"/>
</linearGradient>
<linearGradient id="paint1_linear_9_65" x1="30.5" y1="16.9151" x2="30.5" y2="42.0781" gradientUnits="userSpaceOnUse">
<stop stop-color="#0F1A83"/>
<stop offset="1" stop-color="#4097C9"/>
</linearGradient>
</defs>
</svg>
